<svg version="1.1" id="Layer_1" xmlns="http://www.w3.org/2000/svg" xmlns:xlink="http://www.w3.org/1999/xlink" x="0px" y="0px"
	 width="100%" viewBox="0 0 200 200" enable-background="new 0 0 200 200" xml:space="preserve">
<path fill="#041C29" opacity="1.000000" stroke="none" 
	d="
M201.000000,20.000000 
	C201.000000,36.687561 201.000000,53.375122 200.533417,70.530777 
	C196.079376,71.046761 192.037979,70.688637 188.113464,71.210121 
	C166.779388,74.044960 145.241425,69.711678 123.860062,73.189621 
	C120.429756,73.747604 118.538628,74.318535 116.999298,77.000626 
	C117.000000,77.000000 117.001938,76.998718 116.599510,77.000000 
	C113.271706,78.327682 110.346329,79.654068 106.591980,81.356323 
	C105.992279,79.971611 104.987755,77.652184 104.424629,75.272125 
	C114.605392,74.949577 114.612823,74.949608 114.654167,64.956268 
	C114.677528,59.309418 114.671669,53.662441 114.962067,47.907494 
	C117.416122,45.827724 115.866425,45.369324 113.937973,44.697685 
	C113.169296,42.951832 112.567909,41.505219 111.970886,39.804237 
	C111.968056,39.212547 111.960846,38.875229 111.837753,38.276943 
	C111.522636,37.694817 111.323418,37.373653 110.900482,36.807892 
	C109.779228,35.078480 108.881683,33.593674 108.018112,31.747974 
	C109.397484,27.259466 106.983917,25.841162 103.622437,24.569834 
	C102.046387,23.973763 100.944565,22.123781 99.627823,20.842068 
	C101.341583,20.230173 103.119904,18.982388 104.754677,19.148375 
	C107.535095,19.430689 110.225159,20.602753 111.983887,21.117332 
	C115.335915,20.302839 118.018951,19.072071 120.693344,19.090597 
	C147.463043,19.276018 174.231323,19.666971 201.000000,20.000000 
z"/>
<path fill="#041F2C" opacity="1.000000" stroke="none" 
	d="
M201.000000,177.000000 
	C201.000000,184.985672 201.000000,192.971344 201.000000,200.954010 
	C134.333313,200.951004 67.666649,200.951004 1.000000,200.951004 
	C1.000000,194.247284 1.000000,187.592560 1.467227,180.469116 
	C6.575212,179.907028 11.227144,179.986389 15.854573,179.687027 
	C28.365370,178.877625 40.853622,177.622086 53.374043,177.089600 
	C63.642227,176.652893 73.943771,177.003418 84.230522,176.999054 
	C89.457802,176.996841 94.685089,176.981522 100.203491,177.150650 
	C101.363747,177.537048 102.232864,177.744904 103.374184,178.010193 
	C104.099319,178.374908 104.552261,178.682175 105.136429,179.303650 
	C107.330032,182.117981 109.679512,183.670502 113.470177,181.957031 
	C116.947708,182.107224 119.971024,182.265823 123.238831,182.694672 
	C125.388145,183.307343 127.289352,183.919800 129.198456,183.945480 
	C137.459473,184.056595 145.722794,183.996185 154.317780,184.130341 
	C156.972885,184.492126 159.291473,184.782608 161.619095,184.936203 
	C164.644073,185.135803 167.678558,185.189636 170.704483,185.377869 
	C172.543198,185.492264 174.373489,185.741882 176.207565,185.930740 
	C175.152756,184.549072 174.083633,183.177887 173.056702,181.775787 
	C172.878281,181.532166 172.878098,181.157990 172.626663,180.201599 
	C176.435516,178.491150 179.067505,172.931946 184.793549,177.346725 
	C185.664520,178.018250 187.342636,177.795273 188.636429,177.737869 
	C192.760406,177.554840 196.879196,177.254822 201.000000,177.000000 
z"/>
<path fill="#04202C" opacity="1.000000" stroke="none" 
	d="
M201.000000,19.530624 
	C174.231323,19.666971 147.463043,19.276018 120.693344,19.090597 
	C118.018951,19.072071 115.335915,20.302839 111.983887,21.117332 
	C110.225159,20.602753 107.535095,19.430689 104.754677,19.148375 
	C103.119904,18.982388 101.341583,20.230173 99.627823,20.842068 
	C100.944565,22.123781 102.046387,23.973763 103.622437,24.569834 
	C106.983917,25.841162 109.397484,27.259466 107.736465,31.563328 
	C101.734314,25.338486 94.916855,20.438623 86.227890,20.100517 
	C73.851631,19.618931 61.438694,20.080070 48.690285,20.082230 
	C47.215923,20.311474 46.092705,20.596983 44.600922,20.859463 
	C42.470161,21.535988 40.707973,22.235540 38.659355,22.959419 
	C37.898075,23.283688 37.423222,23.583628 36.613350,23.949688 
	C34.699692,25.209913 33.121056,26.404020 31.630768,27.664474 
	C31.719120,27.730820 31.849913,27.552710 31.539013,27.602283 
	C30.809210,28.093361 30.390308,28.534863 29.985975,28.988144 
	C30.000546,28.999926 29.976503,28.970758 29.706150,29.085087 
	C28.952314,29.796696 28.468830,30.393978 27.745457,31.010544 
	C27.505568,31.029829 27.025188,31.060017 27.001026,30.676632 
	C25.610821,28.716175 24.475918,26.709341 22.758469,25.785633 
	C22.122335,25.443497 20.190887,27.768658 18.712652,28.645552 
	C17.664682,29.267216 16.305803,29.995399 15.223972,29.820549 
	C10.455264,29.049799 5.736718,27.968683 1.000000,27.000000 
	C1.000000,18.348885 1.000000,9.697771 1.000005,1.046717 
	C67.666679,1.046778 134.333344,1.046778 201.000000,1.046778 
	C201.000000,7.082787 201.000000,13.072018 201.000000,19.530624 
z"/>
<path fill="#041B26" opacity="1.000000" stroke="none" 
	d="
M99.912369,176.972122 
	C94.685089,176.981522 89.457802,176.996841 84.230522,176.999054 
	C73.943771,177.003418 63.642227,176.652893 53.374043,177.089600 
	C40.853622,177.622086 28.365370,178.877625 15.854573,179.687027 
	C11.227144,179.986389 6.575212,179.907028 1.467227,180.000198 
	C1.000000,169.312439 1.000000,158.624878 1.468657,147.468658 
	C16.628452,146.182159 31.319677,148.052383 46.089977,145.373337 
	C55.421040,143.680862 65.302589,145.061569 74.936531,144.980515 
	C78.441566,144.951019 81.482773,145.086533 82.661507,149.448486 
	C82.972191,150.598160 85.446465,151.163162 87.047333,152.336975 
	C87.223869,153.392014 87.280281,154.106735 87.125175,155.116440 
	C87.529778,161.459503 86.458099,168.126602 93.080856,172.287048 
	C94.413239,172.787262 95.663261,173.002274 97.135918,173.196823 
	C97.358559,173.176361 97.803909,173.136246 97.998383,173.465668 
	C98.752045,174.315323 99.311241,174.835556 99.822525,175.362854 
	C99.774612,175.369904 99.795921,175.204849 99.871750,175.375809 
	C99.947586,175.546768 100.027588,175.912155 99.996140,176.176849 
	C99.947250,176.618423 99.929810,176.795273 99.912369,176.972122 
z"/>
<path fill="#031822" opacity="1.000000" stroke="none" 
	d="
M116.998589,77.001251 
	C118.538628,74.318535 120.429756,73.747604 123.860062,73.189621 
	C145.241425,69.711678 166.779388,74.044960 188.113464,71.210121 
	C192.037979,70.688637 196.079376,71.046761 200.533417,70.999435 
	C201.000000,92.687561 201.000000,114.375122 200.583496,136.530029 
	C197.543335,136.905731 194.354355,135.832809 192.424133,136.944824 
	C189.268158,138.763000 186.790894,137.886292 183.987091,136.544128 
	C183.427826,129.415878 182.869812,122.750206 182.210526,115.712570 
	C182.039551,114.573257 181.969833,113.805893 182.044495,112.747040 
	C181.203171,109.903999 180.217453,107.352448 179.146912,104.463547 
	C177.757950,102.353188 176.453827,100.580177 174.998154,98.639328 
	C174.643936,98.247314 174.429550,98.034966 174.084991,97.539513 
	C173.055206,96.408012 172.143875,95.571449 171.104889,94.416100 
	C167.630188,89.096268 163.162109,87.037598 157.614594,88.087250 
	C156.837769,87.970268 156.399857,87.862663 155.718994,87.615791 
	C155.120407,87.358177 154.764786,87.239830 153.985596,87.214378 
	C148.579742,87.288879 143.597397,87.248390 138.615128,87.256447 
	C126.336250,87.276306 126.020126,87.632790 126.662292,99.928680 
	C124.484589,99.962944 122.742599,99.981018 120.985916,99.606461 
	C119.642746,96.141983 118.314262,93.070152 116.751053,89.779343 
	C114.899185,89.206398 113.282043,88.852440 111.342743,88.390503 
	C110.357674,88.169556 109.694771,88.056580 108.669037,87.789673 
	C105.872749,87.431526 103.439293,87.227318 100.966591,86.626709 
	C99.832367,83.847214 98.813927,81.424850 97.617577,79.093796 
	C96.702736,77.311256 95.562874,75.644196 94.523109,73.925774 
	C96.363663,73.896095 98.204147,73.858734 100.044823,73.843987 
	C100.367355,73.841400 100.690651,73.933708 101.006950,73.991089 
	C101.000305,74.000000 101.011780,73.983383 101.190300,74.171814 
	C101.653099,74.557220 101.937386,74.754204 102.526588,74.952202 
	C103.215416,75.079727 103.599319,75.206238 103.983231,75.332748 
	C104.987755,77.652184 105.992279,79.971611 106.591980,81.356323 
	C110.346329,79.654068 113.271706,78.327682 116.467834,77.324944 
	C116.613327,79.092110 116.488068,80.535614 116.362808,81.979126 
	C116.796593,82.145500 117.230377,82.311874 117.664162,82.478241 
	C118.509285,81.467690 119.354416,80.457130 120.199539,79.446571 
	C119.132553,78.631462 118.065575,77.816360 116.998589,77.001251 
M155.700714,79.002266 
	C153.786774,79.238327 151.872833,79.474396 149.958893,79.710457 
	C149.973404,80.384796 149.987900,81.059128 150.002411,81.733467 
	C154.402924,82.014824 158.801926,82.333099 163.206589,82.512680 
	C163.589554,82.528305 164.440704,81.371666 164.338379,81.201073 
	C163.885971,80.446922 163.237747,79.406044 162.525955,79.289368 
	C160.587082,78.971550 158.580109,79.069038 155.700714,79.002266 
z"/>
<path fill="#041823" opacity="1.000000" stroke="none" 
	d="
M86.927223,151.996643 
	C85.446465,151.163162 82.972191,150.598160 82.661507,149.448486 
	C81.482773,145.086533 78.441566,144.951019 74.936531,144.980515 
	C65.302589,145.061569 55.421040,143.680862 46.089977,145.373337 
	C31.319677,148.052383 16.628452,146.182159 1.468657,147.000000 
	C1.000000,138.645767 1.000000,130.291534 1.468657,121.468651 
	C12.688744,121.314507 23.448868,121.457489 34.188641,122.001900 
	C41.754448,122.385422 49.383560,124.368103 56.819508,123.726295 
	C65.622116,122.966515 74.012085,122.215187 82.061195,126.667488 
	C82.858589,127.108559 84.012650,126.904846 85.197586,127.192986 
	C85.633240,127.663414 85.872467,127.941261 86.323273,128.570053 
	C86.665649,136.612869 86.796432,144.304764 86.927223,151.996643 
z"/>
<path fill="#031620" opacity="1.000000" stroke="none" 
	d="
M85.001167,127.000404 
	C84.012650,126.904846 82.858589,127.108559 82.061195,126.667488 
	C74.012085,122.215187 65.622116,122.966515 56.819508,123.726295 
	C49.383560,124.368103 41.754448,122.385422 34.188641,122.001900 
	C23.448868,121.457489 12.688744,121.314507 1.468657,121.000000 
	C1.000000,111.312439 1.000000,101.624878 1.464229,91.468430 
	C3.237036,90.999382 4.546116,90.975479 5.854104,91.003181 
	C11.676328,91.126488 18.516819,88.623695 21.167749,97.005203 
	C21.324659,97.501312 22.584797,97.648483 23.493771,98.117844 
	C23.804073,98.698959 23.952158,99.120277 24.106848,99.947693 
	C24.827864,103.927147 26.131409,106.908867 30.799843,106.880013 
	C31.700712,107.333282 32.351299,107.669380 33.153381,108.265015 
	C34.348434,109.095100 35.391994,109.665642 36.557968,110.470726 
	C36.779213,110.851387 36.878044,110.997505 37.186062,111.302376 
	C37.711750,111.611488 38.028252,111.761848 38.516834,111.942291 
	C38.688911,111.972389 38.967861,112.182755 39.119545,112.479218 
	C42.345867,114.309959 44.656811,119.442207 49.496002,114.790855 
	C56.304554,114.806763 62.649475,114.879364 69.114197,115.212563 
	C70.147240,115.234497 71.060486,114.995850 72.218513,114.572906 
	C73.146439,113.942070 73.829567,113.495529 74.703613,113.252762 
	C75.433929,113.412277 75.973343,113.368019 76.512749,113.323761 
	C76.090813,112.543785 75.668869,111.763802 75.202843,110.559753 
	C75.207001,108.432823 75.255241,106.729958 75.491753,104.921844 
	C75.483025,104.208084 75.286026,103.599564 74.923080,102.769737 
	C74.490395,102.065742 74.223648,101.583054 73.922119,100.788925 
	C73.217392,98.193855 72.286331,97.822365 70.599838,100.161980 
	C69.136116,100.168892 68.068420,100.096458 67.040039,99.664948 
	C68.446907,97.426086 69.793144,94.022865 71.186745,94.003357 
	C73.622444,93.969261 76.230675,95.791626 78.502319,97.248215 
	C81.137413,98.937866 83.487686,101.071724 85.988754,103.392792 
	C86.493965,104.906876 86.972015,106.040916 87.477180,107.499161 
	C87.524696,108.471916 87.545090,109.120476 87.332184,110.004059 
	C88.070724,112.152740 89.042572,114.066383 89.874252,116.290878 
	C88.489395,118.400963 87.244698,120.200211 85.762238,122.190323 
	C85.350037,123.920929 85.175598,125.460663 85.001167,127.000404 
M84.745552,117.704330 
	C83.891510,117.255623 82.987450,116.363716 82.194138,116.453232 
	C80.681000,116.623962 79.204582,117.295090 77.787796,117.926514 
	C77.607529,118.006851 77.852875,119.631081 77.940201,119.634865 
	C79.319435,119.694504 80.731537,119.749664 82.080132,119.501579 
	C83.004585,119.331535 83.842735,118.692337 84.745552,117.704330 
z"/>
<path fill="#041B26" opacity="1.000000" stroke="none" 
	d="
M23.331554,97.958031 
	C22.584797,97.648483 21.324659,97.501312 21.167749,97.005203 
	C18.516819,88.623695 11.676328,91.126488 5.854104,91.003181 
	C4.546116,90.975479 3.237036,90.999382 1.464229,90.999771 
	C1.000000,69.979103 1.000000,48.958210 1.000000,27.468658 
	C5.736718,27.968683 10.455264,29.049799 15.223972,29.820549 
	C16.305803,29.995399 17.664682,29.267216 18.712652,28.645552 
	C20.190887,27.768658 22.122335,25.443497 22.758469,25.785633 
	C24.475918,26.709341 25.610821,28.716175 26.920891,30.971321 
	C26.601143,32.197353 26.337368,32.745316 25.813797,33.469315 
	C25.247189,34.404663 24.940380,35.163967 24.760319,35.890862 
	C24.887070,35.858452 24.820992,35.605278 24.532452,35.668724 
	C24.064377,35.813160 23.884846,35.894154 23.569843,36.146332 
	C23.266657,36.558357 23.133087,36.816837 23.021408,37.063988 
	C23.009150,37.035015 23.071651,37.042248 22.694279,37.081135 
	C18.578119,39.186790 17.576323,43.150040 19.488733,49.063126 
	C19.404047,61.136803 19.235159,72.789124 19.108578,84.760361 
	C19.341478,85.688202 19.532072,86.297127 19.838224,87.290695 
	C21.079706,91.102890 22.205629,94.530464 23.331554,97.958031 
z"/>
<path fill="#041B26" opacity="1.000000" stroke="none" 
	d="
M183.988312,137.006714 
	C186.790894,137.886292 189.268158,138.763000 192.424133,136.944824 
	C194.354355,135.832809 197.543335,136.905731 200.583496,136.998688 
	C201.000000,150.020889 201.000000,163.041794 201.000000,176.531342 
	C196.879196,177.254822 192.760406,177.554840 188.636429,177.737869 
	C187.342636,177.795273 185.664520,178.018250 184.793549,177.346725 
	C179.067505,172.931946 176.435516,178.491150 172.626663,180.201599 
	C172.878098,181.157990 172.878281,181.532166 173.056702,181.775787 
	C174.083633,183.177887 175.152756,184.549072 176.207565,185.930740 
	C174.373489,185.741882 172.543198,185.492264 170.704483,185.377869 
	C167.678558,185.189636 164.644073,185.135803 161.619095,184.936203 
	C159.291473,184.782608 156.972885,184.492126 154.321548,183.705414 
	C153.985489,182.865112 153.978149,182.581909 154.203430,182.245972 
	C154.781036,182.150986 155.069046,182.259659 155.763138,182.624725 
	C159.810730,182.146729 163.395279,181.563293 167.253128,180.867065 
	C168.015320,180.166763 168.504196,179.579254 169.181274,178.717010 
	C170.650894,176.690247 171.932327,174.938202 173.555389,173.111496 
	C181.340027,168.132919 184.634842,163.113892 181.986755,155.662354 
	C182.056778,154.893433 182.140350,154.457870 182.504822,153.834335 
	C183.390076,152.001953 184.465424,150.368561 184.504318,148.710876 
	C184.595734,144.815659 184.191803,140.908844 183.988312,137.006714 
z"/>
<path fill="#1F96A0" opacity="1.000000" stroke="none" 
	d="
M104.424629,75.272125 
	C103.599319,75.206238 103.215416,75.079727 102.368500,74.740425 
	C101.607582,74.346214 101.309685,74.164803 101.011780,73.983383 
	C101.011780,73.983383 101.000305,74.000000 100.921280,73.598305 
	C100.588776,64.789612 100.335297,56.382622 100.103516,47.846786 
	C100.098587,47.444839 99.973190,47.221588 99.807434,47.059658 
	C99.865852,47.071125 99.841782,47.187740 99.867188,46.827415 
	C99.899521,46.226376 99.906441,45.985661 99.860870,45.584816 
	C99.808388,45.424679 99.745338,45.093594 100.118217,44.985806 
	C104.316238,43.271545 108.141373,41.665073 111.966522,40.058601 
	C112.567909,41.505219 113.169296,42.951832 113.902390,45.009811 
	C114.249046,46.419292 114.464012,47.217407 114.678970,48.015522 
	C114.671669,53.662441 114.677528,59.309418 114.654167,64.956268 
	C114.612823,74.949608 114.605392,74.949577 104.424629,75.272125 
z"/>
<path fill="#24A09D" opacity="1.000000" stroke="none" 
	d="
M111.970886,39.804237 
	C108.141373,41.665073 104.316238,43.271545 99.825775,44.826462 
	C94.434326,36.941769 87.613152,33.525894 78.379074,33.900040 
	C68.597702,34.296356 58.785553,33.933216 49.243576,33.625244 
	C53.001064,32.899490 56.501823,32.450268 60.470963,32.004051 
	C70.190994,31.229921 79.826248,34.173206 88.657799,29.076057 
	C89.547478,28.562576 90.973335,28.649458 92.057556,28.884953 
	C93.409561,29.178610 94.665253,29.915733 96.967926,30.884254 
	C93.897751,24.638678 90.195847,21.915983 84.332031,21.893856 
	C76.215332,21.863224 68.100418,21.359833 59.536446,21.054230 
	C55.739239,20.745882 52.390331,20.442188 49.041424,20.138493 
	C61.438694,20.080070 73.851631,19.618931 86.227890,20.100517 
	C94.916855,20.438623 101.734314,25.338486 107.702507,31.924219 
	C108.881683,33.593674 109.779228,35.078480 110.950645,37.097542 
	C111.467567,37.933834 111.710602,38.235870 111.953644,38.537907 
	C111.960846,38.875229 111.968056,39.212547 111.970886,39.804237 
z"/>
<path fill="#04202C" opacity="1.000000" stroke="none" 
	d="
M114.962074,47.907494 
	C114.464012,47.217407 114.249046,46.419292 114.069679,45.309052 
	C115.866425,45.369324 117.416122,45.827724 114.962074,47.907494 
z"/>
<path fill="#04202C" opacity="1.000000" stroke="none" 
	d="
M111.837753,38.276943 
	C111.710602,38.235870 111.467567,37.933834 111.174362,37.342144 
	C111.323418,37.373653 111.522636,37.694817 111.837753,38.276943 
z"/>
<path fill="#1776A8" opacity="1.000000" stroke="none" 
	d="
M155.300079,182.519287 
	C155.069046,182.259659 154.781036,182.150986 153.813263,182.170746 
	C143.125092,182.240295 133.059723,182.332367 122.994347,182.424438 
	C119.971024,182.265823 116.947708,182.107224 113.445877,181.750839 
	C112.967369,181.553055 112.946899,181.138290 113.243179,180.939667 
	C121.341446,176.760071 126.030090,174.265137 124.452667,168.196213 
	C131.942657,168.168808 138.971619,168.235764 146.086975,168.535736 
	C146.449707,169.178848 146.726028,169.588959 147.075180,170.351288 
	C148.143204,173.771637 146.832321,174.741425 143.828461,175.110474 
	C142.010178,175.333832 140.342972,176.786972 138.607880,177.687576 
	C140.301682,178.600571 141.948273,180.176498 143.698212,180.301117 
	C148.759949,180.661545 153.863281,180.438171 158.653259,180.641846 
	C157.337509,181.399582 156.318802,181.959427 155.300079,182.519287 
z"/>
<path fill="#167FA9" opacity="1.000000" stroke="none" 
	d="
M123.991623,168.290573 
	C126.030090,174.265137 121.341446,176.760071 112.891678,180.913239 
	C111.791290,180.962128 111.338692,180.838806 110.666458,180.586304 
	C110.129868,180.326111 109.812912,180.195084 109.163940,180.064667 
	C107.556335,179.706665 106.280769,179.348053 105.005203,178.989441 
	C104.552261,178.682175 104.099319,178.374908 103.202538,177.765503 
	C102.170204,176.931000 101.581718,176.398636 100.996475,175.484558 
	C100.994728,174.084076 100.989746,173.065308 101.174316,171.764526 
	C102.911133,169.319290 104.458405,167.156097 106.318657,165.148315 
	C108.836952,166.170975 111.042259,167.038208 113.530594,167.859711 
	C114.192566,167.831161 114.571495,167.848328 115.067825,167.952515 
	C115.185226,168.039536 115.605217,168.111908 115.605217,168.111908 
	C115.605217,168.111908 116.009071,167.963501 116.452324,167.932648 
	C119.260925,168.031387 121.626274,168.160980 123.991623,168.290573 
z"/>
<path fill="#022336" opacity="1.000000" stroke="none" 
	d="
M123.238831,182.694672 
	C133.059723,182.332367 143.125092,182.240295 153.580627,182.223465 
	C153.978149,182.581909 153.985489,182.865112 153.989044,183.573242 
	C145.722794,183.996185 137.459473,184.056595 129.198456,183.945480 
	C127.289352,183.919800 125.388145,183.307343 123.238831,182.694672 
z"/>
<path fill="#022336" opacity="1.000000" stroke="none" 
	d="
M110.886086,180.715485 
	C111.338692,180.838806 111.791290,180.962128 112.595398,181.111877 
	C112.946899,181.138290 112.967369,181.553055 112.991669,181.759247 
	C109.679512,183.670502 107.330032,182.117981 105.136429,179.303650 
	C106.280769,179.348053 107.556335,179.706665 109.353218,180.257690 
	C110.211708,180.538574 110.548897,180.627029 110.886086,180.715485 
z"/>
<path fill="#022336" opacity="1.000000" stroke="none" 
	d="
M100.993233,175.866287 
	C101.581718,176.398636 102.170204,176.931000 102.930336,177.708054 
	C102.232864,177.744904 101.363747,177.537048 100.203491,177.150650 
	C99.929810,176.795273 99.947250,176.618423 100.237396,176.161804 
	C100.510109,175.882050 100.993233,175.866287 100.993233,175.866287 
z"/>
<path fill="#17B2A0" opacity="1.000000" stroke="none" 
	d="
M60.002583,32.001045 
	C56.501823,32.450268 53.001064,32.899490 48.939663,33.786705 
	C47.269993,34.491161 46.160969,34.757629 44.767746,35.087170 
	C43.996559,35.454826 43.509571,35.759411 42.944630,36.148842 
	C42.866680,36.233696 42.638889,36.198811 42.290276,36.281757 
	C41.069504,37.097595 40.197342,37.830486 39.312717,38.442039 
	C39.300255,38.320698 39.543251,38.299103 39.274273,38.457710 
	C38.693859,39.134209 38.382423,39.652103 37.969467,40.404331 
	C37.576653,40.785736 37.285358,40.932808 36.824760,41.188568 
	C36.442482,41.458939 36.259686,41.649559 36.036728,42.217606 
	C35.289043,44.062099 34.611698,45.558094 33.716537,47.299690 
	C33.001385,50.698162 32.504051,53.851044 31.677528,57.097260 
	C27.918642,59.452744 24.488947,61.714893 21.049431,63.515007 
	C20.802830,58.447544 20.566046,53.842117 20.278852,49.043724 
	C20.228441,48.850765 20.056042,48.491074 20.051071,48.126305 
	C20.316874,46.854725 20.587645,45.947914 20.947853,44.929478 
	C21.174265,44.549381 21.172638,44.279099 21.015896,43.724030 
	C21.224327,42.930820 21.449276,42.420586 21.928364,41.784599 
	C22.424116,40.754486 22.665730,39.850124 22.925432,38.627197 
	C22.986233,37.886505 23.028942,37.464378 23.071651,37.042248 
	C23.071651,37.042248 23.009150,37.035015 23.232784,37.030396 
	C23.456419,37.025772 23.878372,36.954449 24.065929,36.753025 
	C24.442657,36.236160 24.631826,35.920719 24.820992,35.605278 
	C24.820992,35.605278 24.887070,35.858452 24.996735,35.685383 
	C25.428795,34.772633 25.751194,34.032955 26.073593,33.293274 
	C26.337368,32.745316 26.601143,32.197353 26.945053,31.354706 
	C27.025188,31.060017 27.505568,31.029829 28.020868,30.898254 
	C29.016281,30.168039 29.496393,29.569399 29.976505,28.970760 
	C29.976503,28.970758 30.000546,28.999926 30.266888,28.882847 
	C30.972126,28.361416 31.411018,27.957062 31.849913,27.552710 
	C31.849913,27.552710 31.719120,27.730820 31.992121,27.645603 
	C33.826206,26.334784 35.387287,25.109179 36.948368,23.883572 
	C37.423222,23.583628 37.898075,23.283688 38.923710,23.096804 
	C41.306156,22.434072 43.137821,21.658285 44.969486,20.882494 
	C46.092705,20.596983 47.215923,20.311474 48.690285,20.082228 
	C52.390331,20.442188 55.739239,20.745882 59.670742,21.349007 
	C64.687195,24.975496 65.078987,28.277744 60.202358,31.561695 
	C60.088688,31.638239 60.067116,31.851536 60.002583,32.001045 
z"/>
<path fill="#1CABA0" opacity="1.000000" stroke="none" 
	d="
M36.613350,23.949688 
	C35.387287,25.109179 33.826206,26.334784 31.903770,27.579258 
	C33.121056,26.404020 34.699692,25.209913 36.613350,23.949688 
z"/>
<path fill="#1CABA0" opacity="1.000000" stroke="none" 
	d="
M44.600922,20.859467 
	C43.137821,21.658285 41.306156,22.434072 39.210136,23.072477 
	C40.707973,22.235540 42.470161,21.535988 44.600922,20.859467 
z"/>
<path fill="#1CABA0" opacity="1.000000" stroke="none" 
	d="
M29.706152,29.085087 
	C29.496393,29.569399 29.016281,30.168039 28.260757,30.878969 
	C28.468830,30.393978 28.952314,29.796696 29.706152,29.085087 
z"/>
<path fill="#1CABA0" opacity="1.000000" stroke="none" 
	d="
M31.539013,27.602283 
	C31.411018,27.957062 30.972126,28.361416 30.252319,28.871067 
	C30.390308,28.534863 30.809210,28.093361 31.539013,27.602283 
z"/>
<path fill="#1389AE" opacity="1.000000" stroke="none" 
	d="
M106.005676,164.992889 
	C104.458405,167.156097 102.911133,169.319290 100.844589,171.831848 
	C99.484840,172.499542 98.644371,172.817886 97.803909,173.136230 
	C97.803909,173.136246 97.358559,173.176361 97.128197,172.938263 
	C96.888535,172.527985 96.879227,172.355804 97.098358,171.932587 
	C97.861588,170.157593 98.396378,168.633606 98.931183,167.109619 
	C97.618164,167.085434 96.305138,167.061234 94.619278,167.047379 
	C93.750351,167.103073 93.254265,167.148438 92.749222,167.186554 
	C92.740265,167.179321 92.717514,167.195328 92.734344,166.806305 
	C92.152138,164.542892 91.637177,162.636597 90.939598,160.799652 
	C87.802597,152.538849 91.581161,140.531128 99.203140,136.352020 
	C99.494118,138.274597 99.912071,139.951294 99.969696,141.640289 
	C100.093918,145.280518 99.400269,149.080887 100.237808,152.524750 
	C100.974770,155.555054 103.339821,158.189392 104.996330,160.998413 
	C105.006798,160.998230 105.000305,161.017075 105.018143,161.361191 
	C105.359215,162.801163 105.682442,163.897034 106.005676,164.992889 
z"/>
<path fill="#1A839E" opacity="1.000000" stroke="none" 
	d="
M104.985863,160.998596 
	C103.339821,158.189392 100.974770,155.555054 100.237808,152.524750 
	C99.400269,149.080887 100.093918,145.280518 99.969696,141.640289 
	C99.912071,139.951294 99.494118,138.274597 99.203140,136.352020 
	C91.581161,140.531128 87.802597,152.538849 90.939598,160.799652 
	C91.637177,162.636597 92.152138,164.542892 92.465469,166.597382 
	C90.565407,162.792160 88.951050,158.806793 87.336693,154.821442 
	C87.280281,154.106735 87.223869,153.392014 87.047333,152.336975 
	C86.796432,144.304764 86.665649,136.612869 86.719101,128.505463 
	C90.306290,127.077286 93.709236,126.064621 97.336761,125.018600 
	C97.561340,124.985237 98.002373,124.877930 98.209656,125.033066 
	C98.629433,125.457825 98.841927,125.727448 99.082626,126.301865 
	C99.737579,127.096985 100.364319,127.587326 101.011353,128.194458 
	C101.031654,128.311234 101.224144,128.449615 101.238724,128.581146 
	C101.253304,128.712662 101.463196,128.873886 101.452515,129.333008 
	C101.600510,132.195099 101.759178,134.598099 101.834427,137.451508 
	C101.384789,145.803131 100.607773,153.761871 104.985863,160.998596 
z"/>
<path fill="#041F2C" opacity="1.000000" stroke="none" 
	d="
M87.125175,155.116440 
	C88.951050,158.806793 90.565407,162.792160 92.448639,166.986420 
	C92.717514,167.195328 92.740265,167.179321 92.795677,167.458160 
	C92.926094,168.097015 93.001091,168.457047 93.056046,169.213837 
	C93.028496,170.402588 93.020981,171.194580 93.009247,171.990784 
	C93.005028,171.995010 92.998489,172.001831 92.998489,172.001831 
	C86.458099,168.126602 87.529778,161.459503 87.125175,155.116440 
z"/>
<path fill="#041F2C" opacity="1.000000" stroke="none" 
	d="
M96.869919,172.183609 
	C96.879227,172.355804 96.888535,172.527985 96.905556,172.958740 
	C95.663261,173.002274 94.413239,172.787262 93.080856,172.287048 
	C92.998489,172.001831 93.005028,171.995010 93.357544,171.997269 
	C94.405960,172.021805 95.101860,172.044083 96.064957,172.103455 
	C96.511398,172.154922 96.690659,172.169266 96.869919,172.183609 
z"/>
<path fill="#1A839E" opacity="1.000000" stroke="none" 
	d="
M97.998375,173.465668 
	C98.644371,172.817886 99.484840,172.499542 100.655037,172.113876 
	C100.989746,173.065308 100.994728,174.084076 100.996475,175.484558 
	C100.993233,175.866287 100.510109,175.882050 100.268845,175.897095 
	C100.027588,175.912155 99.947586,175.546768 99.870613,175.406570 
	C99.793640,175.266373 99.870445,175.355789 99.870438,175.355789 
	C99.311241,174.835556 98.752045,174.315323 97.998375,173.465668 
z"/>
<path fill="#167FA9" opacity="1.000000" stroke="none" 
	d="
M99.822525,175.362854 
	C99.870445,175.355789 99.793640,175.266373 99.794785,175.235611 
	C99.795921,175.204849 99.774612,175.369904 99.822525,175.362854 
z"/>
<path fill="#041C29" opacity="1.000000" stroke="none" 
	d="
M36.994068,41.079880 
	C37.285358,40.932808 37.576653,40.785736 38.245430,40.258240 
	C38.929695,39.351574 39.236473,38.825340 39.543251,38.299103 
	C39.543251,38.299103 39.300255,38.320698 39.654922,38.366463 
	C40.886021,37.674419 41.762455,36.936615 42.638889,36.198811 
	C42.638889,36.198811 42.866680,36.233696 43.240440,36.123100 
	C44.093449,35.683037 44.572697,35.353565 45.051941,35.024094 
	C46.160969,34.757629 47.269993,34.491161 48.682934,34.063232 
	C58.785553,33.933216 68.597702,34.296356 78.379074,33.900040 
	C87.613152,33.525894 94.434326,36.941769 99.452896,44.934250 
	C99.745338,45.093594 99.808388,45.424679 99.649643,45.723190 
	C99.607857,46.410385 99.724815,46.799061 99.841782,47.187740 
	C99.841782,47.187740 99.865852,47.071125 99.848999,47.307644 
	C99.832138,47.544163 100.081825,47.975628 100.081825,47.975628 
	C100.335297,56.382622 100.588776,64.789612 100.927917,73.589401 
	C100.690651,73.933708 100.367355,73.841400 100.044823,73.843987 
	C98.204147,73.858734 96.363663,73.896095 94.523109,73.925774 
	C95.562874,75.644196 96.702736,77.311256 97.617577,79.093796 
	C98.813927,81.424850 99.832367,83.847214 100.576431,86.740509 
	C99.147293,87.314926 98.069061,87.379143 96.743561,87.333122 
	C96.316719,87.243637 96.137138,87.264397 95.614594,87.134491 
	C88.562607,85.228157 82.842102,82.025711 79.158623,75.603912 
	C79.090744,74.856506 78.960884,74.437706 78.837524,73.603790 
	C78.531456,71.736977 77.959801,70.287567 77.946938,68.833214 
	C77.834984,56.171696 75.175491,56.519287 62.619881,57.044773 
	C58.336323,57.423901 56.890667,59.866547 56.878777,63.516205 
	C56.868462,66.681503 56.814838,69.846672 56.624420,72.650154 
	C55.553463,65.801620 53.354912,59.201626 58.829918,53.504116 
	C52.639519,50.902016 50.814266,52.064133 50.867447,57.568928 
	C50.885784,59.466812 50.765846,61.748100 49.757622,63.188057 
	C48.067139,65.602409 45.613785,67.482620 43.351337,69.716034 
	C42.379635,68.171402 41.243134,66.364792 40.106628,64.558182 
	C39.642521,64.616417 39.178413,64.674652 38.714306,64.732887 
	C37.878265,67.684654 36.781940,70.591995 36.268780,73.598862 
	C35.546242,77.832581 35.256016,82.140068 34.582867,86.019241 
	C34.238853,83.818634 33.973545,82.015266 33.966492,80.210899 
	C33.923275,69.158760 33.938557,58.106388 33.934353,47.054092 
	C34.611698,45.558094 35.289043,44.062099 36.193535,42.101334 
	C36.646255,41.486519 36.837383,41.300957 36.994068,41.079880 
z"/>
<path fill="#031621" opacity="1.000000" stroke="none" 
	d="
M121.000610,99.999084 
	C122.742599,99.981018 124.484589,99.962944 126.635475,99.950256 
	C127.044373,99.955650 127.013306,99.894577 127.165787,100.097168 
	C127.565437,100.529366 127.812599,100.758972 128.031540,100.993141 
	C128.003326,100.997704 128.033508,100.949173 128.080994,101.279083 
	C129.167755,104.386848 130.469208,104.393105 132.463196,101.896927 
	C139.280487,101.977043 145.634552,102.135422 152.153915,102.560074 
	C154.208420,103.227859 156.097595,103.629372 158.275085,104.077042 
	C159.024033,104.467575 159.484650,104.811951 159.991669,105.502701 
	C162.285263,108.594040 164.532455,111.338997 166.910812,114.048225 
	C167.041962,114.012497 167.304550,113.942131 167.254211,114.277496 
	C167.184311,115.065620 167.164749,115.518379 166.930878,116.328529 
	C166.474960,125.120216 166.233337,133.554520 165.632629,141.911560 
	C161.939056,136.581985 158.604599,131.329681 155.017441,125.679306 
	C155.017441,128.999146 155.017441,132.500687 155.013733,136.419083 
	C155.007339,138.226608 155.004623,139.617264 154.657013,140.969177 
	C153.203659,139.954117 152.095184,138.977798 150.989594,137.556213 
	C150.928406,134.977753 151.086105,132.809784 150.758118,130.717987 
	C149.831177,124.806404 147.432526,122.508278 141.869324,121.699059 
	C140.108612,121.716713 138.496536,122.001205 136.542572,122.361954 
	C135.500412,122.440773 134.800140,122.443336 133.985718,122.140945 
	C132.842773,121.673607 131.813980,121.511238 130.511871,121.420944 
	C129.862656,121.487030 129.486740,121.481056 128.959198,121.124954 
	C127.490181,120.201782 126.172791,119.628731 124.555885,118.989166 
	C123.506172,118.612083 122.755974,118.301521 121.987343,117.791077 
	C121.968910,117.591194 121.949562,117.190186 121.780655,116.976707 
	C121.333382,116.531807 121.055016,116.300392 120.573425,115.998024 
	C120.112488,115.757317 119.966377,115.519104 119.800552,114.989456 
	C119.440926,114.508430 119.212624,114.250389 118.773842,113.864685 
	C118.323860,113.316238 118.084343,112.895470 117.862679,112.085434 
	C117.235062,110.463852 116.589600,109.231522 115.865463,107.899658 
	C115.786797,107.800110 115.859543,107.556999 115.897041,107.135254 
	C115.980087,106.154434 116.025635,105.595375 116.395950,104.912537 
	C117.480362,103.192734 118.240021,101.596703 119.333160,100.000473 
	C120.111305,99.999870 120.555954,99.999474 121.000610,99.999084 
z"/>
<path fill="#1A849F" opacity="1.000000" stroke="none" 
	d="
M151.988602,102.293800 
	C145.634552,102.135422 139.280487,101.977043 132.141693,101.778580 
	C130.249146,101.475388 129.141327,101.212280 128.033508,100.949173 
	C128.033508,100.949173 128.003326,100.997704 127.911728,100.762878 
	C127.551193,100.316887 127.282249,100.105728 127.013306,99.894577 
	C127.013306,99.894577 127.044373,99.955650 127.071190,99.934067 
	C126.020126,87.632790 126.336250,87.276306 138.615128,87.256447 
	C143.597397,87.248390 148.579742,87.288879 154.191345,87.429581 
	C155.201065,87.619614 155.581497,87.687332 155.961929,87.755058 
	C156.399857,87.862663 156.837769,87.970268 157.759888,88.279800 
	C158.501236,88.675919 158.742035,88.888634 158.626465,89.285355 
	C156.484299,89.531242 154.664627,89.811790 152.883255,89.655548 
	C146.873306,89.128448 141.124115,92.785851 138.339447,100.009010 
	C142.820526,100.009010 146.893997,99.679565 150.875351,100.142464 
	C152.992493,100.388618 154.950058,102.007263 156.612640,103.015213 
	C154.826614,102.780617 153.407608,102.537209 151.988602,102.293800 
z"/>
<path fill="#1874A6" opacity="1.000000" stroke="none" 
	d="
M182.223923,154.022293 
	C182.140350,154.457870 182.056778,154.893433 181.796829,155.887360 
	C181.110565,157.028015 180.600708,157.610306 180.076477,157.751389 
	C180.062134,151.528381 180.062134,145.746582 180.062134,139.028656 
	C177.726166,140.099167 176.295380,140.282089 175.823853,141.052292 
	C173.710754,144.503769 171.885559,148.130615 169.925888,151.677277 
	C168.942047,153.457870 167.892822,155.202316 166.887451,156.540771 
	C167.255234,152.685333 167.810944,149.258667 167.920334,145.817810 
	C168.151703,138.542191 168.149887,131.259171 168.534149,124.203018 
	C169.468887,127.519394 170.113190,130.611938 170.776367,133.795212 
	C172.591705,132.413422 174.060547,130.681198 175.911484,130.022186 
	C179.152359,128.868301 180.133575,126.834114 180.065552,123.642578 
	C179.967499,119.042847 180.136978,114.437408 180.394196,110.066071 
	C181.030746,111.211327 181.465424,112.124931 181.900101,113.038536 
	C181.969833,113.805893 182.039551,114.573257 182.127335,116.167038 
	C182.171570,129.336411 182.197754,141.679352 182.223923,154.022293 
z"/>
<path fill="#022336" opacity="1.000000" stroke="none" 
	d="
M182.504822,153.834335 
	C182.197754,141.679352 182.171570,129.336411 182.228592,116.539001 
	C182.869812,122.750206 183.427826,129.415878 183.987091,136.544128 
	C184.191803,140.908844 184.595734,144.815659 184.504318,148.710876 
	C184.465424,150.368561 183.390076,152.001953 182.504822,153.834335 
z"/>
<path fill="#041C29" opacity="1.000000" stroke="none" 
	d="
M156.150421,79.002121 
	C158.580109,79.069038 160.587082,78.971550 162.525955,79.289368 
	C163.237747,79.406044 163.885971,80.446922 164.338379,81.201073 
	C164.440704,81.371666 163.589554,82.528305 163.206589,82.512680 
	C158.801926,82.333099 154.402924,82.014824 150.002411,81.733467 
	C149.987900,81.059128 149.973404,80.384796 149.958893,79.710457 
	C151.872833,79.474396 153.786774,79.238327 156.150421,79.002121 
z"/>
<path fill="#022336" opacity="1.000000" stroke="none" 
	d="
M158.966492,89.119858 
	C158.742035,88.888634 158.501236,88.675919 158.098801,88.289162 
	C163.162109,87.037598 167.630188,89.096268 171.046066,94.483727 
	C171.114899,94.870140 170.995819,95.004143 170.660141,94.942474 
	C168.577240,93.867653 166.830017,92.854492 165.066498,91.871445 
	C165.050186,91.901566 165.118668,91.900787 164.890762,91.660797 
	C163.460403,90.888298 162.257965,90.355797 160.838913,89.638908 
	C160.070374,89.342972 159.518433,89.231415 158.966492,89.119858 
z"/>
<path fill="#03171F" opacity="1.000000" stroke="none" 
	d="
M120.985916,99.606445 
	C120.555954,99.999474 120.111305,99.999870 119.127815,99.779083 
	C118.057449,98.703613 117.525917,97.849327 116.994217,96.557800 
	C116.991302,94.079811 116.988541,92.039070 116.985779,89.998322 
	C118.314262,93.070152 119.642746,96.141983 120.985916,99.606445 
z"/>
<path fill="#041C29" opacity="1.000000" stroke="none" 
	d="
M116.751053,89.779343 
	C116.988541,92.039070 116.991302,94.079811 116.755646,96.681320 
	C116.040970,97.491158 115.564705,97.740227 114.992439,97.606628 
	C114.194565,94.967728 113.492699,92.711494 112.758835,90.341805 
	C112.726830,90.228348 112.529099,90.099907 112.511269,89.921913 
	C112.371811,89.501015 112.175468,89.388695 111.839645,89.303970 
	C111.774879,89.200981 111.543961,89.124313 111.587479,88.970421 
	C111.630989,88.816528 111.664902,88.498474 111.664902,88.498474 
	C113.282043,88.852440 114.899185,89.206398 116.751053,89.779343 
z"/>
<path fill="#46AAD1" opacity="1.000000" stroke="none" 
	d="
M96.990829,87.443359 
	C98.069061,87.379143 99.147293,87.314926 100.615685,87.136909 
	C103.439293,87.227318 105.872749,87.431526 108.663620,88.050156 
	C109.025261,88.638229 109.029488,88.811874 108.576012,88.989212 
	C104.409142,88.476379 100.699989,87.959869 96.990829,87.443359 
z"/>
<path fill="#041C29" opacity="1.000000" stroke="none" 
	d="
M116.999298,77.000626 
	C118.065575,77.816360 119.132553,78.631462 120.199539,79.446571 
	C119.354416,80.457130 118.509285,81.467690 117.664162,82.478241 
	C117.230377,82.311874 116.796593,82.145500 116.362808,81.979126 
	C116.488068,80.535614 116.613327,79.092110 116.870255,77.323654 
	C117.001938,76.998718 117.000000,77.000000 116.999298,77.000626 
z"/>
<path fill="#022336" opacity="1.000000" stroke="none" 
	d="
M182.044495,112.747040 
	C181.465424,112.124931 181.030746,111.211327 180.349030,110.096756 
	C180.101974,109.895782 180.158615,109.987373 180.159912,109.648438 
	C179.794357,108.509499 179.427505,107.709503 179.029266,106.612015 
	C178.940674,105.920189 178.883469,105.525848 178.927429,105.048592 
	C179.028595,104.965683 179.231735,104.800888 179.231735,104.800888 
	C180.217453,107.352448 181.203171,109.903999 182.044495,112.747040 
z"/>
<path fill="#022336" opacity="1.000000" stroke="none" 
	d="
M175.149704,98.807167 
	C176.453827,100.580177 177.757950,102.353188 179.146912,104.463547 
	C179.231735,104.800888 179.028595,104.965683 178.692810,104.822548 
	C177.196014,102.820343 176.034988,100.961281 174.943298,99.028839 
	C175.012650,98.955452 175.149704,98.807167 175.149704,98.807167 
z"/>
<path fill="#022336" opacity="1.000000" stroke="none" 
	d="
M171.173721,94.802513 
	C172.143875,95.571449 173.055206,96.408012 174.031586,97.583687 
	C174.096619,97.922798 173.990311,98.011810 173.703735,97.950043 
	C172.718796,97.550133 172.020432,97.211998 171.269318,96.561966 
	C171.142960,95.834763 171.069397,95.419449 170.995819,95.004143 
	C170.995819,95.004143 171.114899,94.870140 171.173721,94.802513 
z"/>
<path fill="#3086B2" opacity="1.000000" stroke="none" 
	d="
M109.033722,88.985535 
	C109.029488,88.811874 109.025261,88.638229 109.026451,88.204086 
	C109.694771,88.056580 110.357674,88.169556 111.342743,88.390503 
	C111.664902,88.498474 111.630989,88.816528 111.272705,88.987137 
	C110.287514,89.100334 109.660622,89.042931 109.033722,88.985535 
z"/>
<path fill="#041C29" opacity="1.000000" stroke="none" 
	d="
M101.190300,74.171814 
	C101.309685,74.164803 101.607582,74.346214 102.063583,74.739410 
	C101.937386,74.754204 101.653099,74.557220 101.190300,74.171814 
z"/>
<path fill="#022336" opacity="1.000000" stroke="none" 
	d="
M155.718994,87.615791 
	C155.581497,87.687332 155.201065,87.619614 154.614899,87.336685 
	C154.764786,87.239830 155.120407,87.358177 155.718994,87.615791 
z"/>
<path fill="#022336" opacity="1.000000" stroke="none" 
	d="
M174.150040,97.878624 
	C174.429550,98.034966 174.643936,98.247314 174.998154,98.639328 
	C175.149704,98.807167 175.012650,98.955452 174.750748,98.887161 
	C174.254242,98.592110 174.088074,98.323090 173.990311,98.011810 
	C173.990311,98.011810 174.096619,97.922798 174.150040,97.878624 
z"/>
<path fill="#031825" opacity="1.000000" stroke="none" 
	d="
M97.112190,125.051956 
	C93.709236,126.064621 90.306290,127.077286 86.507507,128.154541 
	C85.872467,127.941261 85.633240,127.663414 85.197586,127.192986 
	C85.175598,125.460663 85.350037,123.920929 86.199631,122.190491 
	C88.915886,122.000130 90.956985,122.000473 93.131760,122.305511 
	C94.547691,123.424118 95.829941,124.238037 97.112190,125.051956 
z"/>
<path fill="#041923" opacity="1.000000" stroke="none" 
	d="
M34.780937,86.416016 
	C35.256016,82.140068 35.546242,77.832581 36.268780,73.598862 
	C36.781940,70.591995 37.878265,67.684654 38.714306,64.732887 
	C39.178413,64.674652 39.642521,64.616417 40.106628,64.558182 
	C41.243134,66.364792 42.379635,68.171402 43.351337,69.716034 
	C45.613785,67.482620 48.067139,65.602409 49.757622,63.188057 
	C50.765846,61.748100 50.885784,59.466812 50.867447,57.568928 
	C50.814266,52.064133 52.639519,50.902016 58.829918,53.504116 
	C53.354912,59.201626 55.553463,65.801620 56.771870,72.933838 
	C57.177147,73.991730 57.279041,74.404198 57.206219,75.062790 
	C58.151371,79.435844 59.696770,80.060753 63.371098,77.601601 
	C64.492783,77.633286 65.243622,77.785858 66.146538,78.228477 
	C67.598595,78.521202 68.898582,78.523888 70.526764,78.541763 
	C71.244453,78.751022 71.633957,78.945084 72.226990,79.276764 
	C72.717079,79.579834 73.019279,79.708588 73.278557,79.762390 
	C73.219986,79.724152 73.298187,79.608170 73.395309,79.956940 
	C74.765549,80.752777 76.038673,81.199860 77.287003,81.621414 
	C77.262215,81.595886 77.331001,81.577614 77.298447,81.960190 
	C79.262810,84.169365 81.259735,85.995964 83.220856,87.831924 
	C83.185051,87.841301 83.202217,87.769287 83.171906,88.179108 
	C84.446724,92.733200 85.751846,96.877487 87.016556,101.350952 
	C86.914833,102.116905 86.853531,102.553673 86.584534,102.994263 
	C86.376823,102.998100 85.961594,103.012764 85.961594,103.012764 
	C83.487686,101.071724 81.137413,98.937866 78.502319,97.248215 
	C76.230675,95.791626 73.622444,93.969261 71.186745,94.003357 
	C69.793144,94.022865 68.446907,97.426086 66.710007,99.752426 
	C65.893379,100.139122 65.446083,100.079262 64.941414,99.668732 
	C63.274971,94.921478 60.169865,96.146759 56.848839,96.883209 
	C57.732670,98.169937 58.367153,99.093651 58.681747,100.142471 
	C57.926781,100.406776 57.491707,100.545982 56.684433,100.566193 
	C54.522629,100.463509 52.733028,100.479820 50.615963,100.390656 
	C49.378372,100.198708 48.468246,100.112244 47.590385,99.981590 
	C47.622650,99.937408 47.550938,100.022293 47.201965,99.804565 
	C44.235550,97.766472 41.618103,95.946098 38.947937,93.780296 
	C38.149101,92.663994 37.402985,91.893120 36.424046,90.893646 
	C35.721130,89.248695 35.251034,87.832359 34.780937,86.416016 
z"/>
<path fill="#1F969F" opacity="1.000000" stroke="none" 
	d="
M50.943424,100.496132 
	C52.733028,100.479820 54.522629,100.463509 56.946609,100.799553 
	C62.597530,101.116608 67.614075,101.081314 72.962273,101.057465 
	C73.514915,101.079399 73.735909,101.089882 73.956894,101.100365 
	C74.223648,101.583054 74.490395,102.065742 74.898834,103.113846 
	C75.128174,104.128532 75.215820,104.577812 75.303467,105.027092 
	C75.255241,106.729958 75.207001,108.432823 75.061562,110.797531 
	C74.813812,111.989243 74.663261,112.519127 74.512695,113.048996 
	C73.829567,113.495529 73.146439,113.942070 71.845238,114.511581 
	C70.482910,114.740364 69.738655,114.846169 68.994392,114.951973 
	C62.649475,114.879364 56.304554,114.806763 49.182297,114.606262 
	C45.593433,113.652512 42.781910,112.826637 39.973167,111.681892 
	C39.967693,110.939056 39.959450,110.515091 39.999882,109.725540 
	C41.068996,103.195831 46.493134,102.444481 50.943424,100.496132 
z"/>
<path fill="#3AA2D6" opacity="1.000000" stroke="none" 
	d="
M86.792236,102.990433 
	C86.853531,102.553673 86.914833,102.116905 87.333221,101.155670 
	C86.194283,96.343887 84.698250,92.056587 83.202217,87.769287 
	C83.202217,87.769287 83.185051,87.841301 83.137817,87.497314 
	C82.300385,85.794563 81.510193,84.435799 81.101227,83.098938 
	C83.401634,83.952324 85.257614,85.015869 87.255096,85.559738 
	C90.101494,86.334755 93.051704,86.728531 95.957565,87.285156 
	C96.137138,87.264397 96.316719,87.243637 96.743561,87.333122 
	C100.699989,87.959869 104.409142,88.476379 108.576012,88.989212 
	C109.660622,89.042931 110.287514,89.100334 111.229187,89.141022 
	C111.543961,89.124313 111.774879,89.200981 111.891884,89.459991 
	C112.128716,89.919151 112.302124,90.046120 112.529099,90.099907 
	C112.529099,90.099907 112.726830,90.228348 112.722992,90.603851 
	C112.721001,91.331924 112.722839,91.684502 112.398224,92.118156 
	C109.469261,93.878265 106.578598,95.242889 104.327919,97.305771 
	C100.386864,100.917992 96.838600,104.958771 92.552765,109.415901 
	C92.606873,110.005005 92.757126,111.640877 92.562973,113.215805 
	C90.667549,112.026245 89.116516,110.897636 87.565491,109.769028 
	C87.545090,109.120476 87.524696,108.471916 87.662506,107.232300 
	C87.477890,105.424301 87.135063,104.207367 86.792236,102.990433 
z"/>
<path fill="#24A09D" opacity="1.000000" stroke="none" 
	d="
M50.615963,100.390656 
	C46.493134,102.444481 41.068996,103.195831 39.561291,109.720810 
	C38.194534,110.133179 37.315044,110.184685 36.435555,110.236183 
	C35.391994,109.665642 34.348434,109.095100 33.069027,107.945343 
	C31.546373,105.612503 30.259573,103.858879 29.014442,101.731270 
	C29.765490,98.528839 30.790239,95.916176 28.650152,92.935959 
	C27.755629,91.690269 28.792561,89.057602 28.951319,87.055550 
	C29.356703,87.117844 29.762085,87.180138 30.167469,87.242432 
	C30.911215,88.563652 31.654963,89.884880 33.076744,92.410591 
	C32.666183,84.629547 32.332939,78.313766 32.001579,71.531998 
	C32.004547,66.378654 32.005630,61.691288 32.006718,57.003922 
	C32.504051,53.851044 33.001385,50.698162 33.716537,47.299690 
	C33.938557,58.106388 33.923275,69.158760 33.966492,80.210899 
	C33.973545,82.015266 34.238853,83.818634 34.582863,86.019241 
	C35.251034,87.832359 35.721130,89.248695 36.520439,91.206177 
	C37.566650,92.540115 38.283653,93.332924 39.000656,94.125725 
	C41.618103,95.946098 44.235550,97.766472 47.198139,99.784294 
	C47.543285,99.981743 47.558117,100.025772 47.558117,100.025772 
	C48.468246,100.112244 49.378372,100.198708 50.615963,100.390656 
z"/>
<path fill="#2A9192" opacity="1.000000" stroke="none" 
	d="
M20.056042,48.491074 
	C20.056042,48.491074 20.228441,48.850765 20.229095,49.482651 
	C20.482826,58.075279 20.735903,66.036018 21.001007,73.998596 
	C21.013033,74.000435 21.036222,73.993057 21.024067,74.454208 
	C21.022768,78.608940 21.033621,82.302521 21.110371,86.268326 
	C21.430668,87.036095 21.685068,87.531631 21.978256,88.406235 
	C23.771675,93.090843 25.526302,97.396378 27.184319,101.803268 
	C27.087711,101.904625 26.894478,102.107307 26.633949,101.927284 
	C25.615696,101.012039 24.857971,100.276817 24.100245,99.541588 
	C23.952158,99.120277 23.804073,98.698959 23.493771,98.117844 
	C22.205629,94.530464 21.079706,91.102890 19.869324,86.958817 
	C19.545332,85.642021 19.305801,85.041733 19.066273,84.441444 
	C19.235159,72.789124 19.404047,61.136803 19.650509,49.024467 
	C19.728086,48.564453 20.056042,48.491074 20.056042,48.491074 
z"/>
<path fill="#041822" opacity="1.000000" stroke="none" 
	d="
M92.998077,122.000824 
	C90.956985,122.000473 88.915886,122.000130 86.437393,121.999619 
	C87.244698,120.200211 88.489395,118.400963 90.300095,116.294876 
	C92.572510,116.002686 94.278938,116.017326 95.842545,116.307770 
	C94.799179,118.389328 93.898628,120.195076 92.998077,122.000824 
z"/>
<path fill="#24A09D" opacity="1.000000" stroke="none" 
	d="
M72.630615,101.046013 
	C67.614075,101.081314 62.597530,101.116608 57.318810,100.918549 
	C57.491707,100.545982 57.926781,100.406776 59.102509,100.239700 
	C61.561703,100.147675 63.280247,100.083534 64.998787,100.019394 
	C65.446083,100.079262 65.893379,100.139122 66.670700,100.111511 
	C68.068420,100.096458 69.136116,100.168892 70.794586,100.302818 
	C71.800453,100.591545 72.215530,100.818779 72.630615,101.046013 
z"/>
<path fill="#021722" opacity="1.000000" stroke="none" 
	d="
M84.732513,117.983597 
	C83.842735,118.692337 83.004585,119.331535 82.080132,119.501579 
	C80.731537,119.749664 79.319435,119.694504 77.940201,119.634865 
	C77.852875,119.631081 77.607529,118.006851 77.787796,117.926514 
	C79.204582,117.295090 80.681000,116.623962 82.194138,116.453232 
	C82.987450,116.363716 83.891510,117.255623 84.732513,117.983597 
z"/>
<path fill="#041C29" opacity="1.000000" stroke="none" 
	d="
M95.985359,116.031967 
	C94.278938,116.017326 92.572510,116.002686 90.440254,115.984039 
	C89.042572,114.066383 88.070724,112.152740 87.332184,110.004059 
	C89.116516,110.897636 90.667549,112.026245 92.695801,113.519943 
	C94.121422,114.241089 95.069809,114.597145 96.014374,115.223030 
	C96.002167,115.672554 95.993767,115.852257 95.985359,116.031967 
z"/>
<path fill="#02212C" opacity="1.000000" stroke="none" 
	d="
M39.970390,112.000771 
	C42.781910,112.826637 45.593433,113.652512 48.718658,114.662964 
	C44.656811,119.442207 42.345867,114.309959 39.370697,112.436249 
	C39.636909,112.064804 39.803650,112.032784 39.970390,112.000771 
z"/>
<path fill="#041B26" opacity="1.000000" stroke="none" 
	d="
M24.106848,99.947693 
	C24.857971,100.276817 25.615696,101.012039 26.750334,102.232483 
	C28.268015,104.066086 29.408785,105.414459 30.549557,106.762833 
	C26.131409,106.908867 24.827864,103.927147 24.106848,99.947693 
z"/>
<path fill="#2A9192" opacity="1.000000" stroke="none" 
	d="
M30.799839,106.880013 
	C29.408785,105.414459 28.268015,104.066086 27.010860,102.412506 
	C26.894478,102.107307 27.087711,101.904625 27.462032,101.882782 
	C28.215160,101.942375 28.593967,102.023811 28.972775,102.105247 
	C30.259573,103.858879 31.546373,105.612503 32.917534,107.685806 
	C32.351299,107.669380 31.700712,107.333282 30.799839,106.880013 
z"/>
<path fill="#02212C" opacity="1.000000" stroke="none" 
	d="
M74.703613,113.252769 
	C74.663261,112.519127 74.813812,111.989243 75.105644,111.221596 
	C75.668869,111.763802 76.090813,112.543785 76.512749,113.323761 
	C75.973343,113.368019 75.433929,113.412277 74.703613,113.252769 
z"/>
<path fill="#041923" opacity="1.000000" stroke="none" 
	d="
M72.962273,101.057465 
	C72.215530,100.818779 71.800453,100.591545 71.190628,100.223473 
	C72.286331,97.822365 73.217392,98.193855 73.922119,100.788925 
	C73.735909,101.089882 73.514915,101.079399 72.962273,101.057465 
z"/>
<path fill="#041C29" opacity="1.000000" stroke="none" 
	d="
M86.584534,102.994263 
	C87.135063,104.207367 87.477890,105.424301 87.635391,106.908096 
	C86.972015,106.040916 86.493965,104.906876 85.988754,103.392792 
	C85.961594,103.012764 86.376823,102.998100 86.584534,102.994263 
z"/>
<path fill="#02212C" opacity="1.000000" stroke="none" 
	d="
M69.114197,115.212563 
	C69.738655,114.846169 70.482910,114.740364 71.600449,114.695877 
	C71.060486,114.995850 70.147240,115.234497 69.114197,115.212563 
z"/>
<path fill="#2A9192" opacity="1.000000" stroke="none" 
	d="
M39.973167,111.681892 
	C39.803650,112.032784 39.636909,112.064804 39.219017,112.139793 
	C38.967861,112.182755 38.688911,111.972389 38.340244,111.732681 
	C37.653343,111.376534 37.315109,111.260078 36.976875,111.143623 
	C36.878044,110.997505 36.779213,110.851387 36.557968,110.470726 
	C37.315044,110.184685 38.194534,110.133179 39.512615,110.086403 
	C39.959450,110.515091 39.967693,110.939056 39.973167,111.681892 
z"/>
<path fill="#02212C" opacity="1.000000" stroke="none" 
	d="
M75.491745,104.921844 
	C75.215820,104.577812 75.128174,104.128532 75.064774,103.335144 
	C75.286026,103.599564 75.483025,104.208084 75.491745,104.921844 
z"/>
<path fill="#02212C" opacity="1.000000" stroke="none" 
	d="
M37.186062,111.302376 
	C37.315109,111.260078 37.653343,111.376534 38.168167,111.702591 
	C38.028252,111.761848 37.711750,111.611488 37.186062,111.302376 
z"/>
<path fill="#04202C" opacity="1.000000" stroke="none" 
	d="
M20.051071,48.126305 
	C20.056042,48.491074 19.728086,48.564453 19.566311,48.603111 
	C17.576323,43.150040 18.578119,39.186790 22.694279,37.081135 
	C23.028942,37.464378 22.986233,37.886505 22.687073,38.857170 
	C22.178490,40.240589 21.926355,41.075470 21.674223,41.910355 
	C21.449276,42.420586 21.224327,42.930820 20.911766,43.972343 
	C20.835575,44.682785 20.846996,44.861942 20.858416,45.041103 
	C20.587645,45.947914 20.316874,46.854725 20.051071,48.126305 
z"/>
<path fill="#1CABA0" opacity="1.000000" stroke="none" 
	d="
M25.813797,33.469315 
	C25.751194,34.032955 25.428795,34.772633 24.869984,35.717796 
	C24.940380,35.163967 25.247189,34.404663 25.813797,33.469315 
z"/>
<path fill="#04202C" opacity="1.000000" stroke="none" 
	d="
M19.108580,84.760361 
	C19.305801,85.041733 19.545332,85.642021 19.753765,86.574188 
	C19.532072,86.297127 19.341478,85.688202 19.108580,84.760361 
z"/>
<path fill="#1CABA0" opacity="1.000000" stroke="none" 
	d="
M24.532452,35.668724 
	C24.631826,35.920719 24.442657,36.236160 24.021538,36.508400 
	C23.789587,36.465199 23.705315,35.975143 23.705315,35.975143 
	C23.884846,35.894154 24.064377,35.813160 24.532452,35.668724 
z"/>
<path fill="#04202C" opacity="1.000000" stroke="none" 
	d="
M23.569843,36.146332 
	C23.705315,35.975143 23.789587,36.465199 23.833981,36.709824 
	C23.878372,36.954449 23.456419,37.025772 23.245041,37.059368 
	C23.133087,36.816837 23.266657,36.558357 23.569843,36.146332 
z"/>
<path fill="#022336" opacity="1.000000" stroke="none" 
	d="
M180.090836,158.192596 
	C180.600708,157.610306 181.110565,157.028015 181.810364,156.220703 
	C184.634842,163.113892 181.340027,168.132919 173.469254,173.033386 
	C173.041489,173.029968 172.873856,172.873917 172.994858,172.572586 
	C174.426086,170.344086 175.736298,168.416901 177.249084,166.295181 
	C177.574921,165.755249 177.698166,165.409882 177.899017,164.846252 
	C177.976593,164.628021 178.024979,164.167297 178.223251,164.033020 
	C178.687637,163.683441 178.823624,163.404694 178.906403,162.844376 
	C178.983353,162.626266 179.029755,162.166046 179.218536,162.032227 
	C179.659561,161.683609 179.782761,161.410614 179.860931,160.725250 
	C179.993561,159.644913 180.042206,158.918747 180.090836,158.192596 
z"/>
<path fill="#022336" opacity="1.000000" stroke="none" 
	d="
M155.763138,182.624725 
	C156.318802,181.959427 157.337509,181.399582 158.967529,180.668045 
	C164.010498,177.955536 168.442184,175.414734 172.873856,172.873917 
	C172.873856,172.873917 173.041489,173.029968 173.127625,173.108063 
	C171.932327,174.938202 170.650894,176.690247 168.911560,178.835022 
	C167.962372,179.811783 167.471085,180.395813 166.979813,180.979843 
	C163.395279,181.563293 159.810730,182.146729 155.763138,182.624725 
z"/>
<path fill="#041F2C" opacity="1.000000" stroke="none" 
	d="
M167.253128,180.867065 
	C167.471085,180.395813 167.962372,179.811783 168.723358,179.109741 
	C168.504196,179.579254 168.015320,180.166763 167.253128,180.867065 
z"/>
<path fill="#24A09D" opacity="1.000000" stroke="none" 
	d="
M99.867188,46.827415 
	C99.724815,46.799061 99.607857,46.410385 99.702118,45.883327 
	C99.906441,45.985661 99.899521,46.226376 99.867188,46.827415 
z"/>
<path fill="#24A09D" opacity="1.000000" stroke="none" 
	d="
M100.103516,47.846786 
	C100.081825,47.975628 99.832138,47.544163 99.790573,47.296177 
	C99.973190,47.221588 100.098587,47.444839 100.103516,47.846786 
z"/>
<path fill="#1CABA0" opacity="1.000000" stroke="none" 
	d="
M60.470963,32.004051 
	C60.067116,31.851536 60.088688,31.638239 60.202358,31.561695 
	C65.078987,28.277744 64.687195,24.975496 60.119041,21.353661 
	C68.100418,21.359833 76.215332,21.863224 84.332031,21.893856 
	C90.195847,21.915983 93.897751,24.638678 96.967926,30.884254 
	C94.665253,29.915733 93.409561,29.178610 92.057556,28.884953 
	C90.973335,28.649458 89.547478,28.562576 88.657799,29.076057 
	C79.826248,34.173206 70.190994,31.229921 60.470963,32.004051 
z"/>
<path fill="#0F72AD" opacity="1.000000" stroke="none" 
	d="
M172.994858,172.572586 
	C168.442184,175.414734 164.010498,177.955536 159.264557,180.470154 
	C153.863281,180.438171 148.759949,180.661545 143.698212,180.301117 
	C141.948273,180.176498 140.301682,178.600571 138.607880,177.687576 
	C140.342972,176.786972 142.010178,175.333832 143.828461,175.110474 
	C146.832321,174.741425 148.143204,173.771637 147.501129,170.351227 
	C150.745972,169.602310 154.312637,171.218826 156.093597,167.190552 
	C156.175720,167.116943 156.395264,167.136841 156.741653,167.104568 
	C158.366760,166.324341 159.645462,165.576385 160.920868,164.862976 
	C160.917557,164.897522 160.849487,164.883942 161.235504,164.888550 
	C162.708542,163.544373 163.795593,162.195602 164.882660,160.881012 
	C164.882675,160.915207 164.815948,160.900269 165.054199,160.848099 
	C165.525375,160.191986 165.758316,159.588058 166.009644,158.699066 
	C166.309753,157.930389 166.591446,157.446747 166.873138,156.963104 
	C167.892822,155.202316 168.942047,153.457870 169.925888,151.677277 
	C171.885559,148.130615 173.710754,144.503769 175.823853,141.052292 
	C176.295380,140.282089 177.726166,140.099167 180.062134,139.028656 
	C180.062134,145.746582 180.062134,151.528381 180.076477,157.751389 
	C180.042206,158.918747 179.993561,159.644913 179.720062,160.893921 
	C179.316391,161.651825 179.161240,161.901581 179.029755,162.166046 
	C179.029755,162.166046 178.983353,162.626266 178.755844,163.015259 
	C178.336395,163.642685 178.168610,163.897018 178.024979,164.167297 
	C178.024979,164.167297 177.976593,164.628021 177.747299,165.068924 
	C177.360840,165.836472 177.203690,166.163101 177.046509,166.489731 
	C175.736298,168.416901 174.426086,170.344086 172.994858,172.572586 
z"/>
<path fill="#031C2A" opacity="1.000000" stroke="none" 
	d="
M104.996330,160.998413 
	C100.607773,153.761871 101.384789,145.803131 102.106743,137.450287 
	C102.643974,136.997681 102.825478,136.996704 103.339371,136.997498 
	C104.114929,137.001785 104.558113,137.004303 105.118912,137.275421 
	C105.821152,138.028824 106.405762,138.513626 106.992203,139.398956 
	C106.992737,140.867050 106.991432,141.934616 106.679611,143.144928 
	C101.601830,146.945892 104.507416,152.530334 105.675026,155.298462 
	C109.459236,164.269958 120.590607,168.867767 129.694397,165.456467 
	C138.412476,162.189728 146.231506,161.970306 153.712982,167.293640 
	C150.915146,167.769470 148.457855,168.036087 146.000580,168.302704 
	C138.971619,168.235764 131.942657,168.168808 124.452667,168.196213 
	C121.626274,168.160980 119.260925,168.031387 116.346115,167.821045 
	C115.484726,167.595963 115.202652,167.637695 114.950432,167.865479 
	C114.571495,167.848328 114.192566,167.831161 113.400032,167.545670 
	C110.324394,165.190582 107.662346,163.103821 105.000305,161.017075 
	C105.000305,161.017075 105.006798,160.998230 104.996330,160.998413 
z"/>
<path fill="#1874A6" opacity="1.000000" stroke="none" 
	d="
M146.086975,168.535721 
	C148.457855,168.036087 150.915146,167.769470 154.038391,167.335175 
	C155.140076,167.199738 155.575775,167.231949 156.011490,167.264145 
	C154.312637,171.218826 150.745972,169.602310 147.428314,169.999023 
	C146.726028,169.588959 146.449707,169.178848 146.086975,168.535721 
z"/>
<path fill="#1A839E" opacity="1.000000" stroke="none" 
	d="
M105.018143,161.361191 
	C107.662346,163.103821 110.324394,165.190582 113.117004,167.591370 
	C111.042259,167.038208 108.836952,166.170975 106.318649,165.148315 
	C105.682442,163.897034 105.359215,162.801163 105.018143,161.361191 
z"/>
<path fill="#1874A6" opacity="1.000000" stroke="none" 
	d="
M115.067825,167.952515 
	C115.202652,167.637695 115.484726,167.595963 115.902863,167.851898 
	C116.009071,167.963501 115.605217,168.111908 115.605217,168.111908 
	C115.605217,168.111908 115.185226,168.039536 115.067825,167.952515 
z"/>
<path fill="#1776A8" opacity="1.000000" stroke="none" 
	d="
M110.666458,180.586304 
	C110.548897,180.627029 110.211708,180.538574 109.685242,180.257080 
	C109.812912,180.195084 110.129868,180.326111 110.666458,180.586304 
z"/>
<path fill="#1BAD9F" opacity="1.000000" stroke="none" 
	d="
M31.677528,57.097260 
	C32.005630,61.691288 32.004547,66.378654 31.671358,71.627701 
	C27.904911,72.790604 24.470566,73.391830 21.036222,73.993057 
	C21.036222,73.993057 21.013033,74.000435 21.007544,73.544769 
	C21.021120,70.051743 21.040186,67.014389 21.059250,63.977043 
	C24.488947,61.714893 27.918642,59.452744 31.677528,57.097260 
z"/>
<path fill="#24A09D" opacity="1.000000" stroke="none" 
	d="
M21.049431,63.515007 
	C21.040186,67.014389 21.021120,70.051743 20.995518,73.542931 
	C20.735903,66.036018 20.482826,58.075279 20.279507,49.675613 
	C20.566046,53.842117 20.802830,58.447544 21.049431,63.515007 
z"/>
<path fill="#1BAD9F" opacity="1.000000" stroke="none" 
	d="
M21.928362,41.784599 
	C21.926355,41.075470 22.178490,40.240589 22.668983,39.175735 
	C22.665730,39.850124 22.424116,40.754486 21.928362,41.784599 
z"/>
<path fill="#24A09D" opacity="1.000000" stroke="none" 
	d="
M42.290276,36.281757 
	C41.762455,36.936615 40.886021,37.674419 39.667381,38.487801 
	C40.197342,37.830486 41.069504,37.097595 42.290276,36.281757 
z"/>
<path fill="#24A09D" opacity="1.000000" stroke="none" 
	d="
M39.274273,38.457710 
	C39.236473,38.825340 38.929695,39.351574 38.346951,40.023903 
	C38.382423,39.652103 38.693859,39.134209 39.274273,38.457710 
z"/>
<path fill="#24A09D" opacity="1.000000" stroke="none" 
	d="
M44.767746,35.087170 
	C44.572697,35.353565 44.093449,35.683037 43.318390,36.038250 
	C43.509571,35.759411 43.996559,35.454826 44.767746,35.087170 
z"/>
<path fill="#24A09D" opacity="1.000000" stroke="none" 
	d="
M36.824760,41.188568 
	C36.837383,41.300957 36.646255,41.486519 36.263870,41.752838 
	C36.259686,41.649559 36.442482,41.458939 36.824760,41.188568 
z"/>
<path fill="#1BAD9F" opacity="1.000000" stroke="none" 
	d="
M20.947853,44.929478 
	C20.846996,44.861942 20.835575,44.682785 20.928284,44.255318 
	C21.172638,44.279099 21.174265,44.549381 20.947853,44.929478 
z"/>
<path fill="#167FA9" opacity="1.000000" stroke="none" 
	d="
M97.098358,171.932587 
	C96.690659,172.169266 96.511398,172.154922 95.993500,171.843857 
	C95.427292,171.060165 95.199730,170.573181 94.979523,169.704651 
	C94.988632,168.561066 94.990372,167.799057 94.992111,167.037048 
	C96.305138,167.061234 97.618164,167.085434 98.931183,167.109619 
	C98.396378,168.633606 97.861588,170.157593 97.098358,171.932587 
z"/>
<path fill="#1A839E" opacity="1.000000" stroke="none" 
	d="
M94.619270,167.047363 
	C94.990372,167.799057 94.988632,168.561066 94.730370,169.563965 
	C94.007935,169.475601 93.542007,169.146332 93.076088,168.817078 
	C93.001091,168.457047 92.926094,168.097015 92.804642,167.465393 
	C93.254265,167.148438 93.750351,167.103073 94.619270,167.047363 
z"/>
<path fill="#041822" opacity="1.000000" stroke="none" 
	d="
M106.990135,143.002197 
	C106.991432,141.934616 106.992737,140.867050 106.876083,139.129486 
	C106.172516,137.975266 105.586906,137.491043 105.001289,137.006805 
	C104.558113,137.004303 104.114929,137.001785 103.375694,136.617340 
	C103.400871,133.592712 104.964836,130.677139 101.463196,128.873886 
	C101.463196,128.873886 101.253304,128.712662 101.572586,128.403687 
	C105.036095,126.577957 104.390480,124.796722 102.783295,122.289619 
	C101.409218,120.146179 100.909363,117.442322 100.468361,115.008453 
	C104.584145,115.377357 108.254402,115.724144 112.092590,116.361435 
	C114.218773,118.653969 116.177032,120.656006 118.121643,123.038002 
	C118.403702,124.615669 118.699387,125.813385 118.918800,127.365341 
	C118.305969,131.951431 119.359993,136.851288 113.850136,138.647049 
	C115.963501,143.630035 119.281380,141.669159 122.439178,140.972000 
	C122.678596,141.272263 122.722023,141.510590 122.560867,142.276443 
	C122.305023,144.527023 122.157501,146.264374 121.693390,148.126297 
	C116.285782,147.311172 111.075294,146.698959 106.990135,143.002197 
z"/>
<path fill="#031620" opacity="1.000000" stroke="none" 
	d="
M100.022827,114.986343 
	C100.909363,117.442322 101.409218,120.146179 102.783295,122.289619 
	C104.390480,124.796722 105.036095,126.577957 101.558006,128.272156 
	C101.224144,128.449615 101.031654,128.311234 101.017670,127.847443 
	C101.001686,126.923531 100.999680,126.463409 100.920288,125.727554 
	C99.896072,125.260529 98.949219,125.069229 98.002373,124.877930 
	C98.002373,124.877930 97.561340,124.985237 97.336761,125.018600 
	C95.829941,124.238037 94.547691,123.424118 93.131760,122.305511 
	C93.898628,120.195076 94.799179,118.389328 95.842545,116.307770 
	C95.993767,115.852257 96.002167,115.672554 96.379807,115.257599 
	C97.482910,115.008163 98.216766,114.993980 99.221542,114.983887 
	C99.673042,114.983398 99.853622,114.978806 100.030693,114.984413 
	C100.027176,114.994606 100.022827,114.986343 100.022827,114.986343 
z"/>
<path fill="#041C29" opacity="1.000000" stroke="none" 
	d="
M101.452515,129.333008 
	C104.964836,130.677139 103.400871,133.592712 103.043304,136.615570 
	C102.825478,136.996704 102.643974,136.997681 102.190155,136.999863 
	C101.759178,134.598099 101.600510,132.195099 101.452515,129.333008 
z"/>
<path fill="#041822" opacity="1.000000" stroke="none" 
	d="
M98.209656,125.033066 
	C98.949219,125.069229 99.896072,125.260529 100.596344,125.726761 
	C99.917984,126.000153 99.486206,125.998619 99.054420,125.997078 
	C98.841927,125.727448 98.629433,125.457825 98.209656,125.033066 
z"/>
<path fill="#031C2A" opacity="1.000000" stroke="none" 
	d="
M99.082626,126.301865 
	C99.486206,125.998619 99.917984,126.000153 100.673721,126.002487 
	C100.999680,126.463409 101.001686,126.923531 100.997375,127.730667 
	C100.364319,127.587326 99.737579,127.096985 99.082626,126.301865 
z"/>
<path fill="#022336" opacity="1.000000" stroke="none" 
	d="
M93.056046,169.213837 
	C93.542007,169.146332 94.007935,169.475601 94.723007,169.945526 
	C95.199730,170.573181 95.427292,171.060165 95.726311,171.806732 
	C95.101860,172.044083 94.405960,172.021805 93.361755,171.993042 
	C93.020981,171.194580 93.028496,170.402588 93.056046,169.213837 
z"/>
<path fill="#43BDE9" opacity="1.000000" stroke="none" 
	d="
M78.831024,74.018906 
	C78.960884,74.437706 79.090744,74.856506 78.956955,75.871857 
	C77.774178,77.752502 76.855042,79.036591 75.690613,80.227615 
	C75.286697,80.060837 75.128082,79.987122 74.862411,79.569870 
	C73.151703,75.337013 69.670753,76.218361 66.625580,76.059105 
	C62.846016,75.861465 58.951748,75.555023 58.184151,70.884003 
	C57.348114,65.796486 57.567631,60.827961 63.435581,57.952805 
	C74.257812,58.056496 75.294159,59.147015 76.162933,69.513153 
	C76.294128,71.078613 77.904732,72.520088 78.831024,74.018906 
z"/>
<path fill="#46A8CD" opacity="1.000000" stroke="none" 
	d="
M62.992527,57.939087 
	C57.567631,60.827961 57.348114,65.796486 58.184151,70.884003 
	C58.951748,75.555023 62.846016,75.861465 66.625580,76.059105 
	C69.670753,76.218361 73.151703,75.337013 74.575729,79.591141 
	C74.030121,79.840019 73.664154,79.724098 73.298187,79.608170 
	C73.298187,79.608170 73.219986,79.724152 73.140388,79.526291 
	C72.715012,79.265335 72.369240,79.202240 72.023460,79.139145 
	C71.633957,78.945084 71.244453,78.751022 70.204300,78.380150 
	C68.367249,78.115028 67.180862,78.026726 65.994469,77.938431 
	C65.243622,77.785858 64.492783,77.633286 63.077606,77.456528 
	C60.735828,76.560448 59.058384,75.688553 57.380936,74.816658 
	C57.279041,74.404198 57.177147,73.991730 56.927803,73.295578 
	C56.814838,69.846672 56.868462,66.681503 56.878777,63.516205 
	C56.890667,59.866547 58.336323,57.423901 62.618843,57.253159 
	C62.997013,57.522327 62.992527,57.939087 62.992527,57.939087 
z"/>
<path fill="#46AAD1" opacity="1.000000" stroke="none" 
	d="
M75.935913,80.320686 
	C76.855042,79.036591 77.774178,77.752502 78.894974,76.200470 
	C82.842102,82.025711 88.562607,85.228157 95.614594,87.134483 
	C93.051704,86.728531 90.101494,86.334755 87.255096,85.559738 
	C85.257614,85.015869 83.401634,83.952324 80.801300,82.967133 
	C79.190422,82.401489 78.260712,81.989548 77.331001,81.577606 
	C77.331001,81.577614 77.262215,81.595886 77.125641,81.432968 
	C76.638016,80.953598 76.286964,80.637138 75.935913,80.320686 
z"/>
<path fill="#46AAD1" opacity="1.000000" stroke="none" 
	d="
M63.435581,57.952805 
	C62.992527,57.939087 62.997013,57.522327 62.998055,57.313942 
	C75.175491,56.519287 77.834984,56.171696 77.946938,68.833214 
	C77.959801,70.287567 78.531456,71.736977 78.837524,73.603790 
	C77.904732,72.520088 76.294128,71.078613 76.162933,69.513153 
	C75.294159,59.147015 74.257812,58.056496 63.435581,57.952805 
z"/>
<path fill="#041C29" opacity="1.000000" stroke="none" 
	d="
M106.679611,143.144928 
	C111.075294,146.698959 116.285782,147.311172 122.057564,148.209747 
	C127.052452,149.295120 131.366577,150.421616 135.730484,151.561111 
	C131.541321,159.489151 124.196091,151.272308 118.661942,153.827881 
	C122.010941,159.511566 135.304565,160.637238 141.581085,156.989899 
	C141.013199,153.313339 140.542435,150.265549 140.013641,147.100220 
	C139.955612,146.982666 139.898621,146.726746 140.267776,146.780762 
	C141.378220,146.753357 142.119492,146.671936 143.094604,146.764053 
	C144.784714,146.244598 146.240982,145.551605 147.697266,144.858612 
	C147.279816,144.182755 146.862350,143.506882 146.476837,142.465027 
	C146.729691,141.399750 146.950577,140.700470 147.455078,139.879547 
	C148.821350,139.172424 149.904037,138.586960 150.986725,138.001495 
	C152.095184,138.977798 153.203659,139.954117 154.673233,141.308533 
	C155.880371,146.161087 157.993790,144.187775 160.881012,142.616684 
	C158.702148,140.158798 156.859787,138.080505 155.017441,136.002228 
	C155.017441,132.500687 155.017441,128.999146 155.017441,125.679306 
	C158.604599,131.329681 161.939056,136.581985 165.634308,142.333115 
	C163.506943,149.086380 166.107162,157.413269 158.128769,161.540085 
	C156.965973,162.141541 156.844498,164.756165 156.276855,166.614288 
	C156.312515,166.789322 156.395264,167.136841 156.395264,167.136841 
	C156.395264,167.136841 156.175720,167.116943 156.093597,167.190552 
	C155.575775,167.231949 155.140076,167.199738 154.378967,167.125977 
	C146.231506,161.970306 138.412476,162.189728 129.694397,165.456467 
	C120.590607,168.867767 109.459236,164.269958 105.675026,155.298462 
	C104.507416,152.530334 101.601830,146.945892 106.679611,143.144928 
M115.202675,150.122986 
	C115.053215,150.094116 114.903755,150.065247 114.754288,150.036392 
	C114.857368,150.106369 114.960442,150.176361 115.202675,150.122986 
z"/>
<path fill="#167EAB" opacity="1.000000" stroke="none" 
	d="
M173.703735,97.950043 
	C174.088074,98.323090 174.254242,98.592110 174.681396,98.960541 
	C176.034988,100.961281 177.196014,102.820343 178.591644,104.905457 
	C178.883469,105.525848 178.940674,105.920189 179.046143,106.946579 
	C179.449142,108.381554 179.803879,109.184464 180.158615,109.987373 
	C180.158615,109.987373 180.101974,109.895782 180.147125,109.865097 
	C180.136978,114.437408 179.967499,119.042847 180.065552,123.642578 
	C180.133575,126.834114 179.152359,128.868301 175.911484,130.022186 
	C174.060547,130.681198 172.591705,132.413422 170.776367,133.795212 
	C170.113190,130.611938 169.468887,127.519394 168.455414,123.778076 
	C168.112427,121.402740 168.138641,119.676155 168.305893,117.686401 
	C168.066147,116.262856 167.685349,115.102493 167.304550,113.942131 
	C167.304550,113.942131 167.041962,114.012497 166.903625,113.697983 
	C164.491943,110.641098 162.218613,107.898720 159.945267,105.156326 
	C159.484650,104.811951 159.024033,104.467575 158.193802,103.862022 
	C157.824203,103.600845 157.666794,103.168869 158.064789,103.143448 
	C161.340515,104.391319 164.218246,105.664597 167.203598,106.985489 
	C169.543564,104.158096 172.918320,101.506447 170.330109,96.973099 
	C170.881241,96.918457 171.101654,96.896164 171.322083,96.873863 
	C172.020432,97.211998 172.718796,97.550133 173.703735,97.950043 
z"/>
<path fill="#031C2A" opacity="1.000000" stroke="none" 
	d="
M168.164856,117.949577 
	C168.138641,119.676155 168.112427,121.402740 168.164963,123.554260 
	C168.149887,131.259171 168.151703,138.542191 167.920334,145.817810 
	C167.810944,149.258667 167.255234,152.685333 166.887451,156.540771 
	C166.591446,157.446747 166.309753,157.930389 165.787476,158.884811 
	C165.303238,159.870483 165.059586,160.385376 164.815948,160.900269 
	C164.815948,160.900269 164.882675,160.915207 164.590790,161.016998 
	C163.149094,162.373840 161.999283,163.628891 160.849487,164.883942 
	C160.849487,164.883942 160.917557,164.897522 160.572266,164.940002 
	C158.898376,165.468079 157.569778,165.953674 156.241180,166.439270 
	C156.844498,164.756165 156.965973,162.141541 158.128769,161.540085 
	C166.107162,157.413269 163.506943,149.086380 165.993408,142.410370 
	C166.233337,133.554520 166.474960,125.120216 167.105988,116.547279 
	C167.718536,116.922287 167.941696,117.435928 168.164856,117.949577 
z"/>
<path fill="#031C2A" opacity="1.000000" stroke="none" 
	d="
M150.989594,137.556213 
	C149.904037,138.586960 148.821350,139.172424 147.375702,139.425385 
	C146.391022,134.714218 145.769302,130.335556 145.060745,125.649063 
	C143.982925,124.541153 142.991928,123.741089 142.004547,122.697235 
	C142.008133,122.453438 142.017975,121.965897 142.017975,121.965897 
	C147.432526,122.508278 149.831177,124.806404 150.758118,130.717987 
	C151.086105,132.809784 150.928406,134.977753 150.989594,137.556213 
z"/>
<path fill="#3392D0" opacity="1.000000" stroke="none" 
	d="
M121.949562,117.190186 
	C121.949562,117.190186 121.968910,117.591194 121.962738,118.033310 
	C122.980774,118.976189 124.004982,119.476952 125.016281,119.990303 
	C125.003380,120.002892 125.018806,119.972519 125.141693,120.253433 
	C125.922241,120.965698 126.579903,121.397057 127.219086,121.849464 
	C127.200600,121.870514 127.225594,121.813744 127.195435,122.208298 
	C128.126907,124.063988 129.088516,125.525131 129.855072,127.277092 
	C127.517624,128.702896 125.375229,129.837891 123.193245,130.551697 
	C121.418175,125.778152 119.682693,121.425789 118.312584,117.054955 
	C119.409416,117.039543 120.140877,117.042603 121.138824,117.102776 
	C121.586739,117.169991 121.768150,117.180092 121.949562,117.190186 
z"/>
<path fill="#3588C1" opacity="1.000000" stroke="none" 
	d="
M130.050140,126.986282 
	C129.088516,125.525131 128.126907,124.063988 127.441360,122.194206 
	C128.181915,121.682076 128.646378,121.578575 129.110840,121.475075 
	C129.486740,121.481056 129.862656,121.487030 130.530289,121.735916 
	C131.914642,122.134514 133.007263,122.290207 134.099884,122.445908 
	C134.800140,122.443336 135.500412,122.440773 136.876816,122.519638 
	C139.035629,122.714386 140.518280,122.827705 142.000946,122.941025 
	C142.991928,123.741089 143.982925,124.541153 144.641296,125.616089 
	C139.555832,126.256058 134.802979,126.621170 130.050140,126.986282 
z"/>
<path fill="#3086B2" opacity="1.000000" stroke="none" 
	d="
M112.724686,92.037079 
	C112.722839,91.684502 112.721001,91.331924 112.754997,90.717300 
	C113.492699,92.711494 114.194565,94.967728 114.908813,98.039200 
	C115.029327,100.896820 115.137451,102.939201 115.210236,105.322090 
	C115.403107,106.294060 115.631325,106.925529 115.859543,107.556999 
	C115.859543,107.556999 115.786797,107.800110 115.884270,108.254288 
	C116.602776,109.963882 117.223808,111.219284 117.844833,112.474693 
	C118.084343,112.895470 118.323860,113.316238 118.763748,114.116470 
	C118.964699,114.663872 118.965263,114.831810 118.710388,115.014297 
	C118.284492,115.035477 118.114052,115.042114 117.726181,114.900589 
	C117.058708,114.483856 116.608658,114.215279 116.067566,113.583191 
	C115.012543,108.632553 113.922127,104.066948 113.136284,99.449509 
	C112.723755,97.025551 112.844666,94.510818 112.724686,92.037079 
z"/>
<path fill="#031C2A" opacity="1.000000" stroke="none" 
	d="
M155.013733,136.419083 
	C156.859787,138.080505 158.702148,140.158798 160.881012,142.616684 
	C157.993790,144.187775 155.880371,146.161087 155.018127,141.347290 
	C155.004623,139.617264 155.007339,138.226608 155.013733,136.419083 
z"/>
<path fill="#031822" opacity="1.000000" stroke="none" 
	d="
M115.245575,104.981590 
	C115.137451,102.939201 115.029327,100.896820 115.004822,98.421860 
	C115.564705,97.740227 116.040970,97.491158 116.755806,97.118561 
	C117.525917,97.849327 118.057449,98.703613 118.794327,99.779282 
	C118.240021,101.596703 117.480362,103.192734 116.189453,104.894073 
	C115.658188,104.999367 115.245575,104.981590 115.245575,104.981590 
z"/>
<path fill="#031C2A" opacity="1.000000" stroke="none" 
	d="
M159.991669,105.502708 
	C162.218613,107.898720 164.491943,110.641098 166.772476,113.733719 
	C164.532455,111.338997 162.285263,108.594040 159.991669,105.502708 
z"/>
<path fill="#041C29" opacity="1.000000" stroke="none" 
	d="
M142.004547,122.697235 
	C140.518280,122.827705 139.035629,122.714386 137.218719,122.443382 
	C138.496536,122.001205 140.108612,121.716713 141.869324,121.699059 
	C142.017975,121.965897 142.008133,122.453438 142.004547,122.697235 
z"/>
<path fill="#031C2A" opacity="1.000000" stroke="none" 
	d="
M157.666794,103.168869 
	C157.666794,103.168869 157.824203,103.600845 157.905487,103.815865 
	C156.097595,103.629372 154.208420,103.227859 152.153915,102.560074 
	C153.407608,102.537209 154.826614,102.780617 156.775024,103.096085 
	C157.304443,103.168152 157.666794,103.168869 157.666794,103.168869 
z"/>
<path fill="#041C29" opacity="1.000000" stroke="none" 
	d="
M133.985718,122.140945 
	C133.007263,122.290207 131.914642,122.134514 130.803604,121.663849 
	C131.813980,121.511238 132.842773,121.673607 133.985718,122.140945 
z"/>
<path fill="#031C2A" opacity="1.000000" stroke="none" 
	d="
M128.080994,101.279083 
	C129.141327,101.212280 130.249146,101.475388 131.678467,101.856842 
	C130.469208,104.393105 129.167755,104.386848 128.080994,101.279083 
z"/>
<path fill="#041C29" opacity="1.000000" stroke="none" 
	d="
M128.959198,121.124954 
	C128.646378,121.578575 128.181915,121.682076 127.471527,121.799652 
	C127.225594,121.813744 127.200600,121.870514 127.140198,121.540253 
	C126.392792,120.797508 125.705803,120.385010 125.018806,119.972519 
	C125.018806,119.972519 125.003380,120.002892 124.967674,119.760788 
	C124.931969,119.518677 124.855400,119.055672 124.855400,119.055679 
	C126.172791,119.628731 127.490181,120.201782 128.959198,121.124954 
z"/>
<path fill="#1874A6" opacity="1.000000" stroke="none" 
	d="
M168.305893,117.686401 
	C167.941696,117.435928 167.718536,116.922287 167.320282,116.189888 
	C167.164749,115.518379 167.184311,115.065620 167.254211,114.277496 
	C167.685349,115.102493 168.066147,116.262856 168.305893,117.686401 
z"/>
<path fill="#3588C1" opacity="1.000000" stroke="none" 
	d="
M124.555885,118.989159 
	C124.855400,119.055672 124.931969,119.518677 124.980576,119.748199 
	C124.004982,119.476952 122.980774,118.976189 121.981171,118.233192 
	C122.755974,118.301521 123.506172,118.612083 124.555885,118.989159 
z"/>
<path fill="#041C29" opacity="1.000000" stroke="none" 
	d="
M117.862679,112.085434 
	C117.223808,111.219284 116.602776,109.963882 115.962936,108.353836 
	C116.589600,109.231522 117.235062,110.463852 117.862679,112.085434 
z"/>
<path fill="#3588C1" opacity="1.000000" stroke="none" 
	d="
M117.943604,115.048752 
	C118.114052,115.042114 118.284492,115.035477 118.949829,115.077179 
	C119.444710,115.125526 119.931877,115.212433 119.931877,115.212433 
	C119.966377,115.519104 120.112488,115.757317 120.597137,116.242180 
	C120.824066,116.557289 120.872330,117.045662 120.872330,117.045662 
	C120.140877,117.042603 119.409416,117.039543 118.320518,117.041122 
	C117.963074,117.045753 117.959389,117.031082 117.965424,116.700439 
	C117.962181,115.929451 117.952888,115.489105 117.943604,115.048752 
z"/>
<path fill="#041C29" opacity="1.000000" stroke="none" 
	d="
M115.210236,105.322090 
	C115.245575,104.981590 115.658188,104.999367 115.864685,105.017838 
	C116.025635,105.595375 115.980087,106.154434 115.897041,107.135254 
	C115.631325,106.925529 115.403107,106.294060 115.210236,105.322090 
z"/>
<path fill="#031C2A" opacity="1.000000" stroke="none" 
	d="
M127.165787,100.097168 
	C127.282249,100.105728 127.551193,100.316887 127.939941,100.758316 
	C127.812599,100.758972 127.565437,100.529366 127.165787,100.097168 
z"/>
<path fill="#041C29" opacity="1.000000" stroke="none" 
	d="
M119.800552,114.989456 
	C119.931877,115.212433 119.444710,115.125526 119.205276,115.062637 
	C118.965263,114.831810 118.964699,114.663872 118.974220,114.244141 
	C119.212624,114.250389 119.440926,114.508430 119.800552,114.989456 
z"/>
<path fill="#041C29" opacity="1.000000" stroke="none" 
	d="
M121.138824,117.102776 
	C120.872330,117.045662 120.824066,116.557289 120.800354,116.313133 
	C121.055016,116.300392 121.333382,116.531807 121.780655,116.976707 
	C121.768150,117.180092 121.586739,117.169991 121.138824,117.102776 
z"/>
<path fill="#1388AD" opacity="1.000000" stroke="none" 
	d="
M158.064789,103.143448 
	C157.666794,103.168869 157.304443,103.168152 157.142059,103.087273 
	C154.950058,102.007263 152.992493,100.388618 150.875351,100.142464 
	C146.893997,99.679565 142.820526,100.009010 138.339447,100.009010 
	C141.124115,92.785851 146.873306,89.128448 152.883255,89.655548 
	C154.664627,89.811790 156.484299,89.531242 158.626465,89.285355 
	C159.518433,89.231415 160.070374,89.342972 160.982666,89.959061 
	C162.601562,90.942657 163.860107,91.421722 165.118668,91.900787 
	C165.118668,91.900787 165.050186,91.901566 165.164368,92.192345 
	C166.852173,93.990562 168.425781,95.498009 169.999390,97.005447 
	C172.918320,101.506447 169.543564,104.158096 167.203598,106.985489 
	C164.218246,105.664597 161.340515,104.391319 158.064789,103.143448 
z"/>
<path fill="#1A849F" opacity="1.000000" stroke="none" 
	d="
M170.330109,96.973099 
	C168.425781,95.498009 166.852173,93.990562 165.180679,92.162231 
	C166.830017,92.854492 168.577240,93.867653 170.660156,94.942474 
	C171.069397,95.419449 171.142960,95.834763 171.269318,96.561966 
	C171.101654,96.896164 170.881241,96.918457 170.330109,96.973099 
z"/>
<path fill="#1A849F" opacity="1.000000" stroke="none" 
	d="
M164.890762,91.660797 
	C163.860107,91.421722 162.601562,90.942657 161.199249,90.143448 
	C162.257965,90.355797 163.460403,90.888298 164.890762,91.660797 
z"/>
<path fill="#3086B2" opacity="1.000000" stroke="none" 
	d="
M112.511269,89.921913 
	C112.302124,90.046120 112.128716,89.919151 111.956650,89.562988 
	C112.175468,89.388695 112.371811,89.501015 112.511269,89.921913 
z"/>
<path fill="#1874A6" opacity="1.000000" stroke="none" 
	d="
M180.159912,109.648438 
	C179.803879,109.184464 179.449142,108.381554 179.077545,107.244072 
	C179.427505,107.709503 179.794357,108.509499 180.159912,109.648438 
z"/>
<path fill="#031620" opacity="1.000000" stroke="none" 
	d="
M64.941414,99.668732 
	C63.280247,100.083534 61.561703,100.147675 59.422401,100.114594 
	C58.367153,99.093651 57.732670,98.169937 56.848839,96.883209 
	C60.169865,96.146759 63.274971,94.921478 64.941414,99.668732 
z"/>
<path fill="#041C29" opacity="1.000000" stroke="none" 
	d="
M83.171906,88.179108 
	C84.698250,92.056587 86.194283,96.343887 87.373642,100.826477 
	C85.751846,96.877487 84.446724,92.733200 83.171906,88.179108 
z"/>
<path fill="#041C29" opacity="1.000000" stroke="none" 
	d="
M77.298447,81.960190 
	C78.260712,81.989548 79.190422,82.401489 80.420067,82.945236 
	C81.510193,84.435799 82.300385,85.794563 83.173622,87.487938 
	C81.259735,85.995964 79.262810,84.169365 77.298447,81.960190 
z"/>
<path fill="#041C29" opacity="1.000000" stroke="none" 
	d="
M57.206223,75.062790 
	C59.058384,75.688553 60.735828,76.560448 62.706768,77.577423 
	C59.696770,80.060753 58.151371,79.435844 57.206223,75.062790 
z"/>
<path fill="#041C29" opacity="1.000000" stroke="none" 
	d="
M66.146538,78.228477 
	C67.180862,78.026726 68.367249,78.115028 69.876106,78.364944 
	C68.898582,78.523888 67.598595,78.521202 66.146538,78.228477 
z"/>
<path fill="#041C29" opacity="1.000000" stroke="none" 
	d="
M75.690613,80.227615 
	C76.286964,80.637138 76.638016,80.953598 77.150436,81.458496 
	C76.038673,81.199860 74.765549,80.752777 73.395309,79.956940 
	C73.664154,79.724098 74.030121,79.840019 74.682777,79.934677 
	C75.128082,79.987122 75.286697,80.060837 75.690613,80.227615 
z"/>
<path fill="#041C29" opacity="1.000000" stroke="none" 
	d="
M38.947937,93.780296 
	C38.283653,93.332924 37.566650,92.540115 36.753258,91.434784 
	C37.402985,91.893120 38.149101,92.663994 38.947937,93.780296 
z"/>
<path fill="#041C29" opacity="1.000000" stroke="none" 
	d="
M72.226990,79.276764 
	C72.369240,79.202240 72.715012,79.265335 73.198959,79.564529 
	C73.019279,79.708588 72.717079,79.579834 72.226990,79.276764 
z"/>
<path fill="#1F969F" opacity="1.000000" stroke="none" 
	d="
M47.590385,99.981590 
	C47.558117,100.025772 47.543285,99.981743 47.547112,100.002014 
	C47.550938,100.022293 47.622650,99.937408 47.590385,99.981590 
z"/>
<path fill="#359ED5" opacity="1.000000" stroke="none" 
	d="
M112.398224,92.118156 
	C112.844666,94.510818 112.723755,97.025551 113.136284,99.449509 
	C113.922127,104.066948 115.012543,108.632553 115.838692,113.778870 
	C115.438637,114.639839 115.176399,114.941628 114.610641,115.310440 
	C113.512970,115.608635 112.718819,115.839790 111.924660,116.070938 
	C108.254402,115.724144 104.584145,115.377357 100.468353,115.008453 
	C100.022827,114.986343 100.027176,114.994606 99.955582,114.753387 
	C99.572868,114.668045 99.261749,114.823921 98.950623,114.979790 
	C98.216766,114.993980 97.482910,115.008163 96.383621,114.987778 
	C95.069809,114.597145 94.121422,114.241089 93.040207,113.580887 
	C92.757126,111.640877 92.606873,110.005005 92.552765,109.415901 
	C96.838600,104.958771 100.386864,100.917992 104.327919,97.305771 
	C106.578598,95.242889 109.469261,93.878265 112.398224,92.118156 
z"/>
<path fill="#1DACA3" opacity="1.000000" stroke="none" 
	d="
M21.024067,74.454208 
	C24.470566,73.391830 27.904911,72.790604 31.669476,72.093681 
	C32.332939,78.313766 32.666183,84.629547 33.076744,92.410591 
	C31.654963,89.884880 30.911215,88.563652 30.167469,87.242432 
	C29.762085,87.180138 29.356703,87.117844 28.951319,87.055550 
	C28.792561,89.057602 27.755629,91.690269 28.650152,92.935959 
	C30.790239,95.916176 29.765490,98.528839 29.014442,101.731270 
	C28.593967,102.023811 28.215160,101.942375 27.558640,101.781433 
	C25.526302,97.396378 23.771675,93.090843 21.915337,88.132706 
	C21.557240,86.985443 21.300856,86.490776 21.044472,85.996101 
	C21.033621,82.302521 21.022768,78.608940 21.024067,74.454208 
z"/>
<path fill="#24A09D" opacity="1.000000" stroke="none" 
	d="
M21.110371,86.268326 
	C21.300856,86.490776 21.557240,86.985443 21.876545,87.753647 
	C21.685068,87.531631 21.430668,87.036095 21.110371,86.268326 
z"/>
<path fill="#1874A6" opacity="1.000000" stroke="none" 
	d="
M179.218536,162.032227 
	C179.161240,161.901581 179.316391,161.651825 179.636078,161.248108 
	C179.782761,161.410614 179.659561,161.683609 179.218536,162.032227 
z"/>
<path fill="#1874A6" opacity="1.000000" stroke="none" 
	d="
M177.249084,166.295181 
	C177.203690,166.163101 177.360840,165.836472 177.669708,165.287170 
	C177.698166,165.409882 177.574921,165.755249 177.249084,166.295181 
z"/>
<path fill="#1874A6" opacity="1.000000" stroke="none" 
	d="
M178.223251,164.033020 
	C178.168610,163.897018 178.336395,163.642685 178.678894,163.233368 
	C178.823624,163.404694 178.687637,163.683441 178.223251,164.033020 
z"/>
<path fill="#1874A6" opacity="1.000000" stroke="none" 
	d="
M161.235504,164.888550 
	C161.999283,163.628891 163.149094,162.373840 164.590775,160.982819 
	C163.795593,162.195602 162.708542,163.544373 161.235504,164.888550 
z"/>
<path fill="#1874A6" opacity="1.000000" stroke="none" 
	d="
M156.276855,166.614288 
	C157.569778,165.953674 158.898376,165.468079 160.575577,164.905457 
	C159.645462,165.576385 158.366760,166.324341 156.741653,167.104568 
	C156.395264,167.136841 156.312515,166.789322 156.276855,166.614288 
z"/>
<path fill="#1874A6" opacity="1.000000" stroke="none" 
	d="
M165.054199,160.848099 
	C165.059586,160.385376 165.303238,159.870483 165.769073,159.169861 
	C165.758316,159.588058 165.525375,160.191986 165.054199,160.848099 
z"/>
<path fill="#041C29" opacity="1.000000" stroke="none" 
	d="
M105.118912,137.275421 
	C105.586906,137.491043 106.172516,137.975266 106.874252,138.728973 
	C106.405762,138.513626 105.821152,138.028824 105.118912,137.275421 
z"/>
<path fill="#031C2A" opacity="1.000000" stroke="none" 
	d="
M140.071655,147.217743 
	C140.542435,150.265549 141.013199,153.313339 141.581085,156.989899 
	C135.304565,160.637238 122.010941,159.511566 118.661942,153.827881 
	C124.196091,151.272308 131.541321,159.489151 135.730484,151.561111 
	C131.366577,150.421616 127.052452,149.295120 122.374153,148.085175 
	C122.157501,146.264374 122.305023,144.527023 122.766159,142.583557 
	C125.067207,143.814194 127.054642,145.250961 129.488770,146.790390 
	C133.314209,147.001282 136.692932,147.109512 140.071655,147.217743 
z"/>
<path fill="#031925" opacity="1.000000" stroke="none" 
	d="
M122.339447,140.895737 
	C119.281380,141.669159 115.963501,143.630035 113.850136,138.647049 
	C119.359993,136.851288 118.305969,131.951431 119.379562,127.367462 
	C120.223709,127.010834 120.530823,127.006332 120.959152,127.155922 
	C121.076660,127.682549 121.072952,128.055084 121.113403,128.762299 
	C121.358223,129.733368 121.558891,130.369751 121.888794,131.005615 
	C122.018036,131.005081 122.270409,130.949265 122.243729,131.349182 
	C122.350220,132.535141 122.483398,133.321182 122.497025,134.452911 
	C122.364792,136.830978 122.352119,138.863358 122.339447,140.895737 
z"/>
<path fill="#337EAB" opacity="1.000000" stroke="none" 
	d="
M121.069244,128.427612 
	C121.072952,128.055084 121.076660,127.682549 120.972176,126.862068 
	C119.954422,125.162086 119.044853,123.910065 118.135284,122.658035 
	C116.177032,120.656006 114.218773,118.653969 112.092590,116.361435 
	C112.718819,115.839790 113.512970,115.608635 114.807587,115.537041 
	C116.191826,116.141426 117.075607,116.586250 117.959389,117.031082 
	C117.959389,117.031082 117.963074,117.045753 117.955139,117.059586 
	C119.682693,121.425789 121.418175,125.778152 122.951538,130.555542 
	C122.749428,130.980560 122.270409,130.949265 122.270409,130.949265 
	C122.270409,130.949265 122.018036,131.005081 121.913536,130.662048 
	C121.562439,129.688553 121.315842,129.058090 121.069244,128.427612 
z"/>
<path fill="#337EAB" opacity="1.000000" stroke="none" 
	d="
M122.439178,140.972000 
	C122.352119,138.863358 122.364792,136.830978 122.738983,134.671265 
	C125.081032,138.591858 127.061554,142.639786 129.042084,146.687729 
	C127.054642,145.250961 125.067207,143.814194 122.874481,142.070312 
	C122.722023,141.510590 122.678596,141.272263 122.439178,140.972000 
z"/>
<path fill="#041C29" opacity="1.000000" stroke="none" 
	d="
M118.121651,123.037994 
	C119.044853,123.910065 119.954422,125.162086 120.850960,126.707970 
	C120.530823,127.006332 120.223709,127.010834 119.455841,127.013214 
	C118.699387,125.813385 118.403702,124.615669 118.121651,123.037994 
z"/>
<path fill="#041C29" opacity="1.000000" stroke="none" 
	d="
M99.221542,114.983887 
	C99.261749,114.823921 99.572868,114.668045 99.959106,114.743195 
	C99.853622,114.978806 99.673042,114.983398 99.221542,114.983887 
z"/>
<path fill="#3586C4" opacity="1.000000" stroke="none" 
	d="
M129.488770,146.790390 
	C127.061554,142.639786 125.081032,138.591858 122.858536,134.325562 
	C122.483398,133.321182 122.350220,132.535141 122.243729,131.349182 
	C122.270409,130.949265 122.749428,130.980560 122.991135,130.976715 
	C125.375229,129.837891 127.517624,128.702896 129.855072,127.277092 
	C134.802979,126.621170 139.555832,126.256058 144.728119,125.923927 
	C145.769302,130.335556 146.391022,134.714218 147.092102,139.547028 
	C146.950577,140.700470 146.729691,141.399750 146.272461,142.649994 
	C145.389694,143.829437 144.743256,144.457901 143.749557,145.072540 
	C142.234406,145.614731 141.066513,146.170731 139.898621,146.726746 
	C139.898621,146.726746 139.955612,146.982666 140.013641,147.100204 
	C136.692932,147.109512 133.314209,147.001282 129.488770,146.790390 
z"/>
<path fill="#031C2A" opacity="1.000000" stroke="none" 
	d="
M144.096817,145.086365 
	C144.743256,144.457901 145.389694,143.829437 146.240509,143.015991 
	C146.862350,143.506882 147.279816,144.182755 147.697266,144.858612 
	C146.240982,145.551605 144.784714,146.244598 143.247940,146.572266 
	C143.477234,145.833405 143.787033,145.459885 144.096817,145.086365 
z"/>
<path fill="#337EAB" opacity="1.000000" stroke="none" 
	d="
M143.749557,145.072540 
	C143.787033,145.459885 143.477234,145.833405 143.014099,146.398712 
	C142.119492,146.671936 141.378220,146.753357 140.267776,146.780746 
	C141.066513,146.170731 142.234406,145.614731 143.749557,145.072540 
z"/>
<path fill="#031C2A" opacity="1.000000" stroke="none" 
	d="
M115.133102,150.184662 
	C114.960442,150.176361 114.857368,150.106369 114.754288,150.036377 
	C114.903755,150.065247 115.053215,150.094116 115.133102,150.184662 
z"/>
<path fill="#3588C1" opacity="1.000000" stroke="none" 
	d="
M125.141693,120.253433 
	C125.705803,120.385010 126.392792,120.797508 127.158676,121.519211 
	C126.579903,121.397057 125.922241,120.965698 125.141693,120.253433 
z"/>
<path fill="#3392D0" opacity="1.000000" stroke="none" 
	d="
M117.965424,116.700439 
	C117.075607,116.586250 116.191826,116.141426 115.111099,115.470001 
	C115.176399,114.941628 115.438637,114.639839 115.929749,114.142380 
	C116.608658,114.215279 117.058708,114.483856 117.726181,114.900589 
	C117.952888,115.489105 117.962181,115.929451 117.965424,116.700439 
z"/>
<path fill="#031C2A" opacity="1.000000" stroke="none" 
	d="
M121.113396,128.762299 
	C121.315842,129.058090 121.562439,129.688553 121.784294,130.662598 
	C121.558891,130.369751 121.358223,129.733368 121.113396,128.762299 
z"/>
</svg>