<?xml version="1.0" standalone="no"?>
<!DOCTYPE svg PUBLIC "-//W3C//DTD SVG 20010904//EN"
 "http://www.w3.org/TR/2001/REC-SVG-20010904/DTD/svg10.dtd">
<svg version="1.0" xmlns="http://www.w3.org/2000/svg"
 width="303.000000pt" height="305.000000pt" viewBox="0 0 303.000000 305.000000"
 preserveAspectRatio="xMidYMid meet">

<g transform="translate(0.000000,305.000000) scale(0.100000,-0.100000)"
fill="#000000" stroke="none">
<path d="M1308 2862 c-16 -2 -28 -7 -28 -12 0 -5 -15 -6 -33 -3 -24 3 -37 0
-47 -12 -17 -20 -3 -48 26 -53 10 -2 24 -9 29 -14 7 -7 2 -9 -16 -4 -31 7 -43
-2 -28 -21 15 -18 49 -17 70 3 19 17 15 43 -8 57 -17 11 -7 27 16 27 14 0 21
-10 26 -37 4 -21 9 -41 11 -45 7 -11 33 2 29 15 -15 51 -13 75 5 80 17 4 20 0
20 -28 0 -43 9 -65 26 -65 10 0 12 12 7 50 -5 44 -4 50 10 44 10 -3 19 -23 23
-50 8 -58 28 -52 32 10 2 26 7 44 13 41 5 -4 9 1 9 10 0 13 -13 15 -82 13 -46
-1 -95 -4 -110 -6z m-61 -48 c-3 -3 -12 -4 -19 -1 -8 3 -5 6 6 6 11 1 17 -2
13 -5z"/>
<path d="M1510 2820 c0 -44 3 -52 25 -62 21 -9 28 -8 45 7 11 10 20 31 20 47
0 18 5 28 15 28 11 0 15 -12 15 -45 0 -33 4 -45 15 -45 11 0 15 11 15 39 0 30
4 40 20 44 19 5 20 2 14 -42 -6 -48 -6 -48 26 -55 46 -9 50 -8 50 9 0 8 -9 15
-19 15 -11 0 -23 5 -26 10 -4 6 5 10 19 10 32 0 33 13 4 28 -23 10 -23 11 5
11 16 1 27 7 27 14 0 10 -26 18 -82 25 -131 19 -128 20 -128 -34 0 -59 -24
-55 -28 4 -2 29 -8 42 -18 42 -10 0 -14 -13 -14 -50z"/>
<path d="M1140 2826 c0 -3 5 -17 11 -33 l10 -28 -28 27 c-19 18 -33 24 -42 19
-11 -7 -11 -17 4 -60 9 -29 23 -51 31 -51 17 0 17 1 3 37 l-10 28 23 -23 c22
-20 58 -30 58 -16 0 23 -37 104 -47 104 -7 0 -13 -2 -13 -4z"/>
<path d="M1877 2802 c-45 -49 3 -124 56 -89 22 14 23 14 23 -5 -1 -28 20 -34
27 -9 3 14 11 18 26 14 24 -6 29 14 6 23 -23 9 -18 25 8 22 32 -4 29 15 -4 29
-27 11 -30 10 -44 -15 l-14 -27 -1 26 c0 48 -51 67 -83 31z m51 -43 c-4 -33
-38 -39 -38 -7 0 28 20 52 33 39 5 -5 7 -19 5 -32z"/>
<path d="M1030 2797 c0 -3 10 -30 21 -61 21 -54 32 -66 43 -48 9 15 -31 107
-48 110 -9 2 -16 1 -16 -1z"/>
<path d="M2097 2733 c-4 -3 -2 -12 4 -19 8 -10 6 -22 -10 -47 -19 -31 -19 -47
0 -47 4 0 19 18 32 41 15 24 27 36 32 30 3 -6 11 -9 17 -5 5 3 -2 -12 -17 -35
-14 -23 -23 -46 -20 -51 9 -15 62 -40 69 -33 11 12 6 22 -14 28 -29 9 -25 27
5 19 29 -7 34 10 8 25 -26 14 -9 25 17 11 32 -17 48 3 18 22 -24 16 -125 68
-131 68 -2 0 -7 -3 -10 -7z"/>
<path d="M890 2719 c0 -6 12 -30 26 -54 26 -45 35 -48 77 -19 22 15 6 28 -23
19 -16 -5 -23 1 -37 29 -16 34 -43 49 -43 25z"/>
<path d="M1371 2699 c-184 -22 -428 -119 -571 -228 -147 -111 -300 -300 -371
-456 -212 -469 -109 -1006 261 -1359 138 -131 293 -223 470 -277 41 -13 76
-24 78 -25 1 0 0 -8 -3 -16 -4 -10 -14 -14 -26 -11 -22 6 -28 -22 -6 -31 6 -3
0 -3 -15 0 -35 8 -53 -3 -37 -22 6 -8 8 -25 5 -39 -4 -14 -2 -34 4 -44 7 -14
6 -20 -6 -25 -22 -9 -6 -28 17 -21 11 4 27 1 35 -6 20 -16 31 0 40 59 3 23 11
42 16 42 5 0 7 -13 4 -30 -3 -17 -9 -44 -12 -61 -5 -26 -3 -30 12 -27 14 2 21
17 27 56 6 37 13 52 24 52 11 0 13 -4 6 -12 -6 -7 -11 -30 -11 -50 -1 -41 23
-64 59 -55 10 3 19 1 19 -4 0 -5 7 -9 15 -9 10 0 15 10 15 29 0 43 11 91 21
91 5 0 9 -27 9 -60 0 -47 3 -60 15 -60 12 0 15 13 15 60 0 33 4 60 10 60 6 0
10 -27 10 -60 0 -47 3 -60 15 -60 12 0 15 13 15 60 0 57 1 60 24 60 14 0 28
-4 31 -10 3 -5 0 -10 -8 -10 -22 0 -39 -27 -32 -48 8 -29 43 -34 66 -11 21 21
24 41 9 70 -6 11 -7 19 -2 19 12 0 22 -36 22 -82 0 -27 4 -38 15 -38 10 0 15
10 15 31 0 28 1 29 16 14 10 -9 25 -14 35 -12 11 3 21 1 24 -4 3 -4 12 -6 20
-3 8 4 12 10 9 15 -3 5 4 9 15 9 11 0 22 9 26 20 8 26 21 26 28 0 3 -13 11
-18 20 -14 13 5 13 12 -1 61 -12 44 -13 56 -2 63 7 4 9 13 6 19 -4 6 -12 9
-17 5 -6 -3 -20 5 -33 19 l-22 24 85 28 c356 115 653 413 764 767 133 420 30
864 -273 1182 -194 204 -455 334 -735 366 -102 11 -158 11 -264 -1z m335 -44
c241 -43 457 -158 631 -338 145 -150 238 -311 288 -498 106 -397 3 -802 -280
-1097 -100 -105 -184 -169 -305 -231 -330 -170 -701 -176 -1028 -17 -124 61
-200 114 -299 209 -312 299 -429 720 -318 1136 50 188 143 347 290 500 180
187 406 302 675 344 65 11 266 6 346 -8z m-299 -2326 c87 -10 282 0 326 17 10
3 12 -5 9 -30 -4 -33 -7 -36 -57 -47 -52 -11 -55 -11 -85 15 -21 17 -43 26
-66 26 -29 0 -37 -5 -48 -30 -12 -31 -12 -31 -23 -8 -12 26 -59 55 -70 44 -4
-4 6 -18 22 -31 17 -13 28 -26 25 -29 -3 -3 -35 -2 -70 2 -61 7 -66 9 -81 40
-8 19 -22 38 -30 44 -10 7 -4 8 20 4 19 -4 77 -11 128 -17z m391 -20 c-2 -6
-8 -10 -13 -10 -5 0 -11 4 -13 10 -2 6 4 11 13 11 9 0 15 -5 13 -11z m-234
-35 c9 -3 16 -10 16 -16 0 -14 -63 -5 -68 10 -4 13 25 16 52 6z m260 -30 c4
-15 5 -29 1 -32 -3 -3 -5 2 -5 12 0 9 -7 19 -15 22 -19 8 -20 24 -1 24 8 0 17
-12 20 -26z m-606 -11 c-4 -39 -28 -42 -28 -4 0 21 5 31 16 31 11 0 14 -8 12
-27z m477 -3 c-3 -5 -12 -10 -18 -10 -7 0 -6 4 3 10 19 12 23 12 15 0z m-303
-45 c-4 -31 -8 -35 -31 -34 -23 2 -24 2 -3 6 17 3 22 11 22 34 0 16 4 29 8 29
4 0 6 -16 4 -35z m398 20 c0 -8 -7 -15 -15 -15 -16 0 -20 12 -8 23 11 12 23 8
23 -8z m-60 -10 c0 -8 -7 -15 -15 -15 -16 0 -20 12 -8 23 11 12 23 8 23 -8z"/>
<path d="M1430 2550 c0 -48 -1 -50 -27 -50 -16 0 -38 -3 -50 -6 -20 -5 -24 -1
-34 41 -10 40 -15 46 -33 41 -12 -3 -45 -11 -73 -17 -57 -13 -60 -19 -44 -77
10 -33 9 -33 -35 -53 -25 -10 -47 -19 -49 -19 -1 0 -8 13 -15 30 -22 53 -32
54 -104 15 l-66 -37 25 -43 26 -43 -39 -30 -38 -31 -35 35 -35 34 -57 -51 -57
-51 34 -40 35 -40 -31 -39 c-17 -21 -36 -36 -42 -32 -6 3 -23 15 -38 25 -14
10 -28 18 -31 18 -8 0 -77 -116 -77 -128 0 -6 18 -21 40 -33 22 -13 39 -25 38
-28 -2 -4 -10 -23 -18 -44 -15 -41 -24 -43 -96 -22 -19 6 -23 -1 -39 -56 -9
-35 -19 -69 -22 -75 -3 -8 12 -17 39 -25 24 -7 46 -15 50 -19 4 -3 4 -26 0
-50 l-8 -45 -49 0 -50 0 -3 -77 -3 -78 50 0 c45 0 51 -3 57 -24 3 -13 4 -36 2
-52 -2 -24 -9 -30 -43 -38 -22 -5 -42 -10 -44 -12 -1 -1 5 -37 15 -79 13 -56
21 -74 32 -70 7 3 31 8 52 11 34 6 38 4 48 -22 5 -16 13 -37 17 -46 5 -13 -3
-22 -34 -38 -23 -11 -41 -23 -41 -26 0 -7 40 -84 57 -111 l15 -22 39 19 c21
11 42 20 47 20 5 0 21 -17 36 -37 l26 -38 -36 -34 -36 -34 56 -56 56 -55 34
33 34 33 36 -27 c20 -15 36 -31 36 -36 0 -4 -9 -24 -21 -43 l-21 -35 64 -41
c69 -44 66 -45 108 18 15 23 15 23 58 5 45 -19 46 -21 26 -90 -5 -19 1 -24 61
-42 37 -12 71 -21 75 -21 5 0 15 19 23 42 14 42 15 43 53 39 53 -4 54 -6 54
-57 l0 -44 80 0 80 0 0 44 0 44 45 6 c55 9 61 5 69 -39 8 -40 12 -41 100 -19
l64 16 -9 31 c-15 53 -11 61 36 78 l45 16 22 -38 23 -38 63 36 c66 37 72 49
45 90 -17 25 -16 26 18 54 42 35 46 35 81 2 l28 -27 47 45 c66 62 66 61 33 93
l-29 30 30 38 c35 44 41 45 79 18 l28 -20 41 68 c36 59 39 68 25 77 -55 33
-56 37 -37 83 l17 44 42 -7 43 -6 20 67 c12 36 21 70 21 74 0 4 -17 12 -37 17
-26 6 -38 14 -37 26 0 9 1 33 2 52 2 35 3 35 47 35 l45 0 0 79 0 80 -42 3 -43
3 -5 48 -6 47 38 11 c21 5 38 14 38 20 0 30 -34 139 -44 139 -6 0 -25 -4 -42
-9 -30 -9 -32 -7 -52 40 l-20 49 38 20 39 20 -37 65 c-19 36 -40 65 -44 65 -5
0 -23 -7 -41 -16 l-31 -17 -33 39 -32 39 31 33 32 32 -54 55 -54 55 -32 -31
-33 -32 -40 32 -40 32 20 34 c11 19 18 39 15 44 -8 13 -110 71 -124 71 -6 0
-13 -8 -17 -17 -3 -10 -12 -26 -19 -36 -13 -17 -16 -16 -61 3 -37 16 -46 24
-40 38 24 62 21 68 -46 86 -35 10 -68 20 -75 23 -7 2 -16 -14 -23 -43 l-12
-46 -37 6 c-20 3 -42 6 -49 6 -7 0 -13 19 -15 48 l-3 47 -77 3 -78 3 0 -51z
m198 -175 c187 -18 420 -146 546 -300 181 -223 245 -501 176 -771 -21 -81 -97
-254 -112 -254 -4 0 -8 -5 -8 -12 0 -14 -88 -117 -143 -168 -243 -223 -622
-282 -932 -145 -119 52 -269 174 -350 285 l-26 35 22 18 c18 14 43 17 166 17
124 0 144 -2 134 -14 -20 -24 8 -31 32 -8 21 19 40 20 374 24 334 5 353 4 369
-13 22 -24 46 -25 42 -2 -3 16 10 18 126 21 100 2 134 -1 151 -12 22 -14 35
-12 35 5 0 7 -76 61 -398 282 -65 45 -84 54 -88 42 -7 -18 -84 -21 -102 -3 -8
8 -15 8 -28 -3 -9 -7 -28 -15 -42 -17 -15 -2 -29 -6 -32 -8 -10 -10 27 -24 65
-24 29 0 44 -5 53 -20 12 -19 10 -20 -48 -20 -45 0 -60 -4 -60 -14 0 -11 16
-14 70 -13 54 1 73 -3 90 -18 31 -28 25 -35 -29 -35 -67 0 -141 -11 -136 -20
3 -5 53 -9 113 -9 l107 -1 30 -37 c17 -20 29 -39 28 -42 -7 -15 -400 -24 -543
-14 l-104 8 39 41 40 42 114 1 c62 0 116 3 119 6 13 13 -14 17 -107 16 -56 -1
-101 1 -101 4 0 3 7 17 16 30 15 23 22 25 105 25 72 0 89 3 89 15 0 12 -14 15
-70 15 -38 0 -70 4 -70 9 0 18 28 30 80 33 63 4 84 28 24 28 -23 0 -42 6 -50
18 -13 16 -15 16 -25 0 -12 -22 -108 -26 -105 -5 0 6 -3 13 -9 15 -5 1 -115
-70 -244 -159 -129 -88 -240 -163 -248 -166 -22 -9 -89 148 -112 264 -25 120
-26 200 -6 318 57 323 292 588 611 684 74 23 206 40 264 35 19 -2 64 -6 98 -9z
m-298 -1033 c0 -22 -29 -32 -94 -32 l-71 0 25 20 c18 14 41 20 83 20 31 0 57
-4 57 -8z m491 -12 l24 -19 -61 -1 c-48 0 -65 4 -79 20 -18 20 -17 20 37 20
41 0 62 -5 79 -20z m107 -68 c38 -25 25 -32 -62 -32 -77 0 -86 2 -101 23 -15
22 -15 22 32 27 61 6 102 1 131 -18z m-658 11 c0 -4 -10 -17 -22 -30 -19 -21
-30 -23 -110 -23 -48 0 -88 3 -88 8 0 4 15 17 33 30 26 18 45 22 109 22 43 0
78 -3 78 -7z m-76 -82 c3 -4 -9 -25 -27 -45 l-32 -37 -129 3 -129 3 59 42 59
41 97 1 c53 1 99 -3 102 -8z m881 -31 c33 -22 58 -40 55 -41 -3 -1 -60 -3
-127 -5 l-122 -4 -30 39 c-17 21 -31 42 -31 45 0 3 44 6 98 6 97 0 97 0 157
-40z"/>
<path d="M1251 2140 c-6 -28 -11 -65 -10 -83 l1 -32 12 40 13 40 11 -35 c11
-32 11 -29 8 33 -5 89 -20 106 -35 37z"/>
<path d="M1737 2158 c-3 -18 -8 -55 -11 -83 l-5 -50 13 40 c9 25 16 34 19 25
3 -8 8 -22 10 -30 8 -22 8 62 1 99 -8 40 -20 40 -27 -1z"/>
<path d="M1406 2078 c-3 -13 -6 -34 -6 -48 0 -20 2 -22 10 -10 6 10 10 11 10
3 0 -7 4 -13 9 -13 8 0 -2 76 -11 86 -3 3 -8 -6 -12 -18z"/>
<path d="M1607 2085 c-3 -11 -9 -38 -12 -60 -5 -35 -4 -37 6 -15 11 24 11 24
19 5 7 -17 9 -15 8 10 0 17 -3 41 -7 55 -7 23 -8 23 -14 5z"/>
<path d="M1045 1023 c5 -17 3 -22 -8 -17 -20 7 -29 -23 -15 -49 7 -12 11 -25
10 -29 -4 -14 12 -8 35 14 30 28 43 15 15 -15 -12 -13 -19 -27 -15 -30 4 -4
16 4 28 19 20 25 22 25 35 8 13 -16 13 -17 -2 -11 -19 7 -43 -17 -33 -33 9
-15 45 -12 51 5 4 8 10 15 16 15 5 0 0 -12 -11 -26 -30 -39 -25 -54 6 -19 15
17 30 29 35 28 19 -6 6 14 -26 39 -24 19 -36 38 -38 60 -2 17 -9 33 -17 36
-10 3 -11 -2 -6 -19 7 -22 3 -20 -30 11 -32 30 -36 32 -30 13z m29 -54 c-6
-11 -31 -12 -37 -1 -3 4 6 8 19 8 13 1 21 -2 18 -7z"/>
<path d="M1880 978 c-65 -72 -127 -115 -143 -99 -19 19 -46 12 -53 -13 -4 -16
-18 -29 -37 -37 -28 -10 -30 -12 -12 -18 11 -3 20 -15 20 -26 0 -14 8 -21 28
-23 50 -6 79 44 40 67 -16 9 -16 10 3 11 15 0 26 -10 34 -30 7 -16 16 -27 21
-24 5 3 2 20 -7 37 l-16 32 21 -22 c25 -26 61 -31 61 -8 0 9 -6 12 -15 9 -11
-5 -13 -2 -9 10 6 16 8 16 25 0 23 -21 25 -7 3 25 -16 22 -15 24 12 50 17 16
21 18 10 4 -23 -28 -13 -65 17 -61 11 2 22 9 25 17 3 9 -2 11 -17 6 -13 -4
-21 -2 -21 5 0 6 4 9 9 5 5 -3 13 -1 16 5 5 8 11 8 20 0 24 -20 25 7 0 30 -13
12 -21 29 -18 36 7 18 18 9 18 -14 0 -10 8 -17 20 -17 15 0 19 6 18 23 -3 24
7 28 24 11 13 -13 56 -2 48 11 -3 5 -12 7 -21 3 -17 -6 -54 23 -54 44 0 23
-13 13 -70 -49z m-160 -178 c0 -5 -2 -10 -4 -10 -3 0 -8 5 -11 10 -3 6 -1 10
4 10 6 0 11 -4 11 -10z m-35 -10 c3 -5 1 -10 -4 -10 -6 0 -11 5 -11 10 0 6 2
10 4 10 3 0 8 -4 11 -10z"/>
<path d="M1185 860 c-3 -5 1 -10 9 -10 9 0 16 5 16 10 0 6 -4 10 -9 10 -6 0
-13 -4 -16 -10z"/>
<path d="M1433 840 c-6 -23 -22 -24 -93 -9 -28 6 -54 8 -58 4 -4 -4 -2 -10 5
-12 10 -3 10 -9 0 -24 -10 -17 -8 -23 12 -38 19 -15 31 -17 49 -10 17 6 29 6
39 -2 10 -9 17 -9 25 -1 18 18 28 14 28 -8 0 -11 5 -20 10 -20 6 0 10 16 10
35 0 28 4 35 20 35 11 0 20 -4 20 -10 0 -5 -7 -10 -15 -10 -23 0 -18 -16 11
-39 14 -11 25 -23 24 -28 -1 -12 51 -16 63 -4 7 7 5 16 -7 30 -12 14 -17 30
-14 51 l5 30 -59 0 c-46 0 -58 3 -58 16 0 8 5 12 10 9 6 -3 10 -2 10 3 0 6 -7
13 -16 16 -11 4 -18 -1 -21 -14z m-118 -50 c3 -5 1 -10 -4 -10 -6 0 -11 5 -11
10 0 6 2 10 4 10 3 0 8 -4 11 -10z m95 6 c0 -9 -30 -14 -35 -6 -4 6 3 10 14
10 12 0 21 -2 21 -4z m130 -51 c0 -9 -6 -12 -15 -9 -8 4 -15 10 -15 15 0 5 7
9 15 9 8 0 15 -7 15 -15z"/>
<path d="M1170 824 c0 -8 5 -12 10 -9 6 3 10 10 10 16 0 5 -4 9 -10 9 -5 0
-10 -7 -10 -16z"/>
<path d="M830 2690 c-12 -7 -12 -18 -3 -62 6 -29 10 -54 8 -56 -1 -1 -14 16
-29 38 -26 40 -46 52 -46 27 0 -7 5 -18 12 -25 15 -15 6 -15 -27 0 -18 8 -29
8 -36 1 -8 -8 -2 -24 22 -57 22 -32 36 -43 43 -36 7 7 6 14 -2 22 -20 20 -13
27 17 17 33 -12 71 2 71 25 0 23 28 40 44 27 11 -9 16 -9 21 -1 4 7 3 15 -1
18 -5 4 -25 21 -44 39 -25 23 -39 30 -50 23z m35 -50 c3 -5 1 -10 -4 -10 -6 0
-11 5 -11 10 0 6 2 10 4 10 3 0 8 -4 11 -10z"/>
<path d="M2260 2627 c-64 -32 -40 -128 25 -103 22 8 7 35 -16 29 -24 -7 -26
19 -3 41 21 21 23 20 35 -11 7 -18 13 -23 20 -16 15 15 7 43 -16 59 -16 11
-25 11 -45 1z"/>
<path d="M2316 2541 c-25 -26 -34 -41 -26 -46 6 -4 19 0 29 9 24 22 48 0 26
-24 -8 -9 -11 -21 -6 -28 5 -9 19 1 48 32 29 31 37 48 30 55 -8 8 -16 6 -28
-5 -24 -22 -46 -8 -25 15 15 16 13 31 -4 31 -3 0 -23 -17 -44 -39z"/>
<path d="M637 2552 c-22 -24 -21 -34 4 -66 24 -30 59 -34 82 -8 22 24 21 34
-4 66 -24 30 -59 34 -82 8z m63 -27 c0 -2 3 -10 6 -19 9 -24 -29 -20 -44 4
-17 27 -7 43 19 30 10 -6 19 -12 19 -15z"/>
<path d="M546 2471 c-23 -24 -35 -44 -31 -51 6 -9 10 -9 16 1 6 11 16 6 41
-18 25 -24 37 -30 48 -22 12 8 10 14 -17 37 -21 17 -32 35 -31 49 2 22 4 21
39 -13 52 -51 73 -34 23 17 -21 22 -41 39 -44 39 -3 0 -23 -18 -44 -39z"/>
<path d="M2396 2471 c-25 -26 -34 -41 -26 -46 6 -4 20 1 31 11 21 19 23 16 10
-20 -7 -17 -6 -27 3 -35 9 -8 23 1 55 33 28 29 39 46 31 51 -6 4 -20 -1 -30
-10 -17 -16 -18 -15 -17 16 3 45 -13 45 -57 0z"/>
<path d="M2476 2399 c-44 -35 -30 -89 24 -89 28 0 70 32 70 53 0 22 -30 57
-49 57 -10 0 -30 -9 -45 -21z m59 -29 c0 -7 -10 -19 -22 -27 -20 -14 -23 -14
-29 1 -4 11 1 22 12 31 22 16 39 14 39 -5z"/>
<path d="M472 2398 c-8 -8 -7 -17 7 -37 10 -14 24 -37 30 -49 l13 -24 -38 26
c-50 34 -76 35 -44 1 l23 -24 -35 5 c-26 5 -37 2 -41 -9 -7 -19 81 -83 95 -69
6 6 1 16 -13 26 -23 16 -23 16 13 16 41 0 76 33 58 55 -13 16 12 38 33 29 8
-3 18 0 22 6 4 6 -16 20 -50 35 -65 29 -58 28 -73 13z"/>
<path d="M2542 2309 l-42 -30 21 -30 c12 -17 27 -28 34 -25 8 3 11 -2 8 -14
-7 -27 32 -63 60 -54 21 6 21 6 4 -20 -17 -26 -16 -33 11 -75 8 -11 14 -11 33
-1 33 17 32 16 18 41 -11 21 -13 21 -24 5 -9 -12 -15 -14 -20 -6 -10 16 5 29
35 32 20 2 25 -2 25 -19 0 -31 12 -38 24 -15 21 39 -18 80 -62 66 -21 -6 -21
-6 -4 13 45 51 -13 108 -73 71 -16 -10 -23 -10 -35 3 -15 14 -13 18 20 43 19
15 33 32 30 37 -9 13 -16 11 -63 -22z m108 -94 c0 -20 -39 -40 -53 -26 -7 7
-6 15 3 26 16 19 50 20 50 0z"/>
<path d="M305 2120 c-7 -11 21 -54 53 -83 24 -22 50 -14 32 8 -15 18 -4 35 21
35 10 0 19 6 19 14 0 9 -19 18 -50 25 -63 13 -67 14 -75 1z"/>
<path d="M2702 2052 c-24 -24 -42 -46 -40 -48 2 -2 33 0 68 5 61 7 63 8 37 19
-24 10 -26 14 -15 32 8 12 9 23 3 28 -6 5 -27 -9 -53 -36z"/>
<path d="M278 2069 c-3 -8 1 -22 10 -31 14 -16 13 -18 -5 -18 -18 0 -41 -17
-41 -30 -1 -3 -6 -18 -12 -34 -10 -27 -8 -32 17 -53 l28 -24 -35 3 c-26 2 -35
-1 -35 -12 0 -11 14 -16 54 -18 66 -4 88 12 51 36 -13 10 -36 27 -50 40 l-25
22 52 -20 c32 -12 55 -16 58 -10 10 16 -1 26 -44 40 -59 19 -51 34 14 27 53
-5 85 7 48 19 -10 4 -32 22 -49 42 -22 24 -33 31 -36 21z"/>
<path d="M2707 1924 c-3 -4 -1 -16 5 -28 7 -11 12 -26 13 -33 0 -7 9 -19 20
-26 16 -12 17 -18 7 -30 -7 -8 -10 -25 -8 -38 3 -13 5 -27 5 -30 2 -11 112 15
111 26 0 6 -24 9 -53 7 l-52 -2 48 30 c63 40 61 57 -5 67 l-53 7 40 11 c25 7
41 19 44 30 2 14 -1 16 -15 11 -37 -15 -84 -19 -84 -7 0 12 -13 15 -23 5z m93
-88 c0 -3 -4 -8 -10 -11 -5 -3 -10 -1 -10 4 0 6 5 11 10 11 6 0 10 -2 10 -4z"/>
<path d="M240 1831 c-71 -8 -78 -30 -21 -62 43 -24 45 -27 35 -53 -5 -12 -16
-14 -50 -9 -36 5 -44 3 -44 -10 0 -11 15 -17 53 -23 49 -7 50 -8 22 -15 -16
-4 -43 -11 -58 -14 -41 -8 -31 -35 23 -62 l45 -22 -52 0 c-46 -1 -53 -4 -53
-21 0 -13 9 -22 25 -26 28 -7 24 -24 -6 -24 -15 0 -20 -6 -17 -22 3 -20 10
-23 61 -26 46 -2 57 0 57 13 0 10 -10 15 -27 16 -28 1 -28 1 -4 8 35 9 37 27
4 39 l-28 10 28 1 c23 1 27 5 27 31 0 17 -4 30 -10 30 -15 0 -12 28 4 37 19
11 41 122 27 136 -17 17 -13 34 9 40 18 5 30 39 13 35 -5 -1 -33 -4 -63 -7z"/>
<path d="M2825 1733 c-16 -2 -40 -6 -52 -8 -29 -7 -31 -38 -3 -33 14 2 25 -5
33 -22 15 -30 39 -36 61 -15 11 11 14 25 10 43 -8 35 -13 38 -49 35z m25 -42
c0 -17 -18 -21 -24 -6 -3 9 0 15 9 15 8 0 15 -4 15 -9z"/>
<path d="M2766 1614 c-19 -49 9 -78 71 -72 56 6 54 28 -1 28 -34 0 -46 4 -46
15 0 11 12 15 45 15 33 0 45 4 45 15 0 22 -105 21 -114 -1z"/>
<path d="M2760 1515 c0 -8 9 -15 20 -15 28 0 25 -14 -5 -28 -35 -16 -32 -35 4
-27 17 3 32 2 36 -4 11 -18 44 -12 55 9 6 12 10 33 8 48 -3 25 -6 27 -60 30
-47 2 -58 0 -58 -13z m90 -35 c0 -11 -4 -20 -10 -20 -5 0 -10 9 -10 20 0 11 5
20 10 20 6 0 10 -9 10 -20z"/>
<path d="M163 1383 c-19 -7 -16 -31 5 -42 23 -12 45 1 40 25 -3 19 -23 27 -45
17z"/>
<path d="M2814 1375 c-8 -21 2 -45 19 -45 8 0 20 7 27 15 10 12 10 18 0 30 -7
8 -19 15 -27 15 -7 0 -16 -7 -19 -15z"/>
<path d="M247 1284 c-3 -3 -1 -17 4 -31 13 -36 3 -41 -26 -13 l-25 24 -21 -21
c-17 -17 -19 -24 -10 -42 7 -11 21 -21 31 -21 29 0 24 -25 -7 -39 -41 -19 -15
-37 31 -21 55 18 66 6 13 -14 -26 -10 -47 -24 -47 -32 0 -17 -2 -17 50 1 23 8
46 15 49 15 7 0 51 -84 51 -96 0 -4 -7 -1 -15 6 -8 7 -15 20 -15 29 0 42 -54
55 -85 21 -15 -17 -16 -24 -7 -45 6 -14 19 -25 28 -25 13 0 14 3 4 15 -15 18
-6 45 15 45 13 0 15 -6 10 -30 -6 -27 -4 -30 17 -31 21 0 20 -2 -9 -16 -18 -9
-33 -23 -33 -30 0 -18 14 -16 61 8 23 11 42 19 44 17 1 -2 8 -14 15 -28 13
-24 12 -25 -7 -7 -26 23 -40 22 -58 -7 -13 -19 -14 -29 -5 -46 6 -11 8 -25 5
-30 -15 -24 9 -27 48 -4 61 34 71 29 13 -7 -32 -21 -45 -34 -38 -41 6 -6 23
-1 50 16 l41 26 16 -22 c23 -34 20 -56 -5 -33 -16 15 -22 15 -35 5 -19 -16
-19 -64 0 -80 9 -7 13 -21 10 -31 -9 -27 12 -24 52 7 19 14 41 23 49 20 35
-13 30 8 -16 75 -47 69 -48 72 -33 95 23 36 3 78 -33 71 -24 -4 -28 2 -60 72
-27 59 -94 256 -94 277 0 6 -16 5 -23 -2z m23 -109 c0 -8 -4 -15 -10 -15 -5 0
-10 7 -10 15 0 8 5 15 10 15 6 0 10 -7 10 -15z m80 -305 c-10 -6 -17 -4 -23 6
-13 23 3 38 22 20 14 -15 14 -18 1 -26z m90 25 c0 -8 -4 -15 -10 -15 -5 0 -10
7 -10 15 0 8 5 15 10 15 6 0 10 -7 10 -15z m-10 -157 c17 -11 22 -10 30 2 7
11 12 12 20 4 8 -8 4 -16 -15 -28 -28 -18 -39 -15 -55 15 -12 22 -8 24 20 7z"/>
<path d="M2730 1255 c-5 -13 -17 -50 -26 -82 -21 -75 -66 -176 -127 -286 -33
-58 -47 -91 -40 -98 7 -7 20 9 39 45 16 31 32 56 37 56 4 0 1 -13 -8 -30 -20
-39 -19 -43 10 -36 18 5 25 2 25 -8 0 -21 -17 -28 -38 -17 -13 7 -22 7 -30 -1
-9 -9 -4 -15 20 -25 26 -11 34 -11 55 2 27 18 31 56 7 79 -20 20 -4 21 22 1
24 -18 34 -19 34 0 0 8 -18 25 -40 37 -45 26 -46 27 -24 54 15 18 15 18 10 -7
-4 -20 -1 -29 11 -33 22 -9 67 24 71 52 2 13 8 19 18 15 8 -3 14 1 14 11 0 10
-16 23 -40 32 -49 20 -53 37 -7 29 34 -7 66 12 68 38 0 7 4 2 10 -11 10 -26
29 -21 29 9 0 10 5 19 10 19 6 0 10 -4 10 -10 0 -18 -23 -60 -34 -60 -6 0 -5
-5 2 -12 17 -17 50 17 58 60 8 42 -16 68 -46 52 -12 -6 -31 -5 -57 4 -33 12
-38 17 -36 41 3 35 19 53 34 38 8 -8 8 -17 -1 -33 -11 -21 -10 -22 22 -15 49
10 96 75 53 75 -8 0 -15 -6 -15 -14 0 -7 -7 -19 -15 -26 -13 -10 -15 -9 -15 8
0 12 -9 26 -20 32 -11 6 -20 17 -20 25 0 24 -20 17 -30 -10z m29 -151 c2 -2 1
-10 -3 -19 -4 -12 -12 -14 -28 -9 -30 9 -30 8 -22 28 4 12 13 15 28 10 11 -4
23 -8 25 -10z m-45 -123 c3 -4 -1 -17 -9 -27 -14 -18 -14 -18 -15 4 0 12 -7
25 -15 28 -8 4 -12 10 -9 15 5 9 39 -4 48 -20z"/>
<path d="M2430 682 c-18 -20 -64 -70 -102 -109 -38 -40 -66 -77 -63 -83 9 -15
25 -12 25 5 0 8 5 15 10 15 20 0 9 -29 -19 -49 -32 -23 -43 -18 -35 15 8 32 2
30 -59 -15 -29 -21 -76 -53 -105 -71 -34 -21 -50 -36 -44 -42 6 -6 17 -6 31 2
12 6 26 8 31 5 17 -11 11 -32 -11 -38 -23 -6 -17 -27 7 -27 8 0 14 -4 14 -9 0
-16 30 -21 55 -9 32 14 26 34 -9 30 -31 -3 -34 13 -5 29 21 11 38 0 39 -23 0
-12 30 -9 30 3 0 6 -4 19 -10 29 -7 13 -6 19 5 24 8 3 15 1 15 -3 0 -16 30
-21 50 -8 21 12 28 47 10 47 -5 0 -10 -4 -10 -10 0 -5 -7 -10 -15 -10 -8 0
-15 4 -15 8 0 19 38 42 68 42 19 0 39 8 52 22 15 17 23 19 29 10 5 -9 14 -6
31 13 25 27 24 28 -27 85 l-23 26 31 37 c17 20 35 37 41 37 5 0 -2 -14 -16
-31 -30 -35 -32 -51 -10 -73 20 -20 27 -20 47 2 20 22 22 43 5 60 -7 7 -9 12
-5 12 4 0 16 -9 27 -20 12 -12 25 -18 31 -14 7 4 -6 23 -30 48 -30 30 -38 45
-30 53 7 7 7 13 1 17 -6 3 -24 -11 -42 -32z m25 -92 c3 -5 1 -10 -4 -10 -6 0
-11 5 -11 10 0 6 2 10 4 10 3 0 8 -4 11 -10z m-69 -52 c58 -66 57 -77 -1 -18
-21 22 -34 40 -29 40 6 0 19 -10 30 -22z m-26 -48 c0 -19 -27 -47 -36 -37 -3
3 0 15 6 27 6 12 9 29 6 37 -5 13 -4 14 9 3 8 -7 15 -20 15 -30z m-130 -74 c0
-15 -37 -32 -47 -22 -3 3 -3 12 0 21 8 19 47 20 47 1z m-79 -39 c-1 -12 -15
-9 -19 4 -3 6 1 10 8 8 6 -3 11 -8 11 -12z"/>
<path d="M585 650 c-4 -6 2 -22 14 -34 12 -12 21 -28 21 -34 0 -18 -28 -14
-39 5 -13 25 -23 11 -28 -40 -4 -33 0 -46 15 -60 14 -13 22 -15 27 -7 4 7 2
17 -4 23 -17 17 -14 40 4 33 9 -3 24 3 34 13 13 13 22 16 29 9 7 -7 0 -24 -20
-53 -36 -51 -29 -84 7 -39 l23 29 -5 -26 c-4 -20 2 -31 21 -47 29 -22 34 -42
11 -42 -22 0 -18 -21 5 -27 11 -3 20 -12 20 -19 0 -8 7 -14 15 -14 8 0 15 7
15 15 0 8 9 15 20 15 14 0 20 -6 18 -16 -5 -28 16 -26 34 3 16 26 17 26 18 6
0 -11 14 -33 31 -47 17 -14 28 -30 25 -35 -3 -5 1 -12 10 -15 11 -4 21 7 36
43 12 30 28 51 40 54 29 8 15 23 -53 57 -54 28 -59 33 -59 63 0 52 -41 77 -70
42 -11 -13 -19 -10 -59 22 -25 21 -48 40 -51 43 -60 61 -99 90 -105 80z m125
-187 c0 -21 -3 -24 -9 -14 -5 8 -7 20 -4 28 8 21 13 15 13 -14z m80 -13 c0 -5
-11 -3 -25 3 -14 7 -25 18 -25 25 0 9 7 8 25 -4 14 -9 25 -20 25 -24z m58 17
c2 -12 -1 -15 -12 -11 -19 7 -22 38 -3 32 6 -3 13 -12 15 -21z m-70 -49 c8 -8
15 -8 27 2 20 17 29 7 16 -18 -16 -30 -75 -26 -79 6 -4 24 16 30 36 10z m107
-29 c12 -19 -5 -23 -22 -6 -16 16 -16 17 -1 17 9 0 20 -5 23 -11z m43 -54
c-13 -29 -30 -32 -49 -8 -12 15 -12 16 4 10 11 -4 21 0 29 13 17 26 30 14 16
-15z"/>
<path d="M2117 464 c-14 -14 -7 -35 11 -32 9 2 17 10 17 17 0 16 -18 25 -28
15z"/>
</g>
</svg>
