<svg version="1.1" id="Layer_1" xmlns="http://www.w3.org/2000/svg" xmlns:xlink="http://www.w3.org/1999/xlink" x="0px" y="0px"
	 width="100%" viewBox="0 0 225 225" enable-background="new 0 0 225 225" xml:space="preserve">
<path fill="#FCC428" opacity="1.000000" stroke="none" 
	d="
M226.000000,86.000000 
	C226.000000,133.000000 226.000000,179.500000 226.000000,226.000000 
	C151.000000,226.000000 76.000000,226.000000 1.000000,226.000000 
	C1.000000,151.000000 1.000000,76.000000 1.000000,1.000000 
	C76.000000,1.000000 151.000000,1.000000 226.000000,1.000000 
	C226.000000,29.166666 226.000000,57.333332 226.000000,86.000000 
M124.912979,186.331131 
	C124.218857,184.977280 123.524742,183.623428 122.830627,182.269577 
	C122.525299,183.842316 122.219971,185.415070 121.692238,187.799850 
	C121.624680,189.474060 121.557121,191.148285 120.939522,192.922241 
	C120.573151,192.988983 120.206779,193.055725 119.310974,192.777969 
	C118.383362,191.982285 117.455742,191.186584 116.669014,190.511734 
	C117.529518,189.601959 118.247925,188.842407 118.966339,188.082855 
	C118.812660,187.573471 118.658989,187.064087 118.505310,186.554718 
	C116.140137,186.929947 113.599228,186.929062 111.514008,187.903442 
	C110.865746,188.206345 111.614067,191.170242 111.419426,192.881409 
	C111.278183,194.123154 110.636971,195.308029 110.152809,196.708862 
	C113.584061,198.936630 116.831673,199.059448 120.428230,195.988327 
	C120.782013,196.052170 121.135796,196.116013 121.703949,196.974609 
	C123.774193,198.813568 124.884399,198.312500 124.921150,195.581177 
	C124.958931,192.771927 124.887085,189.961212 124.912979,186.331131 
M165.996338,160.597412 
	C165.014679,160.755096 164.033035,160.912781 162.960968,161.774506 
	C162.990829,165.825073 163.020676,169.875626 163.022842,174.315399 
	C163.344147,174.564911 163.665466,174.814407 164.785614,175.257050 
	C165.866653,175.210663 166.947708,175.164276 168.453857,175.189484 
	C169.043518,174.726379 169.633163,174.263275 170.809387,174.209488 
	C173.658813,176.556046 177.550812,177.015610 178.993561,174.033096 
	C179.967834,172.019028 182.528351,168.119934 179.054092,165.331421 
	C175.912735,162.810104 172.942184,163.437637 169.566315,166.084259 
	C169.137741,166.058655 168.709167,166.033066 168.135513,165.299774 
	C167.810623,164.949982 167.485733,164.600204 167.026260,163.874680 
	C166.772766,163.569351 166.519257,163.264023 166.190445,162.306625 
	C166.105759,161.878876 166.021088,161.451141 165.996338,160.597412 
M118.755043,99.195900 
	C119.886330,98.679764 121.922852,98.266174 121.994919,97.630043 
	C122.338676,94.595581 122.148903,91.500679 122.148903,88.427269 
	C121.593056,88.285385 121.037201,88.143501 120.481354,88.001610 
	C119.963554,89.132484 119.263382,90.218254 118.969978,91.404625 
	C118.509956,93.264687 118.324593,95.192673 117.150589,97.037956 
	C116.534294,95.200943 115.961723,93.347656 115.286186,91.532692 
	C114.842758,90.341339 114.250565,89.205345 113.724991,88.044556 
	C112.068420,90.344017 111.430946,92.004539 111.151360,93.723274 
	C110.484192,97.824440 114.012566,100.478477 118.755043,99.195900 
M133.017303,196.978622 
	C133.017303,196.978622 133.066757,197.168671 133.066757,197.168671 
	C133.066757,197.168671 132.883118,197.047195 132.850830,196.230087 
	C132.783661,193.844330 132.959915,191.418121 132.572266,189.085617 
	C132.262497,187.221725 131.266495,185.471878 130.575073,183.671402 
	C129.640442,184.631973 128.032593,185.511002 127.904419,186.569275 
	C127.589851,189.166595 127.882294,191.851791 128.068909,194.491852 
	C128.306015,197.845963 129.896820,198.899612 133.017303,196.978622 
M143.016647,173.740234 
	C144.837097,174.400574 146.657532,175.060898 149.059570,175.932205 
	C148.089447,172.842941 146.646439,170.737320 147.175629,169.430023 
	C148.388306,166.434189 147.805649,163.840820 146.478912,160.613007 
	C144.637863,161.409302 142.796829,162.205612 140.735275,162.297882 
	C138.965408,161.488159 137.263153,160.261215 135.410736,159.961105 
	C132.191589,159.439590 129.149094,160.381332 128.546661,164.067749 
	C127.936607,167.800812 130.752457,168.742142 133.783096,169.294174 
	C135.030975,169.521500 136.193558,170.217255 137.394928,170.699936 
	C137.274414,171.249329 137.153900,171.798737 137.033371,172.348129 
	C134.103790,172.348129 131.174194,172.348129 128.244598,172.348129 
	C128.269989,173.209686 128.295364,174.071243 128.320755,174.932785 
	C131.903915,174.964172 135.487061,174.995544 139.676117,174.920517 
	C140.729019,174.295853 141.781937,173.671204 143.016647,173.740234 
M72.765495,197.260605 
	C75.001717,198.636169 76.509155,198.524475 76.518623,195.406235 
	C76.526901,192.678925 76.520355,189.951569 76.520355,186.175873 
	C74.375748,187.194427 73.174278,187.765045 71.161301,188.074875 
	C67.915970,187.588791 64.670639,187.102707 60.985249,186.550705 
	C60.985249,190.120590 60.821449,192.608429 61.064240,195.055908 
	C61.164185,196.063416 62.138939,196.984146 62.715790,197.944336 
	C63.207642,196.904251 63.887936,195.909134 64.149216,194.814026 
	C64.592705,192.955261 64.772034,191.033463 65.062378,189.138153 
	C65.739639,189.155792 66.416893,189.173431 67.094154,189.191071 
	C67.479301,192.071335 67.864441,194.951614 68.325272,198.397888 
	C69.757919,197.883362 70.895203,197.474930 72.765495,197.260605 
M96.372780,114.931786 
	C95.882187,114.282631 95.429825,113.599915 94.894493,112.990036 
	C92.343864,110.084229 87.507935,109.619682 85.329803,112.297836 
	C83.084526,115.058533 83.080261,118.166153 85.491272,120.844086 
	C87.879341,123.496552 92.480347,122.902931 95.045792,119.889130 
	C95.655617,119.172729 96.367706,118.543381 97.327080,118.508141 
	C98.832787,122.369713 102.139832,123.562218 105.299919,121.921867 
	C107.187195,120.942207 108.811607,117.655113 108.796143,115.417404 
	C108.785049,113.812675 106.115685,111.417023 104.182709,110.813034 
	C100.764610,109.745026 98.159309,111.610764 96.372780,114.931786 
M150.319458,145.264557 
	C150.902054,145.844864 151.484665,146.425186 152.660767,147.418228 
	C155.455215,147.537262 160.432770,148.395706 160.684158,147.653427 
	C162.141968,143.349213 162.486832,138.668076 163.208206,134.114441 
	C162.695465,133.612488 162.182709,133.110535 161.669952,132.608582 
	C158.421875,133.721725 155.173782,134.834854 151.407104,135.760117 
	C150.916382,135.508270 150.425644,135.256439 149.415756,134.563431 
	C147.290924,134.367813 145.166092,134.172180 142.494064,133.487274 
	C140.090652,133.487274 137.687225,133.487274 134.985840,133.487274 
	C134.985840,137.311783 134.985840,140.986526 134.985840,144.789307 
	C136.446106,144.789307 137.733383,144.789307 139.877274,144.965652 
	C141.941345,145.179535 143.522369,144.919144 143.173706,142.174500 
	C143.007431,140.865723 142.975403,139.473618 143.251785,138.199356 
	C143.421265,137.417969 144.290192,136.788300 144.845001,136.090500 
	C145.458374,136.732452 146.451279,137.295593 146.604401,138.033096 
	C146.903549,139.473862 146.350266,141.168701 146.878403,142.460526 
	C147.303436,143.500137 148.801498,144.101059 150.319458,145.264557 
M150.067810,95.784195 
	C150.411606,95.676300 150.755386,95.568405 151.160980,96.281982 
	C151.775528,97.429802 152.390076,98.577621 153.004623,99.725449 
	C153.628265,98.625252 154.387833,97.575928 154.825729,96.406197 
	C155.098145,95.678535 154.680252,94.695671 154.943802,93.960579 
	C155.220596,93.188492 155.940887,92.575401 156.467361,91.892830 
	C156.960831,92.600349 157.790298,93.267815 157.880371,94.023415 
	C158.091278,95.792839 157.947800,97.604507 157.947800,99.399071 
	C158.288681,99.652504 158.629547,99.905937 158.970428,100.159363 
	C159.786209,99.265282 161.080688,98.478554 161.310669,97.453087 
	C161.699631,95.718719 161.416504,93.833382 161.413956,92.011513 
	C161.409378,88.728851 159.641373,87.399536 156.617889,88.226006 
	C153.996277,88.942635 151.509171,90.151314 148.795349,90.412750 
	C146.142258,89.794266 143.066238,88.087181 140.969849,88.901642 
	C139.291824,89.553558 138.788147,93.263092 137.799042,95.630547 
	C137.525436,96.285431 137.379654,96.993713 136.252609,97.415291 
	C133.377640,95.571739 134.269348,93.308167 134.964691,90.605499 
	C135.377045,89.002670 134.025482,86.946007 133.467026,85.093407 
	C132.487640,86.157608 130.852646,87.120552 130.669296,88.307701 
	C130.318817,90.576950 130.531937,93.030281 131.019165,95.298065 
	C131.349030,96.833405 132.293289,98.503059 133.488388,99.447411 
	C133.930161,99.796494 135.875412,98.242889 137.777374,96.928185 
	C142.881393,101.315147 145.299347,101.265564 149.135696,96.607994 
	C149.135696,96.607994 149.084213,96.232590 150.067810,95.784195 
M57.309650,144.080109 
	C57.309650,144.080109 57.421673,144.388504 58.114113,144.128510 
	C59.478413,144.429321 60.842709,144.730148 62.151775,145.018784 
	C62.769539,141.695358 63.309013,138.793121 63.848488,135.890900 
	C64.561684,136.015945 65.274887,136.140991 65.988083,136.266037 
	C65.988083,138.028641 65.767334,139.829147 66.061287,141.541275 
	C66.277702,142.801819 67.166992,143.946808 67.756447,145.143295 
	C69.467926,133.255035 70.852272,132.255402 59.177967,133.964890 
	C59.177967,135.822556 59.408424,137.813507 59.079185,139.707123 
	C58.918423,140.631760 57.714916,141.375092 56.131233,142.004974 
	C53.712021,141.692886 51.292812,141.380798 48.873600,141.068710 
	C48.911194,140.503372 48.948784,139.938019 48.986378,139.372681 
	C51.433792,138.523743 53.881203,137.674805 56.328617,136.825867 
	C56.163235,136.366776 55.997856,135.907669 55.832474,135.448563 
	C53.746986,135.164413 51.661503,134.880249 49.576015,134.596085 
	C49.552551,134.070908 49.529083,133.545746 49.505619,133.020569 
	C52.059387,132.568314 54.613159,132.116074 57.166927,131.663834 
	C57.135605,131.191696 57.104282,130.719574 57.072960,130.247437 
	C53.430317,130.247437 49.787674,130.247437 45.289074,130.247437 
	C45.845676,135.357910 46.416050,140.594849 47.761272,145.964020 
	C49.180950,145.662750 50.600628,145.361481 52.813805,144.961960 
	C53.876888,144.910889 54.939972,144.859818 56.521828,144.951233 
	C56.810917,144.766907 57.100010,144.582565 57.309650,144.080109 
M112.946907,138.502686 
	C113.127068,138.958984 113.399261,139.401016 113.472511,139.873871 
	C113.956573,142.998764 115.427269,145.153336 118.876717,145.133896 
	C121.936775,145.116653 124.722481,144.662857 123.260017,140.386276 
	C124.186913,140.128632 125.113815,139.870972 126.233734,140.463531 
	C126.304680,141.621246 126.011948,143.028748 126.574974,143.848480 
	C126.947678,144.391129 129.388870,144.371902 129.471115,144.125656 
	C130.598816,140.749115 131.476868,137.289215 132.474289,133.637360 
	C130.769287,133.637360 128.752258,133.637360 126.581871,133.637360 
	C126.370117,135.307098 126.185936,136.759384 125.341599,137.899002 
	C120.885994,131.094315 117.582291,131.143295 113.433685,138.024063 
	C113.288857,138.264267 112.482964,138.105911 112.048241,137.370026 
	C111.156044,134.161835 108.916016,132.604935 105.749763,133.110794 
	C102.669121,133.602982 100.733337,135.528137 100.158707,139.381516 
	C98.022392,132.569412 97.212448,132.135406 89.709312,133.717346 
	C88.781715,133.912918 87.835159,134.018600 86.612617,133.612869 
	C86.258232,132.855606 85.903839,132.098343 86.012901,132.331390 
	C85.072105,132.700317 83.397591,133.356979 81.533554,133.490662 
	C80.690643,133.656921 79.847740,133.823166 78.479225,133.986893 
	C78.134171,133.945877 77.789108,133.904861 76.929047,133.446945 
	C75.909821,133.610931 74.890594,133.774933 73.294601,133.993576 
	C72.785019,134.752655 72.275436,135.511749 71.293167,136.713699 
	C71.258087,137.134369 71.223007,137.555038 71.015633,138.780090 
	C71.207489,139.556625 71.399338,140.333176 71.560066,141.453323 
	C71.627693,141.692886 71.776413,141.860611 72.193619,142.670258 
	C73.766502,143.179749 75.339394,143.689224 76.913368,144.615509 
	C76.913368,144.615509 77.065964,145.003372 76.691406,145.626663 
	C74.899712,145.394699 73.108017,145.162720 70.736656,144.855698 
	C72.989777,149.240753 75.873077,149.529099 79.469810,148.220978 
	C79.469810,148.220978 79.720421,147.947281 80.449142,147.757034 
	C82.637123,146.513351 84.825104,145.269684 87.651031,143.401428 
	C89.137985,143.970779 90.624939,144.540115 92.356041,145.202942 
	C92.732506,141.666000 93.029808,138.872879 93.327103,136.079758 
	C93.955414,136.045929 94.583717,136.012100 95.212029,135.978271 
	C95.608948,138.902298 96.005867,141.826324 96.402786,144.750351 
	C96.752106,144.951141 97.101433,145.151917 97.450752,145.352692 
	C98.077988,144.339752 98.685722,143.314026 99.338593,142.317886 
	C99.866104,141.513031 100.448006,140.743820 100.948761,140.726547 
	C101.721519,141.921310 102.284317,143.863739 103.311584,144.152222 
	C105.330864,144.719299 107.637222,144.574142 109.762535,144.277496 
	C110.461655,144.179916 111.180595,142.779633 111.508400,141.841522 
	C111.896118,140.731918 111.870361,139.477844 112.946907,138.502686 
M63.169384,92.923798 
	C60.289764,93.351082 58.356979,94.858589 59.687805,97.824028 
	C60.902683,100.531090 63.148575,101.143501 65.468086,98.453270 
	C65.468086,98.453270 65.525604,98.378120 66.004753,99.055389 
	C67.015175,98.991959 68.025604,98.928528 69.036026,98.865089 
	C68.623291,95.595787 68.210556,92.326485 67.342361,88.645203 
	C66.568924,88.476570 65.795494,88.307938 64.505219,87.999367 
	C64.332886,88.045822 64.160553,88.092285 63.384319,88.031456 
	C62.667599,88.375626 61.950882,88.719795 60.576618,89.249893 
	C57.806358,88.966560 55.036102,88.683220 52.174561,88.390549 
	C52.174561,92.299690 52.174561,95.876602 52.174561,99.783241 
	C53.253387,99.529686 54.630180,99.266037 54.620747,99.199821 
	C53.550491,91.685532 58.199539,90.775101 64.118347,91.675018 
	C64.049042,92.096985 63.979733,92.518959 63.169384,92.923798 
M101.207153,25.579845 
	C98.617653,26.026819 96.028145,26.473793 92.747955,26.864021 
	C89.972168,28.521523 87.196381,30.179026 84.087639,32.035339 
	C84.273232,24.864555 79.174294,25.112425 73.889534,25.345449 
	C69.564850,25.536140 65.225060,25.384274 60.891964,25.384272 
	C58.392506,25.384272 55.893047,25.384272 54.885227,25.384272 
	C54.885227,29.722025 55.447575,33.076168 54.780254,36.164619 
	C52.742256,45.596767 50.234413,54.927502 47.902931,64.296089 
	C45.725521,73.045540 45.725880,72.881622 54.722313,73.101753 
	C58.583374,73.196236 61.221004,72.682854 61.359039,68.076530 
	C61.449726,65.050354 63.188610,63.729050 66.315987,64.082146 
	C68.290718,64.305099 70.329971,64.298470 72.306625,64.084251 
	C75.438896,63.744785 77.016495,65.009071 77.221092,68.115379 
	C77.503883,72.409027 79.978729,73.618370 83.935211,73.067711 
	C85.733566,72.817421 87.598083,73.086235 89.428589,73.015846 
	C98.257751,72.676338 107.533485,74.764061 115.009232,68.054176 
	C121.002220,74.229431 127.726227,74.308990 134.945801,71.703926 
	C136.245865,71.234795 138.261597,70.326538 138.914154,70.867294 
	C144.294434,75.325844 149.859360,72.342445 155.380341,71.851700 
	C154.835388,70.111229 154.348251,68.555435 153.992447,66.070747 
	C154.009293,53.858780 154.061813,41.646603 153.990387,29.435150 
	C153.982849,28.147966 153.245850,26.865051 151.949066,25.455425 
	C147.452637,25.652752 142.956207,25.850079 138.140717,26.928255 
	C138.159790,37.614464 138.178879,48.300671 137.922012,59.648727 
	C135.794418,61.935677 133.748047,64.496475 129.870667,61.051071 
	C129.707077,59.087368 129.414261,57.124462 129.402222,55.159828 
	C129.349426,46.556309 129.470337,37.950165 129.272217,29.350874 
	C129.244202,28.134995 127.805222,26.951620 126.111877,25.511030 
	C118.061279,25.591600 110.010681,25.672169 101.207153,25.579845 
M47.873329,107.303413 
	C39.238316,117.156357 52.275040,114.264656 54.984104,118.909004 
	C52.555214,118.909004 50.957394,118.957863 49.364052,118.894363 
	C47.955345,118.838211 46.551624,118.656898 45.145702,118.530846 
	C45.042675,119.307030 44.939651,120.083206 44.836624,120.859383 
	C47.413586,121.398285 50.127121,122.697945 52.529900,122.266586 
	C55.037525,121.816414 57.245815,119.698830 59.608604,118.296173 
	C62.453930,123.674736 66.292587,124.298012 69.696358,119.238754 
	C67.687859,117.872475 63.412399,122.145348 63.097954,116.692719 
	C62.773918,111.073715 67.614998,114.878113 70.857445,112.620453 
	C68.118462,111.733292 66.054886,110.302422 64.815155,110.825211 
	C62.382645,111.850998 60.408783,113.964401 58.689159,115.286377 
	C55.598381,114.010223 52.341660,112.665550 49.084942,111.320877 
	C49.170471,110.907761 49.255997,110.494644 49.341526,110.081528 
	C52.133083,110.081528 54.924637,110.081528 57.716194,110.081528 
	C57.749798,109.349205 57.783405,108.616890 57.817009,107.884567 
	C54.729176,107.589607 51.641346,107.294655 47.873329,107.303413 
M87.868431,173.672760 
	C92.823708,176.943253 94.495712,176.710754 98.976845,172.341034 
	C100.247391,173.342133 101.477585,174.311432 102.707764,175.280731 
	C103.102295,173.798462 103.545670,172.327011 103.876549,170.830658 
	C104.163147,169.534592 104.322151,168.210312 104.537552,166.898499 
	C105.141869,166.884979 105.746185,166.871460 106.350510,166.857956 
	C106.578308,168.893158 106.711388,170.945709 107.079231,172.955292 
	C107.232384,173.791977 107.771858,174.648849 108.373878,175.263092 
	C108.584183,175.477661 110.022743,175.014267 110.031258,174.821991 
	C110.161659,171.878601 110.412231,168.891281 110.001495,166.004288 
	C109.883568,165.175476 107.636696,163.918091 106.578300,164.099075 
	C103.961304,164.546555 99.829208,162.371460 99.743813,168.313522 
	C96.585579,164.574875 93.543320,162.279068 89.405289,164.765366 
	C86.065857,166.771835 86.183945,169.859558 87.868431,173.672760 
M77.908318,91.337502 
	C76.968750,93.942902 76.029190,96.548302 74.573318,100.585419 
	C76.996628,99.390648 78.194267,98.552727 79.520226,98.207108 
	C81.301987,97.742676 84.311378,96.832893 84.834160,97.547615 
	C87.767921,101.558624 90.610023,99.417427 92.446381,98.269577 
	C88.916328,98.034523 88.535324,94.162476 87.058090,91.077042 
	C85.892677,88.642899 84.107544,86.505478 82.597649,84.236267 
	C81.111549,86.358925 79.625443,88.481583 77.908318,91.337502 
M55.997570,173.995438 
	C57.254498,174.489258 58.511425,174.983093 60.878651,175.913147 
	C58.911972,170.479828 57.560860,166.392502 55.907753,162.431198 
	C55.498028,161.449387 54.126816,160.306595 53.165916,160.277328 
	C52.231125,160.248871 50.781479,161.354019 50.380436,162.307404 
	C48.663242,166.389603 47.249851,170.599625 45.557655,175.222046 
	C49.317276,174.541473 52.434166,173.977249 55.997570,173.995438 
M92.431725,186.906723 
	C88.783783,189.104965 87.910446,192.545227 90.187065,195.684708 
	C91.344910,197.281372 94.805862,198.345596 96.862511,197.915161 
	C101.099167,197.028473 99.925667,192.610901 99.702118,189.980911 
	C99.433136,186.816406 96.306625,185.920181 92.431725,186.906723 
M109.033913,93.987129 
	C109.420609,92.941216 109.807297,91.895302 110.464806,90.116882 
	C108.754959,90.544716 107.930885,91.029724 107.283646,90.855980 
	C105.848824,90.470833 104.502769,89.755058 103.120514,89.174103 
	C104.377342,88.461349 105.563560,87.523399 106.911362,87.100761 
	C108.196449,86.697762 109.650024,86.832054 111.029533,86.730156 
	C111.042191,86.079025 111.054855,85.427895 111.067513,84.776764 
	C107.249580,84.547981 103.431648,84.319199 99.672951,84.093964 
	C97.979599,95.655602 98.715843,99.206841 102.748703,99.300743 
	C102.955742,97.599083 103.165100,95.878326 103.389870,94.030899 
	C105.207886,94.030899 106.692436,94.030899 109.033913,93.987129 
M120.018394,175.294571 
	C124.455338,173.170456 121.681091,169.367218 121.647415,166.446457 
	C121.637772,165.609970 118.079369,164.426865 116.044609,164.141815 
	C114.756355,163.961334 113.276604,165.147751 111.059395,166.059799 
	C113.086929,167.335968 114.109673,167.979721 114.111603,167.980927 
	C113.501175,170.337753 113.035782,172.134583 112.570389,173.931427 
	C114.801743,174.347107 117.033089,174.762772 120.018394,175.294571 
M151.177719,169.973709 
	C149.102890,175.307480 149.857361,175.747147 160.990173,174.839615 
	C159.985077,171.201492 159.548492,167.498016 157.815094,164.559540 
	C157.248978,163.599823 153.306198,164.631973 151.394501,164.728561 
	C151.557175,167.166687 151.636078,168.349213 151.177719,169.973709 
M123.561714,122.010384 
	C127.506287,118.211136 127.279839,117.270126 121.825081,114.560043 
	C123.015625,113.939095 124.251160,113.294670 125.486702,112.650253 
	C125.330406,112.012619 125.174103,111.374977 125.017807,110.737343 
	C122.390228,111.149490 119.494598,111.055504 117.272095,112.232529 
	C116.428696,112.679184 117.135063,116.052139 117.135063,118.779800 
	C117.136246,118.779182 116.170532,119.286285 115.204811,119.793396 
	C115.415375,120.346619 115.625938,120.899841 115.836502,121.453056 
	C118.164299,121.692123 120.492096,121.931183 123.561714,122.010384 
M54.935959,191.182053 
	C53.820351,192.433365 52.704746,193.684692 51.589138,194.936005 
	C50.720589,193.595261 49.331783,192.338684 49.098263,190.895203 
	C48.687630,188.356934 48.983490,185.704361 48.983490,183.099655 
	C48.453445,183.036285 47.923401,182.972916 47.393356,182.909546 
	C43.952480,186.152405 45.721329,190.773300 46.354301,194.427399 
	C46.631271,196.026337 50.854832,197.999023 53.248569,197.950333 
	C58.005249,197.853546 58.937519,194.145248 57.572453,183.419693 
	C53.248932,184.447800 55.561108,187.951645 54.935959,191.182053 
M142.871277,120.134964 
	C144.668152,117.003349 144.666382,113.636772 141.580521,111.847359 
	C139.703812,110.759102 136.187805,110.740593 134.376602,111.838768 
	C132.859589,112.758575 131.932419,116.091766 132.181961,118.184898 
	C132.702377,122.549942 137.420654,123.560898 142.871277,120.134964 
M136.934875,193.635193 
	C136.934875,196.243927 136.934875,198.852661 136.934875,201.551315 
	C141.256180,201.891541 144.155823,197.039780 143.645950,186.535461 
	C142.494232,188.416122 141.342514,190.296799 140.207687,192.149887 
	C138.294037,190.820129 140.117401,185.699234 135.040833,187.452606 
	C135.658218,189.404648 136.204605,191.132187 136.934875,193.635193 
M82.550568,169.881699 
	C83.695709,168.330536 84.840851,166.779388 86.300201,164.802612 
	C82.099342,164.802612 79.104240,164.802612 76.109138,164.802612 
	C76.057945,165.168518 76.006752,165.534439 75.955559,165.900345 
	C77.218163,166.530594 78.480766,167.160843 79.792839,167.815796 
	C78.023804,170.075241 76.450844,172.084244 74.467461,174.617462 
	C78.733727,174.617462 82.075699,174.617462 85.417671,174.617462 
	C85.419365,174.219467 85.421059,173.821487 85.422752,173.423492 
	C83.863579,173.093140 82.304405,172.762787 80.476959,172.375595 
	C81.258743,171.412476 81.674828,170.899887 82.550568,169.881699 
M75.083519,116.994415 
	C75.701492,115.825043 76.319458,114.655678 76.937431,113.486313 
	C77.566628,114.662872 78.430435,115.778023 78.758987,117.033279 
	C79.087013,118.286522 78.769745,119.696800 78.969673,121.002350 
	C79.033363,121.418243 79.829788,121.970650 80.321938,122.004074 
	C80.841125,122.039322 81.865601,121.529114 81.865532,121.257393 
	C81.864792,118.283676 82.308281,115.087410 81.326759,112.434120 
	C80.865051,111.186020 77.580765,110.982071 75.706917,110.349335 
	C75.049591,109.339668 74.275887,108.151245 73.502174,106.962814 
	C72.967415,108.272438 72.117744,109.547218 71.968155,110.899452 
	C71.713150,113.204445 71.738297,115.573174 71.956825,117.885727 
	C72.091209,119.307907 72.803574,120.675476 73.256424,122.067558 
	C73.865211,120.663521 74.473999,119.259476 75.083519,116.994415 
M146.173477,119.864304 
	C147.041458,120.739380 147.909439,121.614456 149.199310,122.914856 
	C150.124969,116.671928 150.826324,111.941780 151.783493,105.486435 
	C149.252716,107.211761 147.489304,107.979370 146.337509,109.286087 
	C143.609070,112.381516 147.232788,115.800354 146.173477,119.864304 
M85.947006,187.035538 
	C85.138870,188.536469 84.330734,190.037384 83.639206,191.321732 
	C82.218216,189.679184 80.852486,188.100494 79.486748,186.521805 
	C79.047081,186.858673 78.607414,187.195541 78.167740,187.532410 
	C79.082375,190.328400 79.754227,193.243286 81.035469,195.859741 
	C81.523270,196.855881 83.587868,197.885468 84.620239,197.630432 
	C86.402451,197.190155 87.795914,188.922852 85.947006,187.035538 
M45.798508,94.309784 
	C45.798901,94.974945 45.614292,95.711853 45.838570,96.290192 
	C46.291706,97.458672 46.966862,98.541046 47.550453,99.658936 
	C48.174454,98.552254 49.246044,97.480812 49.336483,96.332123 
	C49.583679,93.192276 49.599434,90.003250 49.313297,86.869644 
	C49.216915,85.814110 47.938164,84.866547 47.199802,83.869637 
	C46.732700,84.085243 46.265602,84.300858 45.798500,84.516472 
	C45.798500,87.473618 45.798500,90.430756 45.798508,94.309784 
M124.703697,96.786247 
	C125.334717,97.822731 125.965729,98.859215 126.596748,99.895699 
	C126.984406,99.635941 127.372063,99.376183 127.759720,99.116417 
	C127.759720,94.240044 127.759720,89.363670 127.759720,84.487297 
	C127.347160,84.299866 126.934593,84.112442 126.522034,83.925011 
	C125.916580,84.963799 124.878456,85.966751 124.788895,87.048256 
	C124.545319,89.989761 124.703117,92.964516 124.703697,96.786247 
M105.838806,194.451492 
	C106.641579,192.376389 107.444344,190.301300 108.479172,187.626328 
	C106.957253,187.375565 105.022270,187.056732 102.220306,186.595062 
	C102.220306,189.921600 102.088089,192.668549 102.294914,195.389694 
	C102.363564,196.292862 103.303513,197.129791 103.845116,197.997009 
	C104.505783,197.098755 105.166458,196.200516 105.838806,194.451492 
M65.341393,170.899536 
	C66.316864,168.903641 67.292336,166.907745 68.447205,164.544800 
	C66.298012,164.544800 64.331657,164.544800 61.999977,164.544800 
	C61.999977,167.161102 61.866745,169.618393 62.060040,172.049728 
	C62.147678,173.152054 62.883099,174.202881 63.324661,175.277069 
	C63.994301,174.083023 64.663940,172.888992 65.341393,170.899536 
M110.957657,120.240326 
	C111.520355,120.849670 112.083061,121.459015 112.645767,122.068367 
	C113.125198,121.371468 113.990967,120.689766 114.019073,119.975105 
	C114.162544,116.328056 114.166351,112.669540 114.025642,109.022499 
	C113.998528,108.319786 113.108269,107.650383 112.616188,106.965607 
	C112.061516,107.751724 111.073372,108.513756 111.028130,109.328178 
	C110.844208,112.638618 110.949516,115.965134 110.957657,120.240326 
M73.409599,172.621262 
	C73.377380,170.461716 73.487778,168.285004 73.231262,166.152435 
	C73.147751,165.458145 72.106377,164.879089 71.503098,164.247330 
	C71.021942,166.988098 70.327011,169.718307 70.190620,172.476135 
	C70.149994,173.297485 71.675903,174.196304 72.484055,175.059631 
	C72.785957,174.520798 73.087860,173.981964 73.409599,172.621262 
z"/>
<path fill="#8D1E3E" opacity="1.000000" stroke="none" 
	d="
M130.184784,61.944115 
	C133.748047,64.496475 135.794418,61.935677 138.264297,58.963554 
	C138.557648,47.534721 138.508713,36.791065 138.459778,26.047405 
	C142.956207,25.850079 147.452637,25.652752 152.448242,25.941486 
	C152.977402,37.188805 152.954132,47.950657 153.073975,58.710915 
	C153.104782,61.476402 153.586533,64.236862 153.861115,66.999634 
	C154.348251,68.555435 154.835388,70.111229 155.380341,71.851700 
	C149.859360,72.342445 144.294434,75.325844 138.914154,70.867294 
	C138.261597,70.326538 136.245865,71.234795 134.945801,71.703926 
	C127.726227,74.308990 121.002220,74.229431 115.009232,68.054176 
	C107.533485,74.764061 98.257751,72.676338 89.428589,73.015846 
	C87.598083,73.086235 85.733566,72.817421 83.935211,73.067711 
	C79.978729,73.618370 77.503883,72.409027 77.221092,68.115379 
	C77.016495,65.009071 75.438896,63.744785 72.306625,64.084251 
	C70.329971,64.298470 68.290718,64.305099 66.315987,64.082146 
	C63.188610,63.729050 61.449726,65.050354 61.359039,68.076530 
	C61.221004,72.682854 58.583374,73.196236 54.722313,73.101753 
	C45.725880,72.881622 45.725521,73.045540 47.902931,64.296089 
	C50.234413,54.927502 52.742256,45.596767 54.780254,36.164619 
	C55.447575,33.076168 54.885227,29.722025 54.885227,25.384272 
	C55.893047,25.384272 58.392506,25.384272 60.891964,25.384272 
	C65.225060,25.384274 69.564850,25.536140 73.889534,25.345449 
	C79.174294,25.112425 84.273232,24.864555 84.087639,32.035339 
	C87.196381,30.179026 89.972168,28.521523 93.552902,26.900143 
	C96.891930,26.541758 99.426003,26.147249 101.960083,25.752739 
	C110.010681,25.672169 118.061279,25.591600 126.641510,25.864878 
	C127.449158,26.812073 127.727165,27.405420 128.004654,28.459501 
	C128.004440,32.613785 128.004745,36.307339 127.751160,40.221146 
	C125.313927,40.615406 123.130577,40.789413 120.821671,40.649406 
	C117.745560,40.228249 116.927261,38.755371 117.921661,35.787964 
	C117.571701,34.969719 117.275185,34.450722 116.886459,33.707764 
	C114.696304,33.979740 112.598351,34.475677 110.194885,35.247650 
	C108.467567,35.412529 107.046791,35.285480 105.623741,35.193394 
	C102.226357,34.973560 97.708260,33.625904 96.424416,37.639812 
	C94.970718,42.184753 99.877411,42.799175 102.880157,44.116032 
	C108.529099,46.593376 114.566566,48.489700 117.095253,55.396446 
	C117.094063,56.795315 117.087280,57.812222 116.968155,59.094086 
	C118.451958,61.350975 120.048111,63.342911 121.559502,65.229073 
	C122.130798,63.575275 122.549301,62.363785 123.193039,61.046528 
	C123.745163,60.768570 123.911682,60.497780 124.140228,59.907185 
	C127.594795,57.108932 128.463760,60.624966 130.184784,61.944115 
M76.455589,49.046925 
	C76.289162,49.247425 76.122734,49.447922 75.956306,49.648422 
	C76.655731,49.719658 77.355164,49.790897 78.470512,49.966919 
	C78.470512,49.966919 78.886887,50.069920 78.925461,50.661079 
	C79.003708,52.033371 79.179092,53.411057 79.103424,54.774811 
	C79.079453,55.206802 78.385368,55.601608 77.406380,56.192413 
	C74.485649,58.943295 78.589851,58.745781 78.976242,60.812496 
	C78.973434,61.056717 78.970619,61.300941 79.519608,61.710701 
	C80.364296,62.127937 81.208977,62.545174 81.734993,63.363388 
	C79.403809,67.048874 85.223076,64.754784 84.561172,67.215607 
	C85.341370,66.776756 86.121559,66.337906 86.945198,65.947563 
	C86.945198,65.947563 86.881317,65.960197 87.294113,65.735756 
	C87.561783,65.566116 87.788773,65.353127 88.474121,64.727402 
	C89.287560,64.136276 90.100998,63.545151 91.239494,63.612183 
	C93.654999,63.742607 96.198326,64.403816 98.451759,63.861198 
	C100.939362,63.262192 103.161148,61.559284 105.498718,60.337200 
	C103.808327,58.362080 102.479858,55.761608 100.357315,54.533157 
	C94.763840,51.295853 88.825455,48.654461 83.103439,45.183880 
	C83.144279,44.989071 83.185127,44.794258 83.682983,44.423943 
	C82.436218,43.561077 81.189461,42.698212 79.970589,41.133667 
	C79.890900,39.836216 79.811211,38.538769 79.731522,37.241318 
	C78.418732,38.903336 77.739479,40.549454 77.601166,42.239834 
	C77.476326,43.765533 77.943268,45.339657 78.011986,47.562790 
	C77.973999,47.786354 77.936005,48.009918 77.591843,48.483150 
	C77.355087,48.609085 77.144981,48.769867 76.455589,49.046925 
M67.786530,55.685982 
	C69.718185,55.685982 71.649834,55.685982 74.277573,55.685982 
	C72.713699,49.601761 71.357391,44.325062 70.001083,39.048359 
	C69.514511,39.069340 69.027946,39.090324 68.541374,39.111305 
	C67.382675,43.869633 66.142799,48.611450 65.167595,53.407093 
	C65.045174,54.009117 66.318192,54.894905 67.786530,55.685982 
z"/>
<path fill="#120E05" opacity="1.000000" stroke="none" 
	d="
M48.213421,107.151550 
	C51.641346,107.294655 54.729176,107.589607 57.817009,107.884567 
	C57.783405,108.616890 57.749798,109.349205 57.716194,110.081528 
	C54.924637,110.081528 52.133083,110.081528 49.341526,110.081528 
	C49.255997,110.494644 49.170471,110.907761 49.084942,111.320877 
	C52.341660,112.665550 55.598381,114.010223 58.689159,115.286377 
	C60.408783,113.964401 62.382645,111.850998 64.815155,110.825211 
	C66.054886,110.302422 68.118462,111.733292 70.857445,112.620453 
	C67.614998,114.878113 62.773918,111.073715 63.097954,116.692719 
	C63.412399,122.145348 67.687859,117.872475 69.696358,119.238754 
	C66.292587,124.298012 62.453930,123.674736 59.608604,118.296173 
	C57.245815,119.698830 55.037525,121.816414 52.529900,122.266586 
	C50.127121,122.697945 47.413586,121.398285 44.836624,120.859383 
	C44.939651,120.083206 45.042675,119.307030 45.145702,118.530846 
	C46.551624,118.656898 47.955345,118.838211 49.364052,118.894363 
	C50.957394,118.957863 52.555214,118.909004 54.984104,118.909004 
	C52.275040,114.264656 39.238316,117.156357 48.213421,107.151550 
z"/>
<path fill="#942B37" opacity="1.000000" stroke="none" 
	d="
M87.638611,173.382172 
	C86.183945,169.859558 86.065857,166.771835 89.405289,164.765366 
	C93.543320,162.279068 96.585579,164.574875 99.743813,168.313522 
	C99.829208,162.371460 103.961304,164.546555 106.578300,164.099075 
	C107.636696,163.918091 109.883568,165.175476 110.001495,166.004288 
	C110.412231,168.891281 110.161659,171.878601 110.031258,174.821991 
	C110.022743,175.014267 108.584183,175.477661 108.373878,175.263092 
	C107.771858,174.648849 107.232384,173.791977 107.079231,172.955292 
	C106.711388,170.945709 106.578308,168.893158 106.350510,166.857956 
	C105.746185,166.871460 105.141869,166.884979 104.537552,166.898499 
	C104.322151,168.210312 104.163147,169.534592 103.876549,170.830658 
	C103.545670,172.327011 103.102295,173.798462 102.707771,175.280731 
	C101.477585,174.311432 100.247391,173.342133 98.976845,172.341034 
	C94.495712,176.710754 92.823708,176.943253 87.638611,173.382172 
M91.158218,172.526978 
	C94.049896,173.750870 95.424217,172.316010 95.134171,169.673904 
	C95.014038,168.579620 93.254280,167.665344 92.240189,166.669205 
	C91.714294,168.419174 91.188400,170.169144 91.158218,172.526978 
z"/>
<path fill="#110D04" opacity="1.000000" stroke="none" 
	d="
M81.723076,134.013641 
	C83.397591,133.356979 85.072105,132.700317 86.012901,132.331390 
	C85.903839,132.098343 86.258232,132.855606 86.736099,134.271027 
	C86.910751,137.961441 86.961922,140.993729 87.013084,144.026001 
	C84.825104,145.269684 82.637123,146.513351 80.015091,147.863159 
	C79.581047,147.969299 79.321251,148.078400 79.321251,148.078400 
	C75.873077,149.529099 72.989777,149.240753 70.736656,144.855698 
	C73.108017,145.162720 74.899712,145.394699 77.122520,145.256058 
	C77.836700,144.565552 78.119774,144.245667 78.402840,143.925766 
	C77.905983,144.016754 77.409134,144.107727 76.912277,144.198715 
	C75.339394,143.689224 73.766502,143.179749 72.066727,142.156036 
	C71.869667,141.434250 71.753448,141.256897 71.591194,141.109711 
	C71.399338,140.333176 71.207489,139.556625 71.256210,138.116302 
	C71.586479,137.058624 71.676163,136.664719 71.765854,136.270828 
	C72.275436,135.511749 72.785019,134.752655 74.028625,133.985641 
	C75.656456,133.939758 76.550255,133.901794 77.444054,133.863846 
	C77.789108,133.904861 78.134171,133.945877 79.081268,134.001221 
	C80.363228,134.014908 81.043152,134.014267 81.723076,134.013641 
M75.857605,137.915695 
	C76.693329,137.758957 77.529053,137.602203 78.364777,137.445465 
	C78.050293,136.972137 77.735809,136.498810 77.421333,136.025467 
	C76.723656,136.609253 76.025986,137.193024 75.857605,137.915695 
M74.971825,140.009552 
	C76.048050,140.182617 77.124275,140.355682 78.200508,140.528748 
	C78.200043,140.097717 78.199577,139.666687 78.199120,139.235641 
	C77.210297,139.354767 76.221481,139.473892 74.971825,140.009552 
z"/>
<path fill="#171206" opacity="1.000000" stroke="none" 
	d="
M78.023827,90.970871 
	C79.625443,88.481583 81.111549,86.358925 82.597656,84.236267 
	C84.107544,86.505478 85.892677,88.642899 87.058090,91.077042 
	C88.535324,94.162476 88.916328,98.034523 92.446381,98.269577 
	C90.610023,99.417427 87.767921,101.558624 84.834160,97.547615 
	C84.311378,96.832893 81.301987,97.742676 79.520226,98.207108 
	C78.194267,98.552727 76.996628,99.390648 74.573318,100.585419 
	C76.029190,96.548302 76.968750,93.942902 78.023827,90.970871 
z"/>
<path fill="#1C1607" opacity="1.000000" stroke="none" 
	d="
M151.925705,135.947983 
	C155.173782,134.834854 158.421875,133.721725 161.669952,132.608582 
	C162.182709,133.110535 162.695465,133.612488 163.208206,134.114441 
	C162.486832,138.668076 162.141968,143.349213 160.684158,147.653427 
	C160.432770,148.395706 155.455215,147.537262 152.342163,146.818420 
	C153.988617,145.873505 155.953659,145.528381 157.918701,145.183273 
	C151.839096,144.615112 151.221756,140.718781 151.925705,135.947983 
z"/>
<path fill="#922738" opacity="1.000000" stroke="none" 
	d="
M55.774311,173.704224 
	C52.434166,173.977249 49.317276,174.541473 45.557655,175.222046 
	C47.249851,170.599625 48.663242,166.389603 50.380436,162.307404 
	C50.781479,161.354019 52.231125,160.248871 53.165916,160.277328 
	C54.126816,160.306595 55.498028,161.449387 55.907753,162.431198 
	C57.560860,166.392502 58.911972,170.479828 60.878651,175.913147 
	C58.511425,174.983093 57.254498,174.489258 55.774311,173.704224 
z"/>
<path fill="#902537" opacity="1.000000" stroke="none" 
	d="
M139.070221,175.026917 
	C135.487061,174.995544 131.903915,174.964172 128.320755,174.932785 
	C128.295364,174.071243 128.269989,173.209686 128.244598,172.348129 
	C131.174194,172.348129 134.103790,172.348129 137.033371,172.348129 
	C137.153900,171.798737 137.274414,171.249329 137.394928,170.699936 
	C136.193558,170.217255 135.030975,169.521500 133.783096,169.294174 
	C130.752457,168.742142 127.936607,167.800812 128.546661,164.067749 
	C129.149094,160.381332 132.191589,159.439590 135.410736,159.961105 
	C137.263153,160.261215 138.965408,161.488159 140.584824,162.805634 
	C137.753799,163.438354 135.073227,163.563324 132.392654,163.688293 
	C132.365402,164.123810 132.338150,164.559326 132.310898,164.994843 
	C134.888260,165.844482 137.940323,166.098679 139.930252,167.685135 
	C142.819580,169.988632 140.665039,172.697693 139.070221,175.026917 
z"/>
<path fill="#231A09" opacity="1.000000" stroke="none" 
	d="
M87.332062,143.713715 
	C86.961922,140.993729 86.910751,137.961441 86.878494,134.547546 
	C87.835159,134.018600 88.781715,133.912918 89.709312,133.717346 
	C97.212448,132.135406 98.022392,132.569412 100.585083,139.424652 
	C101.011452,139.467789 101.005783,139.958801 101.005783,139.958801 
	C100.448006,140.743820 99.866104,141.513031 99.338593,142.317886 
	C98.685722,143.314026 98.077988,144.339752 97.450752,145.352692 
	C97.101433,145.151917 96.752106,144.951141 96.402786,144.750351 
	C96.005867,141.826324 95.608948,138.902298 95.212029,135.978271 
	C94.583717,136.012100 93.955414,136.045929 93.327103,136.079758 
	C93.029808,138.872879 92.732506,141.666000 92.356041,145.202942 
	C90.624939,144.540115 89.137985,143.970779 87.332062,143.713715 
z"/>
<path fill="#110D04" opacity="1.000000" stroke="none" 
	d="
M65.410522,98.528374 
	C63.148575,101.143501 60.902683,100.531090 59.687805,97.824028 
	C58.356979,94.858589 60.289764,93.351082 63.808319,92.890472 
	C64.730377,92.556847 65.013504,92.256531 65.296623,91.956215 
	C64.834549,91.657150 64.372482,91.358086 63.910408,91.059021 
	C58.199539,90.775101 53.550491,91.685532 54.620747,99.199821 
	C54.630180,99.266037 53.253387,99.529686 52.174561,99.783241 
	C52.174561,95.876602 52.174561,92.299690 52.174561,88.390549 
	C55.036102,88.683220 57.806358,88.966560 61.204247,89.142487 
	C62.550659,88.736305 63.269440,88.437523 63.988220,88.138741 
	C64.160553,88.092285 64.332886,88.045822 64.998581,88.255188 
	C66.260567,88.693062 67.029198,88.875122 67.797829,89.057182 
	C68.210556,92.326485 68.623291,95.595787 69.036026,98.865089 
	C68.025604,98.928528 67.015175,98.991959 65.652145,98.363991 
	C64.820717,96.769821 64.341896,95.867050 63.863083,94.964279 
	C63.491203,95.220840 63.119320,95.477394 62.747437,95.733948 
	C63.346897,96.530258 63.921207,97.347725 64.561539,98.109695 
	C64.747406,98.330872 65.122292,98.393219 65.410522,98.528374 
z"/>
<path fill="#0E0B02" opacity="1.000000" stroke="none" 
	d="
M56.003056,144.808746 
	C54.939972,144.859818 53.876888,144.910889 52.155342,144.786346 
	C49.993397,145.017746 48.489910,145.424759 46.986423,145.831787 
	C46.416050,140.594849 45.845676,135.357910 45.289074,130.247437 
	C49.787674,130.247437 53.430317,130.247437 57.072960,130.247437 
	C57.104282,130.719574 57.135605,131.191696 57.166927,131.663834 
	C54.613159,132.116074 52.059387,132.568314 49.505619,133.020569 
	C49.529083,133.545746 49.552551,134.070908 49.576015,134.596085 
	C51.661503,134.880249 53.746986,135.164413 55.832474,135.448563 
	C55.997856,135.907669 56.163235,136.366776 56.328617,136.825867 
	C53.881203,137.674805 51.433792,138.523743 48.986378,139.372681 
	C48.948784,139.938019 48.911194,140.503372 48.873600,141.068710 
	C51.292812,141.380798 53.712021,141.692886 56.591652,142.474548 
	C57.175266,143.425583 57.298470,143.907043 57.421673,144.388504 
	C57.421673,144.388504 57.309650,144.080109 57.099518,144.228424 
	C56.556046,144.443008 56.260601,144.587006 56.003056,144.808746 
z"/>
<path fill="#191304" opacity="1.000000" stroke="none" 
	d="
M126.040710,139.613327 
	C125.113815,139.870972 124.186913,140.128632 123.260017,140.386276 
	C124.722481,144.662857 121.936775,145.116653 118.876717,145.133896 
	C115.427269,145.153336 113.956573,142.998764 113.472511,139.873871 
	C113.399261,139.401016 113.127068,138.958984 112.491364,138.376236 
	C112.035820,138.249786 111.985184,138.133316 111.985184,138.133301 
	C112.482964,138.105911 113.288857,138.264267 113.433685,138.024063 
	C117.582291,131.143295 120.885994,131.094315 125.635376,138.289276 
	C125.894371,138.999390 125.931557,139.310654 126.040710,139.613327 
z"/>
<path fill="#8A1C34" opacity="1.000000" stroke="none" 
	d="
M130.027725,61.497593 
	C128.463760,60.624966 127.594795,57.108932 123.804428,59.827305 
	C122.816841,59.800995 122.387466,59.633362 121.852631,59.427227 
	C121.747169,59.388725 121.555458,58.995590 121.253845,58.825455 
	C119.968384,57.758060 118.984528,56.860798 118.321075,55.998402 
	C119.273247,56.159916 119.905022,56.286560 120.863983,56.590374 
	C122.457802,56.505569 123.724419,56.243595 125.193634,55.777985 
	C125.927788,55.373703 126.459343,55.173058 126.994080,54.987556 
	C126.997261,55.002701 127.002129,55.031242 127.021912,55.217945 
	C127.362465,55.605534 127.683243,55.806423 128.165390,55.804863 
	C128.136673,55.006897 127.946594,54.411377 127.747620,53.648621 
	C127.738739,53.481384 127.722748,53.146820 127.946304,52.921074 
	C127.509056,51.804111 126.848251,50.912899 126.015419,49.677254 
	C125.313782,48.044151 124.784180,46.755474 124.202805,45.340839 
	C122.846054,45.226421 121.432114,45.107182 120.028992,45.005898 
	C120.039818,45.023849 120.073883,45.050785 120.082718,44.748390 
	C120.376785,43.285137 120.662010,42.124275 120.947235,40.963417 
	C123.130577,40.789413 125.313927,40.615406 127.969681,39.882240 
	C128.296448,35.548313 128.150803,31.773540 128.005173,27.998768 
	C127.727165,27.405420 127.449158,26.812073 127.095230,25.985962 
	C127.805222,26.951620 129.244202,28.134995 129.272217,29.350874 
	C129.470337,37.950165 129.349426,46.556309 129.402222,55.159828 
	C129.414261,57.124462 129.707077,59.087368 130.027725,61.497593 
M126.834526,42.789856 
	C126.603355,42.966812 126.372185,43.143768 126.141014,43.320724 
	C126.341988,43.470219 126.542953,43.619713 126.743927,43.769211 
	C126.894989,43.454815 127.046051,43.140419 126.834526,42.789856 
z"/>
<path fill="#1E1706" opacity="1.000000" stroke="none" 
	d="
M112.016708,137.751678 
	C111.985184,138.133316 112.035820,138.249786 112.029831,138.268097 
	C111.870361,139.477844 111.896118,140.731918 111.508400,141.841522 
	C111.180595,142.779633 110.461655,144.179916 109.762535,144.277496 
	C107.637222,144.574142 105.330864,144.719299 103.311584,144.152222 
	C102.284317,143.863739 101.721519,141.921310 100.977272,140.342682 
	C101.005783,139.958801 101.011452,139.467789 100.999046,139.222717 
	C100.733337,135.528137 102.669121,133.602982 105.749763,133.110794 
	C108.916016,132.604935 111.156044,134.161835 112.016708,137.751678 
z"/>
<path fill="#922738" opacity="1.000000" stroke="none" 
	d="
M92.788414,186.795624 
	C96.306625,185.920181 99.433136,186.816406 99.702118,189.980911 
	C99.925667,192.610901 101.099167,197.028473 96.862511,197.915161 
	C94.805862,198.345596 91.344910,197.281372 90.187065,195.684708 
	C87.910446,192.545227 88.783783,189.104965 92.788414,186.795624 
z"/>
<path fill="#161105" opacity="1.000000" stroke="none" 
	d="
M108.605446,94.009018 
	C106.692436,94.030899 105.207886,94.030899 103.389870,94.030899 
	C103.165100,95.878326 102.955742,97.599083 102.748703,99.300743 
	C98.715843,99.206841 97.979599,95.655602 99.672951,84.093964 
	C103.431648,84.319199 107.249580,84.547981 111.067513,84.776764 
	C111.054855,85.427895 111.042191,86.079025 111.029533,86.730156 
	C109.650024,86.832054 108.196449,86.697762 106.911362,87.100761 
	C105.563560,87.523399 104.377342,88.461349 103.120514,89.174103 
	C104.502769,89.755058 105.848824,90.470833 107.283646,90.855980 
	C107.930885,91.029724 108.754959,90.544716 110.464806,90.116882 
	C109.807297,91.895302 109.420609,92.941216 108.605446,94.009018 
z"/>
<path fill="#942B37" opacity="1.000000" stroke="none" 
	d="
M170.210220,166.122772 
	C172.942184,163.437637 175.912735,162.810104 179.054092,165.331421 
	C182.528351,168.119934 179.967834,172.019028 178.993561,174.033096 
	C177.550812,177.015610 173.658813,176.556046 170.444183,173.658081 
	C170.122726,170.778717 170.166473,168.450745 170.210220,166.122772 
z"/>
<path fill="#231A09" opacity="1.000000" stroke="none" 
	d="
M148.962631,91.142517 
	C151.509171,90.151314 153.996277,88.942635 156.617889,88.226006 
	C159.641373,87.399536 161.409378,88.728851 161.413956,92.011513 
	C161.416504,93.833382 161.699631,95.718719 161.310669,97.453087 
	C161.080688,98.478554 159.786209,99.265282 158.970428,100.159363 
	C158.629547,99.905937 158.288681,99.652504 157.947800,99.399071 
	C157.947800,97.604507 158.091278,95.792839 157.880371,94.023415 
	C157.790298,93.267815 156.960831,92.600349 156.467361,91.892830 
	C155.940887,92.575401 155.220596,93.188492 154.943802,93.960579 
	C154.680252,94.695671 155.098145,95.678535 154.825729,96.406197 
	C154.387833,97.575928 153.628265,98.625252 153.004623,99.725449 
	C152.390076,98.577621 151.775528,97.429802 151.042755,95.581207 
	C150.270569,93.634453 149.616608,92.388481 148.962631,91.142517 
z"/>
<path fill="#201907" opacity="1.000000" stroke="none" 
	d="
M57.767891,144.258514 
	C57.298470,143.907043 57.175266,143.425583 57.017727,142.572296 
	C57.714916,141.375092 58.918423,140.631760 59.079185,139.707123 
	C59.408424,137.813507 59.177967,135.822556 59.177967,133.964890 
	C70.852272,132.255402 69.467926,133.255035 67.756447,145.143295 
	C67.166992,143.946808 66.277702,142.801819 66.061287,141.541275 
	C65.767334,139.829147 65.988083,138.028641 65.988083,136.266037 
	C65.274887,136.140991 64.561684,136.015945 63.848488,135.890900 
	C63.309013,138.793121 62.769539,141.695358 62.151775,145.018784 
	C60.842709,144.730148 59.478413,144.429321 57.767891,144.258514 
z"/>
<path fill="#902434" opacity="1.000000" stroke="none" 
	d="
M119.641418,175.236511 
	C117.033089,174.762772 114.801743,174.347107 112.570389,173.931427 
	C113.035782,172.134583 113.501175,170.337753 114.111603,167.980927 
	C114.109673,167.979721 113.086929,167.335968 111.059395,166.059799 
	C113.276604,165.147751 114.756355,163.961334 116.044609,164.141815 
	C118.079369,164.426865 121.637772,165.609970 121.647415,166.446457 
	C121.681091,169.367218 124.455338,173.170456 119.641418,175.236511 
z"/>
<path fill="#922734" opacity="1.000000" stroke="none" 
	d="
M151.446350,169.752716 
	C151.636078,168.349213 151.557175,167.166687 151.394501,164.728561 
	C153.306198,164.631973 157.248978,163.599823 157.815094,164.559540 
	C159.548492,167.498016 159.985077,171.201492 160.990173,174.839615 
	C149.857361,175.747147 149.102890,175.307480 151.446350,169.752716 
M154.171021,167.500183 
	C154.171021,167.500183 154.463104,167.627197 154.463104,167.627197 
	C154.463104,167.627197 154.390503,167.322128 154.171021,167.500183 
z"/>
<path fill="#191304" opacity="1.000000" stroke="none" 
	d="
M148.878998,90.777634 
	C149.616608,92.388481 150.270569,93.634453 151.011856,95.170471 
	C150.755386,95.568405 150.411606,95.676300 149.539001,96.081253 
	C149.010208,96.378311 148.946732,96.699142 148.946732,96.699142 
	C145.299347,101.265564 142.881393,101.315147 137.469757,97.270935 
	C137.162155,97.613678 137.175217,97.677498 137.175232,97.677498 
	C137.379654,96.993713 137.525436,96.285431 137.799042,95.630547 
	C138.788147,93.263092 139.291824,89.553558 140.969849,88.901642 
	C143.066238,88.087181 146.142258,89.794266 148.878998,90.777634 
M146.221817,93.751709 
	C145.228699,92.723320 144.235580,91.694923 143.242462,90.666542 
	C142.518127,91.644669 141.287598,92.584465 141.209808,93.611542 
	C141.129761,94.668541 142.173828,95.810661 142.726013,96.915535 
	C143.884171,96.128983 145.042343,95.342430 146.221817,93.751709 
z"/>
<path fill="#120E05" opacity="1.000000" stroke="none" 
	d="
M123.190804,122.090317 
	C120.492096,121.931183 118.164299,121.692123 115.836502,121.453056 
	C115.625938,120.899841 115.415375,120.346619 115.204811,119.793396 
	C116.170532,119.286285 117.136246,118.779182 117.135063,118.779800 
	C117.135063,116.052139 116.428696,112.679184 117.272095,112.232529 
	C119.494598,111.055504 122.390228,111.149490 125.017807,110.737343 
	C125.174103,111.374977 125.330406,112.012619 125.486702,112.650253 
	C124.251160,113.294670 123.015625,113.939095 121.825081,114.560043 
	C127.279839,117.270126 127.506287,118.211136 123.190804,122.090317 
z"/>
<path fill="#0C0903" opacity="1.000000" stroke="none" 
	d="
M143.041260,133.976562 
	C145.166092,134.172180 147.290924,134.367813 149.680695,135.235535 
	C149.904907,138.903961 149.864182,141.900299 149.823456,144.896637 
	C148.801498,144.101059 147.303436,143.500137 146.878403,142.460526 
	C146.350266,141.168701 146.903549,139.473862 146.604401,138.033096 
	C146.451279,137.295593 145.458374,136.732452 144.845001,136.090500 
	C144.290192,136.788300 143.421265,137.417969 143.251785,138.199356 
	C142.975403,139.473618 143.007431,140.865723 143.173706,142.174500 
	C143.522369,144.919144 141.941345,145.179535 139.449554,144.433655 
	C139.018539,141.944397 139.142792,139.976624 138.982666,138.032272 
	C138.731064,134.977020 140.296280,133.934082 143.041260,133.976562 
z"/>
<path fill="#89173B" opacity="1.000000" stroke="none" 
	d="
M54.937973,190.742554 
	C55.561108,187.951645 53.248932,184.447800 57.572453,183.419693 
	C58.937519,194.145248 58.005249,197.853546 53.248569,197.950333 
	C50.854832,197.999023 46.631271,196.026337 46.354301,194.427399 
	C45.721329,190.773300 43.952480,186.152405 47.393356,182.909546 
	C47.923401,182.972916 48.453445,183.036285 48.983490,183.099655 
	C48.983490,185.704361 48.687630,188.356934 49.098263,190.895203 
	C49.331783,192.338684 50.720589,193.595261 51.589142,194.936005 
	C52.704746,193.684692 53.820351,192.433365 54.937973,190.742554 
z"/>
<path fill="#130F05" opacity="1.000000" stroke="none" 
	d="
M97.042358,115.157692 
	C98.159309,111.610764 100.764610,109.745026 104.182709,110.813034 
	C106.115685,111.417023 108.785049,113.812675 108.796143,115.417404 
	C108.811607,117.655113 107.187195,120.942207 105.299919,121.921867 
	C102.139832,123.562218 98.832787,122.369713 97.171875,117.851555 
	C97.025230,116.515877 97.033791,115.836784 97.042358,115.157692 
M103.491524,113.105934 
	C100.381836,113.569542 99.784233,115.623604 100.932541,118.021568 
	C101.346519,118.886055 103.170013,119.075562 104.350281,119.573082 
	C104.547424,117.698380 104.767601,115.825378 104.906960,113.946388 
	C104.921303,113.753105 104.452827,113.524002 103.491524,113.105934 
z"/>
<path fill="#110D04" opacity="1.000000" stroke="none" 
	d="
M96.707565,115.044739 
	C97.033791,115.836784 97.025230,116.515877 97.024712,117.534485 
	C96.367706,118.543381 95.655617,119.172729 95.045792,119.889130 
	C92.480347,122.902931 87.879341,123.496552 85.491272,120.844086 
	C83.080261,118.166153 83.084526,115.058533 85.329803,112.297836 
	C87.507935,109.619682 92.343864,110.084229 94.894493,112.990036 
	C95.429825,113.599915 95.882187,114.282631 96.707565,115.044739 
M88.193398,119.166733 
	C89.520180,118.840492 91.450615,118.916740 92.009521,118.078506 
	C92.607574,117.181572 92.210426,115.282715 91.653587,114.101135 
	C91.387306,113.536102 89.748405,113.617928 88.731201,113.406784 
	C88.393814,115.133766 88.056427,116.860756 88.193398,119.166733 
z"/>
<path fill="#8F2435" opacity="1.000000" stroke="none" 
	d="
M119.889977,195.945786 
	C116.831673,199.059448 113.584061,198.936630 110.152809,196.708862 
	C110.636971,195.308029 111.278183,194.123154 111.419426,192.881409 
	C111.614067,191.170242 110.865746,188.206345 111.514008,187.903442 
	C113.599228,186.929062 116.140137,186.929947 118.505310,186.554718 
	C118.658989,187.064087 118.812660,187.573471 118.966339,188.082855 
	C118.247925,188.842407 117.529518,189.601959 116.669014,190.511734 
	C117.455742,191.186584 118.383362,191.982285 119.602333,193.302307 
	C119.892456,194.533020 119.891212,195.239410 119.889977,195.945786 
z"/>
<path fill="#110D04" opacity="1.000000" stroke="none" 
	d="
M142.643799,120.441193 
	C137.420654,123.560898 132.702377,122.549942 132.181961,118.184898 
	C131.932419,116.091766 132.859589,112.758575 134.376602,111.838768 
	C136.187805,110.740593 139.703812,110.759102 141.580521,111.847359 
	C144.666382,113.636772 144.668152,117.003349 142.643799,120.441193 
M140.747681,116.494461 
	C139.605576,115.378960 138.463470,114.263451 137.321365,113.147942 
	C136.584961,114.134369 135.246231,115.131744 135.263916,116.104462 
	C135.286255,117.333420 136.413849,118.542282 137.064667,119.759811 
	C138.261902,118.918930 139.459122,118.078049 140.747681,116.494461 
z"/>
<path fill="#902535" opacity="1.000000" stroke="none" 
	d="
M136.842926,193.247467 
	C136.204605,191.132187 135.658218,189.404648 135.040833,187.452606 
	C140.117401,185.699234 138.294037,190.820129 140.207687,192.149887 
	C141.342514,190.296799 142.494232,188.416122 143.645950,186.535461 
	C144.155823,197.039780 141.256180,201.891541 136.934875,201.551315 
	C136.934875,198.852661 136.934875,196.243927 136.842926,193.247467 
z"/>
<path fill="#902537" opacity="1.000000" stroke="none" 
	d="
M82.320740,170.134491 
	C81.674828,170.899887 81.258743,171.412476 80.476959,172.375595 
	C82.304405,172.762787 83.863579,173.093140 85.422752,173.423492 
	C85.421059,173.821487 85.419365,174.219467 85.417671,174.617462 
	C82.075699,174.617462 78.733727,174.617462 74.467461,174.617462 
	C76.450844,172.084244 78.023804,170.075241 79.792839,167.815796 
	C78.480766,167.160843 77.218163,166.530594 75.955559,165.900345 
	C76.006752,165.534439 76.057945,165.168518 76.109138,164.802612 
	C79.104240,164.802612 82.099342,164.802612 86.300201,164.802612 
	C84.840851,166.779388 83.695709,168.330536 82.320740,170.134491 
z"/>
<path fill="#020100" opacity="1.000000" stroke="none" 
	d="
M75.083153,117.424927 
	C74.473999,119.259476 73.865211,120.663521 73.256424,122.067558 
	C72.803574,120.675476 72.091209,119.307907 71.956825,117.885727 
	C71.738297,115.573174 71.713150,113.204445 71.968155,110.899452 
	C72.117744,109.547218 72.967415,108.272438 73.502174,106.962814 
	C74.275887,108.151245 75.049591,109.339668 75.706917,110.349335 
	C77.580765,110.982071 80.865051,111.186020 81.326759,112.434120 
	C82.308281,115.087410 81.864792,118.283676 81.865532,121.257393 
	C81.865601,121.529114 80.841125,122.039322 80.321938,122.004074 
	C79.829788,121.970650 79.033363,121.418243 78.969673,121.002350 
	C78.769745,119.696800 79.087013,118.286522 78.758987,117.033279 
	C78.430435,115.778023 77.566628,114.662872 76.937424,113.486313 
	C76.319458,114.655678 75.701492,115.825043 75.083153,117.424927 
z"/>
<path fill="#8A1C34" opacity="1.000000" stroke="none" 
	d="
M72.032486,197.066483 
	C70.895203,197.474930 69.757919,197.883362 68.325272,198.397888 
	C67.864441,194.951614 67.479301,192.071335 67.094154,189.191071 
	C66.416893,189.173431 65.739639,189.155792 65.062378,189.138153 
	C64.772034,191.033463 64.592705,192.955261 64.149216,194.814026 
	C63.887936,195.909134 63.207642,196.904251 62.715790,197.944336 
	C62.138939,196.984146 61.164185,196.063416 61.064240,195.055908 
	C60.821449,192.608429 60.985249,190.120590 60.985249,186.550705 
	C64.670639,187.102707 67.915970,187.588791 71.564041,188.635010 
	C71.988686,191.818909 72.010582,194.442703 72.032486,197.066483 
z"/>
<path fill="#261E0A" opacity="1.000000" stroke="none" 
	d="
M146.172974,119.464600 
	C147.232788,115.800354 143.609070,112.381516 146.337509,109.286087 
	C147.489304,107.979370 149.252716,107.211761 151.783493,105.486435 
	C150.826324,111.941780 150.124969,116.671928 149.199310,122.914856 
	C147.909439,121.614456 147.041458,120.739380 146.172974,119.464600 
z"/>
<path fill="#110D04" opacity="1.000000" stroke="none" 
	d="
M136.713913,97.546394 
	C137.175217,97.677498 137.162155,97.613678 137.148560,97.585373 
	C135.875412,98.242889 133.930161,99.796494 133.488388,99.447411 
	C132.293289,98.503059 131.349030,96.833405 131.019165,95.298065 
	C130.531937,93.030281 130.318817,90.576950 130.669296,88.307701 
	C130.852646,87.120552 132.487640,86.157608 133.467026,85.093407 
	C134.025482,86.946007 135.377045,89.002670 134.964691,90.605499 
	C134.269348,93.308167 133.377640,95.571739 136.713913,97.546394 
z"/>
<path fill="#942B37" opacity="1.000000" stroke="none" 
	d="
M146.956299,161.088654 
	C147.805649,163.840820 148.388306,166.434189 147.175629,169.430023 
	C146.646439,170.737320 148.089447,172.842941 149.059570,175.932205 
	C146.657532,175.060898 144.837097,174.400574 142.985779,172.969116 
	C142.828934,170.251999 142.471298,168.286484 142.633499,166.364822 
	C142.854401,163.747604 142.907272,160.694717 146.956299,161.088654 
z"/>
<path fill="#902535" opacity="1.000000" stroke="none" 
	d="
M86.337692,186.985565 
	C87.795914,188.922852 86.402451,197.190155 84.620239,197.630432 
	C83.587868,197.885468 81.523270,196.855881 81.035469,195.859741 
	C79.754227,193.243286 79.082375,190.328400 78.167740,187.532410 
	C78.607414,187.195541 79.047081,186.858673 79.486748,186.521805 
	C80.852486,188.100494 82.218216,189.679184 83.639206,191.321732 
	C84.330734,190.037384 85.138870,188.536469 86.337692,186.985565 
z"/>
<path fill="#912636" opacity="1.000000" stroke="none" 
	d="
M132.949020,197.096008 
	C129.896820,198.899612 128.306015,197.845963 128.068909,194.491852 
	C127.882294,191.851791 127.589851,189.166595 127.904419,186.569275 
	C128.032593,185.511002 129.640442,184.631973 130.575073,183.671402 
	C131.266495,185.471878 132.262497,187.221725 132.572266,189.085617 
	C132.959915,191.418121 132.783661,193.844330 132.889908,196.640625 
	C132.928986,197.051147 132.949020,197.096008 132.949020,197.096008 
z"/>
<path fill="#261E0A" opacity="1.000000" stroke="none" 
	d="
M142.767670,133.731918 
	C140.296280,133.934082 138.731064,134.977020 138.982666,138.032272 
	C139.142792,139.976624 139.018539,141.944397 139.021240,144.345490 
	C137.733383,144.789307 136.446106,144.789307 134.985840,144.789307 
	C134.985840,140.986526 134.985840,137.311783 134.985840,133.487274 
	C137.687225,133.487274 140.090652,133.487274 142.767670,133.731918 
z"/>
<path fill="#0C0903" opacity="1.000000" stroke="none" 
	d="
M45.798504,93.848846 
	C45.798500,90.430756 45.798500,87.473618 45.798500,84.516472 
	C46.265602,84.300858 46.732700,84.085243 47.199802,83.869637 
	C47.938164,84.866547 49.216915,85.814110 49.313297,86.869644 
	C49.599434,90.003250 49.583679,93.192276 49.336483,96.332123 
	C49.246044,97.480812 48.174454,98.552254 47.550453,99.658936 
	C46.966862,98.541046 46.291706,97.458672 45.838570,96.290192 
	C45.614292,95.711853 45.798901,94.974945 45.798504,93.848846 
z"/>
<path fill="#130F05" opacity="1.000000" stroke="none" 
	d="
M124.702766,96.356171 
	C124.703117,92.964516 124.545319,89.989761 124.788895,87.048256 
	C124.878456,85.966751 125.916580,84.963799 126.522034,83.925011 
	C126.934593,84.112442 127.347160,84.299866 127.759720,84.487297 
	C127.759720,89.363670 127.759720,94.240044 127.759720,99.116417 
	C127.372063,99.376183 126.984406,99.635941 126.596748,99.895699 
	C125.965729,98.859215 125.334717,97.822731 124.702766,96.356171 
z"/>
<path fill="#32270F" opacity="1.000000" stroke="none" 
	d="
M126.137222,140.038422 
	C125.931557,139.310654 125.894371,138.999390 125.965454,138.445618 
	C126.185936,136.759384 126.370117,135.307098 126.581871,133.637360 
	C128.752258,133.637360 130.769287,133.637360 132.474289,133.637360 
	C131.476868,137.289215 130.598816,140.749115 129.471115,144.125656 
	C129.388870,144.371902 126.947678,144.391129 126.574974,143.848480 
	C126.011948,143.028748 126.304680,141.621246 126.137222,140.038422 
z"/>
<path fill="#181306" opacity="1.000000" stroke="none" 
	d="
M118.019165,98.988548 
	C114.012566,100.478477 110.484192,97.824440 111.151360,93.723274 
	C111.430946,92.004539 112.068420,90.344017 113.724991,88.044556 
	C114.250565,89.205345 114.842758,90.341339 115.286186,91.532692 
	C115.961723,93.347656 116.534294,95.200943 117.584503,97.381081 
	C118.018669,98.145653 118.018921,98.567101 118.019165,98.988548 
z"/>
<path fill="#F3B435" opacity="1.000000" stroke="none" 
	d="
M146.717606,160.850830 
	C142.907272,160.694717 142.854401,163.747604 142.633499,166.364822 
	C142.471298,168.286484 142.828934,170.251999 142.894867,172.622253 
	C141.781937,173.671204 140.729019,174.295853 139.373169,174.973724 
	C140.665039,172.697693 142.819580,169.988632 139.930252,167.685135 
	C137.940323,166.098679 134.888260,165.844482 132.310898,164.994843 
	C132.338150,164.559326 132.365402,164.123810 132.392654,163.688293 
	C135.073227,163.563324 137.753799,163.438354 140.695068,163.157654 
	C142.796829,162.205612 144.637863,161.409302 146.717606,160.850830 
z"/>
<path fill="#9B3635" opacity="1.000000" stroke="none" 
	d="
M105.832962,194.876877 
	C105.166458,196.200516 104.505783,197.098755 103.845116,197.997009 
	C103.303513,197.129791 102.363564,196.292862 102.294914,195.389694 
	C102.088089,192.668549 102.220306,189.921600 102.220306,186.595062 
	C105.022270,187.056732 106.957253,187.375565 108.479172,187.626328 
	C107.444344,190.301300 106.641579,192.376389 105.832962,194.876877 
z"/>
<path fill="#942B37" opacity="1.000000" stroke="none" 
	d="
M72.398987,197.163544 
	C72.010582,194.442703 71.988686,191.818909 71.969795,188.765396 
	C73.174278,187.765045 74.375748,187.194427 76.520355,186.175873 
	C76.520355,189.951569 76.526901,192.678925 76.518623,195.406235 
	C76.509155,198.524475 75.001717,198.636169 72.398987,197.163544 
z"/>
<path fill="#891834" opacity="1.000000" stroke="none" 
	d="
M168.028748,175.117889 
	C166.947708,175.164276 165.866653,175.210663 164.278519,174.933929 
	C163.531128,174.382599 163.290833,174.154388 163.050537,173.926193 
	C163.020676,169.875626 162.990829,165.825073 163.365448,161.392746 
	C164.492096,161.015121 165.214249,161.019257 165.936401,161.023392 
	C166.021088,161.451141 166.105759,161.878876 166.155121,162.882385 
	C166.466812,163.722229 166.813828,163.986328 167.160843,164.250412 
	C167.485733,164.600204 167.810623,164.949982 167.839752,165.799408 
	C163.485626,169.470627 167.283829,172.210358 168.028748,175.117889 
z"/>
<path fill="#8F2435" opacity="1.000000" stroke="none" 
	d="
M65.337494,171.297241 
	C64.663940,172.888992 63.994301,174.083023 63.324661,175.277069 
	C62.883099,174.202881 62.147678,173.152054 62.060040,172.049728 
	C61.866745,169.618393 61.999977,167.161102 61.999977,164.544800 
	C64.331657,164.544800 66.298012,164.544800 68.447205,164.544800 
	C67.292336,166.907745 66.316864,168.903641 65.337494,171.297241 
z"/>
<path fill="#020100" opacity="1.000000" stroke="none" 
	d="
M110.952927,119.763023 
	C110.949516,115.965134 110.844208,112.638618 111.028130,109.328178 
	C111.073372,108.513756 112.061516,107.751724 112.616196,106.965607 
	C113.108269,107.650383 113.998528,108.319786 114.025642,109.022499 
	C114.166351,112.669540 114.162544,116.328056 114.019073,119.975105 
	C113.990967,120.689766 113.125198,121.371468 112.645767,122.068359 
	C112.083061,121.459015 111.520355,120.849670 110.952927,119.763023 
z"/>
<path fill="#A14131" opacity="1.000000" stroke="none" 
	d="
M153.926788,66.535187 
	C153.586533,64.236862 153.104782,61.476402 153.073975,58.710915 
	C152.954132,47.950657 152.977402,37.188805 152.897339,26.003853 
	C153.245850,26.865051 153.982849,28.147966 153.990387,29.435150 
	C154.061813,41.646603 154.009293,53.858780 153.926788,66.535187 
z"/>
<path fill="#110D04" opacity="1.000000" stroke="none" 
	d="
M118.387100,99.092224 
	C118.018921,98.567101 118.018669,98.145653 118.020660,97.408051 
	C118.324593,95.192673 118.509956,93.264687 118.969978,91.404625 
	C119.263382,90.218254 119.963554,89.132484 120.481354,88.001610 
	C121.037201,88.143501 121.593056,88.285385 122.148903,88.427269 
	C122.148903,91.500679 122.338676,94.595581 121.994919,97.630043 
	C121.922852,98.266174 119.886330,98.679764 118.387100,99.092224 
z"/>
<path fill="#902537" opacity="1.000000" stroke="none" 
	d="
M73.399673,173.032196 
	C73.087860,173.981964 72.785957,174.520798 72.484055,175.059631 
	C71.675903,174.196304 70.149994,173.297485 70.190620,172.476135 
	C70.327011,169.718307 71.021942,166.988098 71.503098,164.247330 
	C72.106377,164.879089 73.147751,165.458145 73.231262,166.152435 
	C73.487778,168.285004 73.377380,170.461716 73.399673,173.032196 
z"/>
<path fill="#D4AA34" opacity="1.000000" stroke="none" 
	d="
M150.071457,145.080597 
	C149.864182,141.900299 149.904907,138.903961 149.940277,135.456116 
	C150.425644,135.256439 150.916382,135.508270 151.666412,135.854050 
	C151.221756,140.718781 151.839096,144.615112 157.918701,145.183273 
	C155.953659,145.528381 153.988617,145.873505 152.045410,146.612061 
	C151.484665,146.425186 150.902054,145.844864 150.071457,145.080597 
z"/>
<path fill="#8F2435" opacity="1.000000" stroke="none" 
	d="
M121.489563,192.822495 
	C121.557121,191.148285 121.624680,189.474060 122.173325,187.391937 
	C123.390671,187.039719 124.126938,187.095428 124.863205,187.151138 
	C124.887085,189.961212 124.958931,192.771927 124.921150,195.581177 
	C124.884399,198.312500 123.774193,198.813568 121.707062,196.164062 
	C121.636635,194.509857 121.563103,193.666168 121.489563,192.822495 
z"/>
<path fill="#A2482F" opacity="1.000000" stroke="none" 
	d="
M138.300247,26.487831 
	C138.508713,36.791065 138.557648,47.534721 138.402283,58.632629 
	C138.178879,48.300671 138.159790,37.614464 138.300247,26.487831 
z"/>
<path fill="#E5A037" opacity="1.000000" stroke="none" 
	d="
M168.241302,175.153687 
	C167.283829,172.210358 163.485626,169.470627 167.912292,166.153259 
	C168.709167,166.033066 169.137741,166.058655 169.888275,166.103516 
	C170.166473,168.450745 170.122726,170.778717 170.150909,173.453430 
	C169.633163,174.263275 169.043518,174.726379 168.241302,175.153687 
z"/>
<path fill="#DC9237" opacity="1.000000" stroke="none" 
	d="
M124.888092,186.741135 
	C124.126938,187.095428 123.390671,187.039719 122.284523,186.985916 
	C122.219971,185.415070 122.525299,183.842316 122.830627,182.269577 
	C123.524742,183.623428 124.218857,184.977280 124.888092,186.741135 
z"/>
<path fill="#8A1C34" opacity="1.000000" stroke="none" 
	d="
M101.583618,25.666294 
	C99.426003,26.147249 96.891930,26.541758 93.898247,26.928516 
	C96.028145,26.473793 98.617653,26.026819 101.583618,25.666294 
z"/>
<path fill="#201907" opacity="1.000000" stroke="none" 
	d="
M47.373848,145.897903 
	C48.489910,145.424759 49.993397,145.017746 51.758595,144.835480 
	C50.600628,145.361481 49.180950,145.662750 47.373848,145.897903 
z"/>
<path fill="#171206" opacity="1.000000" stroke="none" 
	d="
M65.439301,98.490822 
	C65.122292,98.393219 64.747406,98.330872 64.561539,98.109695 
	C63.921207,97.347725 63.346897,96.530258 62.747437,95.733948 
	C63.119320,95.477394 63.491203,95.220840 63.863083,94.964279 
	C64.341896,95.867050 64.820717,96.769821 65.412567,98.025360 
	C65.525604,98.378120 65.468086,98.453270 65.439301,98.490822 
z"/>
<path fill="#DC9237" opacity="1.000000" stroke="none" 
	d="
M121.214546,192.872375 
	C121.563103,193.666168 121.636635,194.509857 121.599869,195.766693 
	C121.135796,196.116013 120.782013,196.052170 120.159103,195.967056 
	C119.891212,195.239410 119.892456,194.533020 119.867050,193.474548 
	C120.206779,193.055725 120.573151,192.988983 121.214546,192.872375 
z"/>
<path fill="#181306" opacity="1.000000" stroke="none" 
	d="
M76.912827,144.407104 
	C77.409134,144.107727 77.905983,144.016754 78.402840,143.925766 
	C78.119774,144.245667 77.836700,144.565552 77.309799,144.944412 
	C77.065964,145.003372 76.913368,144.615509 76.912827,144.407104 
z"/>
<path fill="#E5A037" opacity="1.000000" stroke="none" 
	d="
M165.966370,160.810394 
	C165.214249,161.019257 164.492096,161.015121 163.410660,161.040726 
	C164.033035,160.912781 165.014679,160.755096 165.966370,160.810394 
z"/>
<path fill="#171206" opacity="1.000000" stroke="none" 
	d="
M64.014374,91.367020 
	C64.372482,91.358086 64.834549,91.657150 65.296623,91.956215 
	C65.013504,92.256531 64.730377,92.556847 64.178841,92.899040 
	C63.979733,92.518959 64.049042,92.096985 64.014374,91.367020 
z"/>
<path fill="#181306" opacity="1.000000" stroke="none" 
	d="
M77.186554,133.655396 
	C76.550255,133.901794 75.656456,133.939758 74.317017,133.958313 
	C74.890594,133.774933 75.909821,133.610931 77.186554,133.655396 
z"/>
<path fill="#171206" opacity="1.000000" stroke="none" 
	d="
M63.686272,88.085098 
	C63.269440,88.437523 62.550659,88.736305 61.533020,89.049530 
	C61.950882,88.719795 62.667599,88.375626 63.686272,88.085098 
z"/>
<path fill="#171206" opacity="1.000000" stroke="none" 
	d="
M67.570099,88.851196 
	C67.029198,88.875122 66.260567,88.693062 65.256996,88.325165 
	C65.795494,88.307938 66.568924,88.476570 67.570099,88.851196 
z"/>
<path fill="#181306" opacity="1.000000" stroke="none" 
	d="
M81.628311,133.752151 
	C81.043152,134.014267 80.363228,134.014908 79.344070,134.002472 
	C79.847740,133.823166 80.690643,133.656921 81.628311,133.752151 
z"/>
<path fill="#E5A037" opacity="1.000000" stroke="none" 
	d="
M163.036682,174.120789 
	C163.290833,174.154388 163.531128,174.382599 163.879089,174.837357 
	C163.665466,174.814407 163.344147,174.564911 163.036682,174.120789 
z"/>
<path fill="#E5A037" opacity="1.000000" stroke="none" 
	d="
M167.093552,164.062546 
	C166.813828,163.986328 166.466812,163.722229 166.192780,163.208420 
	C166.519257,163.264023 166.772766,163.569351 167.093552,164.062546 
z"/>
<path fill="#912636" opacity="1.000000" stroke="none" 
	d="
M132.906052,197.049164 
	C132.883118,197.047195 133.066757,197.168671 133.066757,197.168671 
	C133.066757,197.168671 133.017303,196.978622 132.983154,197.037323 
	C132.949020,197.096008 132.928986,197.051147 132.906052,197.049164 
z"/>
<path fill="#231A09" opacity="1.000000" stroke="none" 
	d="
M149.041214,96.653564 
	C148.946732,96.699142 149.010208,96.378311 149.047211,96.305450 
	C149.084213,96.232590 149.135696,96.607994 149.041214,96.653564 
z"/>
<path fill="#181306" opacity="1.000000" stroke="none" 
	d="
M71.529510,136.492264 
	C71.676163,136.664719 71.586479,137.058624 71.342361,137.714111 
	C71.223007,137.555038 71.258087,137.134369 71.529510,136.492264 
z"/>
<path fill="#181306" opacity="1.000000" stroke="none" 
	d="
M71.575630,141.281525 
	C71.753448,141.256897 71.869667,141.434250 71.973038,141.799149 
	C71.776413,141.860611 71.627693,141.692886 71.575630,141.281525 
z"/>
<path fill="#201907" opacity="1.000000" stroke="none" 
	d="
M56.262444,144.879990 
	C56.260601,144.587006 56.556046,144.443008 57.139240,144.387482 
	C57.100010,144.582565 56.810917,144.766907 56.262444,144.879990 
z"/>
<path fill="#181306" opacity="1.000000" stroke="none" 
	d="
M79.395531,148.149689 
	C79.321251,148.078400 79.581047,147.969299 79.650734,147.958282 
	C79.720421,147.947281 79.469810,148.220978 79.395531,148.149689 
z"/>
<path fill="#F9C530" opacity="1.000000" stroke="none" 
	d="
M120.018173,44.987942 
	C121.432114,45.107182 122.846054,45.226421 124.202805,45.340839 
	C124.784180,46.755474 125.313782,48.044151 125.886734,49.944908 
	C125.601906,51.034546 125.273727,51.512104 124.728722,52.141243 
	C124.282539,52.757702 124.053200,53.222580 123.482788,53.705994 
	C122.524971,53.850399 121.908226,53.976265 121.291473,54.102127 
	C121.496857,54.477600 121.702240,54.853073 121.701248,55.449028 
	C121.175507,55.917408 120.856148,56.165306 120.536789,56.413200 
	C119.905022,56.286560 119.273247,56.159916 118.198853,55.813240 
	C117.569939,55.358952 117.347748,55.166046 117.089661,55.014484 
	C114.566566,48.489700 108.529099,46.593376 102.880157,44.116032 
	C99.877411,42.799175 94.970718,42.184753 96.424416,37.639812 
	C97.708260,33.625904 102.226357,34.973560 105.623741,35.193394 
	C107.046791,35.285480 108.467567,35.412529 110.446930,35.383125 
	C112.355049,35.776512 113.705627,36.310459 115.362686,36.892952 
	C116.127304,36.646626 116.585426,36.351757 117.022385,36.031479 
	C117.001221,36.006062 117.051010,36.048145 117.280602,36.091782 
	C117.510193,36.135418 117.975098,36.087215 117.975098,36.087215 
	C116.927261,38.755371 117.745560,40.228249 120.821671,40.649406 
	C120.662010,42.124275 120.376785,43.285137 119.934769,44.767197 
	C119.644119,45.216732 119.510262,45.345062 119.376404,45.473396 
	C119.590324,45.311573 119.804253,45.149757 120.018173,44.987942 
M119.680664,53.530975 
	C119.404480,53.481583 119.128288,53.432190 118.852104,53.382797 
	C119.031075,53.523575 119.210045,53.664352 119.680664,53.530975 
z"/>
<path fill="#F9C42E" opacity="1.000000" stroke="none" 
	d="
M83.024422,45.775772 
	C88.825455,48.654461 94.763840,51.295853 100.357315,54.533157 
	C102.479858,55.761608 103.808327,58.362080 105.498718,60.337196 
	C103.161148,61.559284 100.939362,63.262192 98.451759,63.861198 
	C96.198326,64.403816 93.654999,63.742607 90.846741,63.060921 
	C89.845901,62.298508 89.237823,62.087364 88.570908,61.657974 
	C88.077492,61.333828 87.642899,61.227928 86.976349,60.960396 
	C86.478645,60.532738 86.212898,60.266720 85.966560,59.760849 
	C85.985970,59.521000 85.922409,59.043949 85.929291,58.735313 
	C85.245934,57.706528 84.555702,56.986374 83.648109,56.221146 
	C83.430740,56.176071 83.000854,56.065056 83.059669,55.716976 
	C83.413406,54.228085 83.708321,53.087269 84.157936,51.763702 
	C84.178284,51.039635 84.043930,50.498318 83.921188,49.701477 
	C83.934349,49.275246 83.935905,49.104542 83.908966,48.637131 
	C83.335976,47.888992 82.791458,47.437553 81.931633,46.940102 
	C81.407906,46.852974 81.199486,46.811855 81.011948,46.527306 
	C81.032829,46.283882 81.005653,45.796001 81.340393,45.860615 
	C82.124893,45.875408 82.574661,45.825588 83.024422,45.775772 
z"/>
<path fill="#F5B92E" opacity="1.000000" stroke="none" 
	d="
M67.365593,55.667603 
	C66.318192,54.894905 65.045174,54.009117 65.167595,53.407093 
	C66.142799,48.611450 67.382675,43.869633 68.541374,39.111305 
	C69.027946,39.090324 69.514511,39.069340 70.001083,39.048359 
	C71.357391,44.325062 72.713699,49.601761 74.277573,55.685982 
	C71.649834,55.685982 69.718185,55.685982 67.365593,55.667603 
z"/>
<path fill="#E2A946" opacity="1.000000" stroke="none" 
	d="
M83.909584,49.957005 
	C84.043930,50.498318 84.178284,51.039635 83.846542,51.749992 
	C78.220993,52.120735 82.964767,55.142471 81.755081,56.708687 
	C80.299355,56.578884 79.148643,56.296158 77.997940,56.013428 
	C78.385368,55.601608 79.079453,55.206802 79.103424,54.774811 
	C79.179092,53.411057 79.003708,52.033371 79.326920,50.360809 
	C81.122108,50.026024 82.515846,49.991516 83.909584,49.957005 
z"/>
<path fill="#821030" opacity="1.000000" stroke="none" 
	d="
M83.063934,45.479828 
	C82.574661,45.825588 82.124893,45.875408 81.158890,45.606079 
	C79.842827,45.757538 79.043007,46.228142 78.225037,46.749756 
	C78.206894,46.800766 78.149239,46.892426 78.149239,46.892426 
	C77.943268,45.339657 77.476326,43.765533 77.601166,42.239834 
	C77.739479,40.549454 78.418732,38.903336 79.731522,37.241318 
	C79.811211,38.538769 79.890900,39.836216 79.728928,41.663418 
	C80.733505,42.995258 81.979744,43.797352 83.225975,44.599442 
	C83.185127,44.794258 83.144279,44.989071 83.063934,45.479828 
z"/>
<path fill="#891834" opacity="1.000000" stroke="none" 
	d="
M87.208313,61.122032 
	C87.642899,61.227928 88.077492,61.333828 88.322289,61.832413 
	C87.722252,63.449749 87.311996,64.674400 86.901749,65.899048 
	C86.121559,66.337906 85.341370,66.776756 84.561172,67.215607 
	C85.223076,64.754784 79.403809,67.048874 82.059456,63.169853 
	C82.383919,62.976318 82.714890,62.995918 82.926842,63.173668 
	C83.758446,62.886570 84.378105,62.421722 85.001923,61.981884 
	C85.006073,62.006893 84.957932,61.991001 85.276581,62.072632 
	C86.132927,61.810184 86.670616,61.466106 87.208313,61.122032 
z"/>
<path fill="#821030" opacity="1.000000" stroke="none" 
	d="
M121.555458,58.995590 
	C121.555458,58.995590 121.747169,59.388725 121.754684,59.804924 
	C122.164070,60.531513 122.565941,60.841904 122.967804,61.152290 
	C122.549301,62.363785 122.130798,63.575275 121.559502,65.229073 
	C120.048111,63.342911 118.451958,61.350975 117.447784,59.241463 
	C119.211655,59.081120 120.383553,59.038357 121.555458,58.995590 
z"/>
<path fill="#8A1C34" opacity="1.000000" stroke="none" 
	d="
M77.702164,56.102921 
	C79.148643,56.296158 80.299355,56.578884 82.011032,56.625717 
	C82.714958,56.281567 82.857903,56.173313 83.000854,56.065056 
	C83.000854,56.065056 83.430740,56.176071 83.605927,56.532383 
	C82.732101,57.891792 81.683090,58.894894 80.366226,59.910202 
	C79.745255,59.975712 79.392120,60.029011 79.038986,60.082314 
	C78.589851,58.745781 74.485649,58.943295 77.702164,56.102921 
z"/>
<path fill="#E2A946" opacity="1.000000" stroke="none" 
	d="
M115.056198,36.844406 
	C113.705627,36.310459 112.355049,35.776512 110.752434,35.107090 
	C112.598351,34.475677 114.696304,33.979740 116.695435,34.089485 
	C116.748077,35.146164 116.899544,35.597157 117.051010,36.048145 
	C117.051010,36.048145 117.001221,36.006062 116.834938,35.698051 
	C116.131172,35.874828 115.593681,36.359619 115.056198,36.844406 
z"/>
<path fill="#821030" opacity="1.000000" stroke="none" 
	d="
M82.714890,62.995918 
	C82.714890,62.995918 82.383919,62.976318 82.218796,62.969364 
	C81.208977,62.545174 80.364296,62.127937 79.577026,61.503021 
	C80.474403,60.893959 81.314346,60.492577 82.481987,60.044777 
	C83.847252,59.680222 84.884834,59.362083 85.922409,59.043949 
	C85.922409,59.043949 85.985970,59.521000 85.675743,59.953720 
	C85.229652,60.921295 85.093788,61.456146 84.957932,61.991001 
	C84.957932,61.991001 85.006073,62.006893 84.691864,61.756439 
	C83.823402,62.002632 83.269150,62.499275 82.714890,62.995918 
z"/>
<path fill="#821030" opacity="1.000000" stroke="none" 
	d="
M128.004654,28.459503 
	C128.150803,31.773540 128.296448,35.548313 128.223572,39.661987 
	C128.004745,36.307339 128.004440,32.613785 128.004654,28.459503 
z"/>
<path fill="#ECBB42" opacity="1.000000" stroke="none" 
	d="
M83.454483,44.511692 
	C81.979744,43.797352 80.733505,42.995258 79.714989,42.014259 
	C81.189461,42.698212 82.436218,43.561077 83.454483,44.511692 
z"/>
<path fill="#ECBB42" opacity="1.000000" stroke="none" 
	d="
M86.923477,65.923309 
	C87.311996,64.674400 87.722252,63.449749 88.381119,62.050659 
	C89.237823,62.087364 89.845901,62.298508 90.684204,62.731842 
	C90.100998,63.545151 89.287560,64.136276 87.970871,64.937210 
	C87.272186,65.418083 87.076752,65.689140 86.881317,65.960197 
	C86.881317,65.960197 86.945198,65.947563 86.923477,65.923309 
z"/>
<path fill="#ECBB42" opacity="1.000000" stroke="none" 
	d="
M121.253845,58.825459 
	C120.383553,59.038357 119.211655,59.081120 117.560120,58.976509 
	C117.087280,57.812222 117.094063,56.795315 117.095253,55.396446 
	C117.347748,55.166046 117.569939,55.358952 117.878448,55.778366 
	C118.984528,56.860798 119.968384,57.758060 121.253845,58.825459 
z"/>
<path fill="#7B042D" opacity="1.000000" stroke="none" 
	d="
M80.991066,46.770733 
	C81.199486,46.811855 81.407906,46.852974 81.888023,47.201187 
	C81.971817,47.806808 81.783905,48.105324 81.290527,48.426029 
	C80.380096,48.541245 79.775146,48.634270 78.974609,48.608711 
	C78.480881,48.419930 78.187218,48.334381 77.898018,48.233482 
	C77.936005,48.009918 77.973999,47.786354 78.080612,47.227608 
	C78.149239,46.892426 78.206894,46.800766 78.570206,46.792549 
	C79.619370,46.779797 80.305222,46.775265 80.991066,46.770733 
z"/>
<path fill="#FED646" opacity="1.000000" stroke="none" 
	d="
M79.170189,48.727295 
	C79.775146,48.634270 80.380096,48.541245 81.662010,48.584145 
	C82.871796,48.791321 83.404625,48.862576 83.937454,48.933834 
	C83.935905,49.104542 83.934349,49.275246 83.921188,49.701477 
	C82.515846,49.991516 81.122108,50.026024 79.307632,50.065228 
	C78.886887,50.069920 78.470512,49.966919 78.285812,49.761379 
	C78.101105,49.555840 78.158348,49.251354 78.429199,49.154888 
	C78.856766,48.948048 79.013474,48.837673 79.170189,48.727295 
z"/>
<path fill="#E2A946" opacity="1.000000" stroke="none" 
	d="
M78.158348,49.251354 
	C78.158348,49.251354 78.101105,49.555840 78.077850,49.708984 
	C77.355164,49.790897 76.655731,49.719658 75.956306,49.648422 
	C76.122734,49.447922 76.289162,49.247425 77.007950,49.076859 
	C77.759659,49.154980 77.959000,49.203167 78.158348,49.251354 
z"/>
<path fill="#E2A946" opacity="1.000000" stroke="none" 
	d="
M82.154297,60.091198 
	C81.314346,60.492577 80.474403,60.893959 79.301125,61.420250 
	C78.970619,61.300941 78.973434,61.056717 79.007614,60.447403 
	C79.392120,60.029011 79.745255,59.975712 80.747147,59.953571 
	C81.648705,60.020218 81.901497,60.055710 82.154297,60.091198 
z"/>
<path fill="#C88345" opacity="1.000000" stroke="none" 
	d="
M78.429199,49.154888 
	C77.959000,49.203167 77.759659,49.154980 77.260925,49.036144 
	C77.144981,48.769867 77.355087,48.609085 77.744934,48.358315 
	C78.187218,48.334381 78.480881,48.419930 78.974609,48.608711 
	C79.013474,48.837673 78.856766,48.948048 78.429199,49.154888 
z"/>
<path fill="#7B042D" opacity="1.000000" stroke="none" 
	d="
M117.280602,36.091782 
	C116.899544,35.597157 116.748077,35.146164 116.787636,34.313450 
	C117.275185,34.450722 117.571701,34.969719 117.921661,35.787964 
	C117.975098,36.087215 117.510193,36.135418 117.280602,36.091782 
z"/>
<path fill="#E2A946" opacity="1.000000" stroke="none" 
	d="
M123.193039,61.046524 
	C122.565941,60.841904 122.164070,60.531513 121.860138,59.843426 
	C122.387466,59.633362 122.816841,59.800995 123.582031,60.048512 
	C123.911682,60.497780 123.745163,60.768570 123.193039,61.046524 
z"/>
<path fill="#891834" opacity="1.000000" stroke="none" 
	d="
M87.087715,65.847977 
	C87.076752,65.689140 87.272186,65.418083 87.721352,65.121910 
	C87.788773,65.353127 87.561783,65.566116 87.087715,65.847977 
z"/>
<path fill="#F5B92E" opacity="1.000000" stroke="none" 
	d="
M90.910355,172.223053 
	C91.188400,170.169144 91.714294,168.419174 92.240189,166.669205 
	C93.254280,167.665344 95.014038,168.579620 95.134171,169.673904 
	C95.424217,172.316010 94.049896,173.750870 90.910355,172.223053 
z"/>
<path fill="#181306" opacity="1.000000" stroke="none" 
	d="
M75.592957,137.846252 
	C76.025986,137.193024 76.723656,136.609253 77.421333,136.025467 
	C77.735809,136.498810 78.050293,136.972137 78.364777,137.445465 
	C77.529053,137.602203 76.693329,137.758957 75.592957,137.846252 
z"/>
<path fill="#181306" opacity="1.000000" stroke="none" 
	d="
M75.102249,139.801285 
	C76.221481,139.473892 77.210297,139.354767 78.199120,139.235641 
	C78.199577,139.666687 78.200043,140.097717 78.200508,140.528748 
	C77.124275,140.355682 76.048050,140.182617 75.102249,139.801285 
z"/>
<path fill="#821030" opacity="1.000000" stroke="none" 
	d="
M124.945557,51.989662 
	C125.273727,51.512104 125.601906,51.034546 126.058762,50.289337 
	C126.848251,50.912899 127.509056,51.804111 127.653137,52.850910 
	C126.406120,52.667553 125.675842,52.328606 124.945557,51.989662 
z"/>
<path fill="#7B042D" opacity="1.000000" stroke="none" 
	d="
M121.907623,55.228546 
	C121.702240,54.853073 121.496857,54.477600 121.291473,54.102127 
	C121.908226,53.976265 122.524971,53.850399 123.866829,53.824345 
	C125.389221,54.000332 126.186501,54.076508 126.986397,54.357613 
	C126.989006,54.562538 126.990898,54.972420 126.990898,54.972416 
	C126.459343,55.173058 125.927788,55.373703 124.874832,55.753483 
	C123.538155,55.697929 122.722893,55.463238 121.907623,55.228546 
z"/>
<path fill="#C88345" opacity="1.000000" stroke="none" 
	d="
M126.983788,54.152687 
	C126.186501,54.076508 125.389221,54.000332 124.207893,53.805805 
	C124.053200,53.222580 124.282539,52.757702 124.728722,52.141243 
	C125.675842,52.328606 126.406120,52.667553 127.429581,53.076660 
	C127.722748,53.146820 127.738739,53.481384 127.548706,53.719486 
	C127.358673,53.957588 126.983788,54.152687 126.983788,54.152687 
z"/>
<path fill="#E2A946" opacity="1.000000" stroke="none" 
	d="
M121.701248,55.449028 
	C122.722893,55.463238 123.538155,55.697929 124.672234,55.957123 
	C123.724419,56.243595 122.457802,56.505569 120.863983,56.590370 
	C120.856148,56.165306 121.175507,55.917408 121.701248,55.449028 
z"/>
<path fill="#8D1E3E" opacity="1.000000" stroke="none" 
	d="
M127.015823,42.807938 
	C127.046051,43.140419 126.894989,43.454815 126.743927,43.769211 
	C126.542953,43.619713 126.341988,43.470219 126.141014,43.320724 
	C126.372185,43.143768 126.603355,42.966812 127.015823,42.807938 
z"/>
<path fill="#821030" opacity="1.000000" stroke="none" 
	d="
M126.986397,54.357613 
	C126.983788,54.152687 127.358673,53.957588 127.557587,53.886719 
	C127.946594,54.411377 128.136673,55.006897 128.028214,55.612949 
	C127.523796,55.381050 127.281281,55.183636 127.002129,55.031242 
	C127.002129,55.031242 126.997261,55.002701 126.994080,54.987560 
	C126.990898,54.972420 126.989006,54.562538 126.986397,54.357613 
z"/>
<path fill="#8D1E3E" opacity="1.000000" stroke="none" 
	d="
M127.021912,55.217945 
	C127.281281,55.183636 127.523796,55.381050 127.866837,55.815395 
	C127.683243,55.806423 127.362465,55.605534 127.021912,55.217945 
z"/>
<path fill="#FCC428" opacity="1.000000" stroke="none" 
	d="
M154.280762,167.411163 
	C154.390503,167.322128 154.463104,167.627197 154.463104,167.627197 
	C154.463104,167.627197 154.171021,167.500183 154.280762,167.411163 
z"/>
<path fill="#EFBE32" opacity="1.000000" stroke="none" 
	d="
M146.211151,94.153793 
	C145.042343,95.342430 143.884171,96.128983 142.726013,96.915535 
	C142.173828,95.810661 141.129761,94.668541 141.209808,93.611542 
	C141.287598,92.584465 142.518127,91.644669 143.242462,90.666534 
	C144.235580,91.694923 145.228699,92.723320 146.211151,94.153793 
z"/>
<path fill="#DBAF2F" opacity="1.000000" stroke="none" 
	d="
M103.849960,113.208725 
	C104.452827,113.524002 104.921303,113.753105 104.906960,113.946388 
	C104.767601,115.825378 104.547424,117.698380 104.350281,119.573082 
	C103.170013,119.075562 101.346519,118.886055 100.932541,118.021568 
	C99.784233,115.623604 100.381836,113.569542 103.849960,113.208725 
z"/>
<path fill="#DBAF2F" opacity="1.000000" stroke="none" 
	d="
M87.956223,118.877235 
	C88.056427,116.860756 88.393814,115.133766 88.731201,113.406784 
	C89.748405,113.617928 91.387306,113.536102 91.653587,114.101135 
	C92.210426,115.282715 92.607574,117.181572 92.009521,118.078506 
	C91.450615,118.916740 89.520180,118.840492 87.956223,118.877235 
z"/>
<path fill="#DBAF2F" opacity="1.000000" stroke="none" 
	d="
M140.702026,116.865814 
	C139.459122,118.078049 138.261902,118.918930 137.064667,119.759811 
	C136.413849,118.542282 135.286255,117.333420 135.263916,116.104462 
	C135.246231,115.131744 136.584961,114.134369 137.321365,113.147949 
	C138.463470,114.263451 139.605576,115.378960 140.702026,116.865814 
z"/>
<path fill="#8A1C34" opacity="1.000000" stroke="none" 
	d="
M120.028992,45.005898 
	C119.804253,45.149757 119.590324,45.311573 119.376404,45.473396 
	C119.510262,45.345062 119.644119,45.216732 119.925934,45.069592 
	C120.073883,45.050785 120.039818,45.023849 120.028992,45.005898 
z"/>
<path fill="#7B042D" opacity="1.000000" stroke="none" 
	d="
M115.362686,36.892952 
	C115.593681,36.359619 116.131172,35.874828 116.856102,35.723465 
	C116.585426,36.351757 116.127304,36.646626 115.362686,36.892952 
z"/>
<path fill="#A2482F" opacity="1.000000" stroke="none" 
	d="
M119.534836,53.668053 
	C119.210045,53.664352 119.031075,53.523575 118.852104,53.382797 
	C119.128288,53.432190 119.404480,53.481583 119.534836,53.668053 
z"/>
<path fill="#ECBB42" opacity="1.000000" stroke="none" 
	d="
M82.481987,60.044777 
	C81.901497,60.055710 81.648705,60.020218 81.014984,59.941360 
	C81.683090,58.894894 82.732101,57.891792 83.823303,56.577457 
	C84.555702,56.986374 85.245934,57.706528 85.929291,58.735313 
	C84.884834,59.362083 83.847252,59.680222 82.481987,60.044777 
z"/>
<path fill="#FED646" opacity="1.000000" stroke="none" 
	d="
M83.059669,55.716976 
	C82.857903,56.173313 82.714958,56.281567 82.316063,56.472794 
	C82.964767,55.142471 78.220993,52.120735 83.691849,51.932747 
	C83.708321,53.087269 83.413406,54.228085 83.059669,55.716976 
z"/>
<path fill="#E2A946" opacity="1.000000" stroke="none" 
	d="
M81.011948,46.527306 
	C80.305222,46.775265 79.619370,46.779797 78.588356,46.741539 
	C79.043007,46.228142 79.842827,45.757538 80.824142,45.541466 
	C81.005653,45.796001 81.032829,46.283882 81.011948,46.527306 
z"/>
<path fill="#C88345" opacity="1.000000" stroke="none" 
	d="
M83.908966,48.637131 
	C83.404625,48.862576 82.871796,48.791321 81.967484,48.561951 
	C81.783905,48.105324 81.971817,47.806808 82.203339,47.247200 
	C82.791458,47.437553 83.335976,47.888992 83.908966,48.637131 
z"/>
<path fill="#ECBB42" opacity="1.000000" stroke="none" 
	d="
M85.276581,62.072632 
	C85.093788,61.456146 85.229652,60.921295 85.656334,60.193573 
	C86.212898,60.266720 86.478645,60.532738 86.976349,60.960396 
	C86.670616,61.466106 86.132927,61.810184 85.276581,62.072632 
z"/>
<path fill="#ECBB42" opacity="1.000000" stroke="none" 
	d="
M82.926842,63.173668 
	C83.269150,62.499275 83.823402,62.002632 84.687714,61.731430 
	C84.378105,62.421722 83.758446,62.886570 82.926842,63.173668 
z"/>
</svg>